<svg xmlns="http://www.w3.org/2000/svg" width="107.494" height="107.494" viewBox="0 0 107.494 107.494">
  <g id="forbidden" transform="translate(-1.67 -1.67)">
    <path id="Path_35440" data-name="Path 35440" d="M76.153,30.687a3.043,3.043,0,0,0-3.765,2.364c-.35,2.189-1.313,9.981-1.488,11.295l7.53-7.53V32.7a2.989,2.989,0,0,0-2.276-2.014Z" transform="translate(-9.442 -4.426)" fill="#b2b2b2" opacity="0.6"/>
    <path id="Path_35441" data-name="Path 35441" d="M56.176,22.3a3.181,3.181,0,0,0-2.627,2.977c-.088,1.576-.175,2.889-1.488,24.6-.088,2.014,0,2.889-.963,3.152a1.393,1.393,0,0,1-1.664-1.313c-.088-.525-2.977-19.788-3.327-21.8a2.421,2.421,0,0,0-1.926-2.189c-2.014-.613-3.94.438-3.677,2.977.263,4.2,1.664,24.866,1.664,24.954.088.876.35,2.364-.963,2.539-.7.088-1.051-.263-1.4-.876-1.138-2.452-3.677-8.143-6.392-14.272a2.533,2.533,0,0,0-4.816.525,3.914,3.914,0,0,0,.35,2.1c3.59,8.405,6.041,13.746,7.092,18.212a58.725,58.725,0,0,1,1.226,7.7L60.9,47.951c0-.876-.963-22.59-1.226-23.465a3.09,3.09,0,0,0-3.5-2.189Z" transform="translate(-4.173 -3.391)" fill="#b2b2b2" opacity="0.6"/>
    <path id="Path_35442" data-name="Path 35442" d="M64.264,99.939a14.39,14.39,0,0,0,9.281-4.378C80.637,88.294,82.826,84,86.24,79.1c2.8-4.028,6.829-7.18,7.968-8.843a2.153,2.153,0,0,0,.175-2.276,3.25,3.25,0,0,0-3.415-1.488c-1.4.263-8.143,3.852-13.046,9.544-.788.963-1.488,1.576-2.276,1.226-1.138-.525-.613-1.839-.7-3.415V59.4L42.9,91.358C50.342,102.215,62.25,99.588,64.264,99.939Z" transform="translate(-5.957 -8.011)" fill="#b2b2b2" opacity="0.6"/>
    <g id="forbidden_2_" data-name="forbidden (2)" transform="translate(1.67 1.67)">
      <g id="Group_327" data-name="Group 327">
        <path id="Path_35444" data-name="Path 35444" d="M91.758,15.736A53.756,53.756,0,0,0,15.736,91.758,53.756,53.756,0,0,0,91.758,15.736ZM4.674,53.747A49.023,49.023,0,0,1,86.72,17.465L17.466,86.72A48.681,48.681,0,0,1,4.674,53.747Zm49.073,49.073A48.682,48.682,0,0,1,20.774,90.029L90.029,20.775a49.023,49.023,0,0,1-36.282,82.046Z" fill="#949494"/>
      </g>
    </g>
  </g>
</svg>
