<svg id="alarm_off" xmlns="http://www.w3.org/2000/svg" width="20.138" height="20.19" viewBox="0 0 20.138 20.19">
  <path id="Path_1257" data-name="Path 1257" d="M7.606,7.514A6.852,6.852,0,0,0,5,13.012a6.935,6.935,0,0,0,6.944,7.012A7.036,7.036,0,0,0,17.463,17.3C16.354,16.182,11.424,11.351,7.606,7.514Z" transform="translate(-1.612 -1.8)" fill="#d23240" opacity="0.3"/>
  <path id="Path_1256" data-name="Path 1256" d="M9.959,6.29A6.9,6.9,0,0,1,18.832,13a7.1,7.1,0,0,1-.287,1.96l1.545,1.56A8.872,8.872,0,0,0,20.813,13a9.024,9.024,0,0,0-4-7.51A8.839,8.839,0,0,0,8.4,4.72Zm7.227-4.48,4.563,3.845L20.48,7.19,15.915,3.347,17.185,1.81ZM19.07,18.32l-1.416-1.43L8.047,7.19,6.631,5.76,5.9,5.02,4.492,3.6,3.006,2.1,1.61,3.51,2.967,4.88l-.911.77L3.323,7.19l1.05-.88.792.8A9.014,9.014,0,0,0,11.9,22a8.828,8.828,0,0,0,5.833-2.2l2.08,2.1,1.4-1.41ZM11.9,20A7.008,7.008,0,0,1,6.572,8.53l9.755,9.85A6.849,6.849,0,0,1,11.9,20ZM7.423,3.73l.456-.38L6.611,1.81l-.594.5Z" transform="translate(-1.61 -1.81)" fill="#d23240"/>
</svg>
