<svg xmlns="http://www.w3.org/2000/svg" width="157.35" height="152.274" viewBox="0 0 157.35 152.274">
  <g id="api_icon" transform="translate(0 0)">
    <g id="Group_48" data-name="Group 48" transform="translate(87.077 111.027)">
      <path id="Path_114" data-name="Path 114" d="M307.989,364.927a1.227,1.227,0,0,1-1.228-1.228v-8.415a1.228,1.228,0,0,1,2.455,0V363.7A1.227,1.227,0,0,1,307.989,364.927Z" transform="translate(-306.761 -354.057)" fill="#b6b1b7"/>
    </g>
    <g id="Group_49" data-name="Group 49" transform="translate(93.522 102.14)">
      <path id="Path_115" data-name="Path 115" d="M348.421,313.822a1.228,1.228,0,0,1-1.228-1.228V299.531a1.228,1.228,0,1,1,2.455,0v13.063A1.228,1.228,0,0,1,348.421,313.822Z" transform="translate(-347.193 -298.303)" fill="#b6b1b7"/>
    </g>
    <g id="Group_50" data-name="Group 50" transform="translate(92.33 100.055)">
      <ellipse id="Ellipse_9" data-name="Ellipse 9" cx="2.419" cy="2.419" rx="2.419" ry="2.419" transform="translate(0 0)" fill="#7b757d"/>
    </g>
    <g id="Group_51" data-name="Group 51" transform="translate(74.699 106.488)">
      <path id="Path_116" data-name="Path 116" d="M230.335,342.62a1.228,1.228,0,0,1-1.228-1.228V326.807a1.228,1.228,0,1,1,2.455,0v14.586A1.228,1.228,0,0,1,230.335,342.62Z" transform="translate(-229.107 -325.579)" fill="#b6b1b7"/>
    </g>
    <g id="Group_52" data-name="Group 52" transform="translate(73.507 104.403)">
      <ellipse id="Ellipse_10" data-name="Ellipse 10" cx="2.419" cy="2.419" rx="2.419" ry="2.419" transform="translate(0 0)" fill="#7b757d"/>
    </g>
    <g id="Group_53" data-name="Group 53" transform="translate(65.062 103.237)">
      <path id="Path_117" data-name="Path 117" d="M173.72,323.375a1.228,1.228,0,0,1-1.228-1.228V316.41l-3.24-3.24a2.033,2.033,0,0,1-.6-1.447v-5.312a1.228,1.228,0,0,1,2.455,0v5.143l3.24,3.24a2.033,2.033,0,0,1,.6,1.447v5.906A1.228,1.228,0,0,1,173.72,323.375Z" transform="translate(-168.654 -305.184)" fill="#b6b1b7"/>
    </g>
    <g id="Group_54" data-name="Group 54" transform="translate(80.834 96.787)">
      <path id="Path_118" data-name="Path 118" d="M268.821,289.224A1.228,1.228,0,0,1,267.593,288V276.623a2.032,2.032,0,0,1,.6-1.447l3.24-3.24v-5.982a1.228,1.228,0,0,1,2.455,0v6.152a2.033,2.033,0,0,1-.6,1.447l-3.239,3.239V288A1.227,1.227,0,0,1,268.821,289.224Z" transform="translate(-267.593 -264.727)" fill="#b6b1b7"/>
    </g>
    <g id="Group_55" data-name="Group 55" transform="translate(63.87 99.757)">
      <ellipse id="Ellipse_11" data-name="Ellipse 11" cx="2.419" cy="2.419" rx="2.419" ry="2.419" transform="translate(0 0)" fill="#7b757d"/>
    </g>
    <g id="Group_56" data-name="Group 56" transform="translate(83.481 94.148)">
      <ellipse id="Ellipse_12" data-name="Ellipse 12" cx="2.419" cy="2.419" rx="2.419" ry="2.419" transform="translate(0 0)" fill="#7b757d"/>
    </g>
    <g id="Group_57" data-name="Group 57" transform="translate(85.9 108.395)">
      <ellipse id="Ellipse_13" data-name="Ellipse 13" cx="2.419" cy="2.419" rx="2.419" ry="2.419" transform="translate(0 0)" fill="#7b757d"/>
    </g>
    <path id="Path_102" data-name="Path 102" d="M179.348,154.308a2.531,2.531,0,0,0-2.112-2.234l-8.664-1.455a50.44,50.44,0,0,0-7.952-19.24l5.085-7.14a2.529,2.529,0,0,0-.085-3.072c-1.2-1.454-2.473-2.868-3.833-4.228s-2.774-2.633-4.228-3.833a2.529,2.529,0,0,0-3.072-.085l-7.14,5.085a50.433,50.433,0,0,0-19.24-7.952l-1.456-8.664a2.529,2.529,0,0,0-2.233-2.112c-1.876-.18-3.776-.28-5.7-.28s-3.824.1-5.7.28a2.53,2.53,0,0,0-2.233,2.112l-1.456,8.664a50.449,50.449,0,0,0-19.24,7.952l-7.14-5.085a2.529,2.529,0,0,0-3.072.085c-1.454,1.2-2.867,2.473-4.228,3.833s-2.633,2.774-3.832,4.228a2.529,2.529,0,0,0-.086,3.072l5.086,7.14a50.461,50.461,0,0,0-7.953,19.24L60.2,152.074a2.53,2.53,0,0,0-2.112,2.234c-.18,1.876-.28,3.776-.28,5.7s.1,3.824.28,5.7a2.53,2.53,0,0,0,2.112,2.234l8.663,1.455a50.467,50.467,0,0,0,7.953,19.241l-5.086,7.139a2.529,2.529,0,0,0,.086,3.072c1.2,1.455,2.472,2.868,3.832,4.228s2.774,2.634,4.228,3.833a2.531,2.531,0,0,0,3.072.086l7.14-5.086a50.469,50.469,0,0,0,19.24,7.953l1.456,8.664a2.532,2.532,0,0,0,2.233,2.112c1.878.179,3.777.279,5.7.279s3.824-.1,5.7-.279a2.531,2.531,0,0,0,2.233-2.112l1.456-8.664a50.454,50.454,0,0,0,19.24-7.953l7.14,5.086a2.531,2.531,0,0,0,3.072-.086c1.454-1.2,2.868-2.473,4.228-3.833s2.634-2.773,3.833-4.228a2.529,2.529,0,0,0,.085-3.072l-5.085-7.139a50.446,50.446,0,0,0,7.952-19.241l8.664-1.455a2.53,2.53,0,0,0,2.112-2.234c.18-1.876.28-3.776.28-5.7s-.1-3.825-.28-5.7Zm-60.63,33.616a27.917,27.917,0,1,1,27.917-27.916,27.917,27.917,0,0,1-27.917,27.916Zm0,0" transform="translate(-40.042 -68.642)" fill="#b6b1b7"/>
    <path id="Path_103" data-name="Path 103" d="M170.2,173.418a38.069,38.069,0,1,0,38.068,38.069A38.069,38.069,0,0,0,170.2,173.418Zm0,65.986a27.917,27.917,0,1,1,27.917-27.916A27.917,27.917,0,0,1,170.2,239.4Zm0,0" transform="translate(-91.522 -120.122)" fill="#9b959d"/>
    <path id="Path_104" data-name="Path 104" d="M172.013,165.084a30.474,30.474,0,0,0,7.468-.965c.1-1.361.145-2.725.145-4.11,0-1.924-.1-3.824-.279-5.7a2.534,2.534,0,0,0-2.112-2.234l-8.664-1.455a50.46,50.46,0,0,0-7.952-19.24l5.085-7.14a2.529,2.529,0,0,0-.085-3.072c-1.2-1.454-2.473-2.868-3.833-4.228s-2.774-2.633-4.228-3.833a2.529,2.529,0,0,0-3.072-.085l-7.141,5.085a50.44,50.44,0,0,0-19.24-7.952l-1.456-8.664a2.53,2.53,0,0,0-2.233-2.112c-1.876-.18-3.777-.28-5.7-.28s-3.824.1-5.7.28a2.53,2.53,0,0,0-2.233,2.112l-1.456,8.664a50.441,50.441,0,0,0-19.24,7.952l-7.14-5.085a2.529,2.529,0,0,0-3.072.085c-1.454,1.2-2.868,2.473-4.228,3.833s-2.633,2.774-3.833,4.228a2.529,2.529,0,0,0-.085,3.072l5.085,7.14a50.46,50.46,0,0,0-7.952,19.24L60.2,152.074a2.531,2.531,0,0,0-2.112,2.234c-.179,1.876-.279,3.776-.279,5.7,0,.636.013,1.267.034,1.9a37.9,37.9,0,0,0,15.193,3.178H91.26a27.918,27.918,0,1,1,54.914,0Zm0,0" transform="translate(-40.042 -68.643)" fill="#9b959d"/>
    <path id="Path_105" data-name="Path 105" d="M207.93,216.567a38.068,38.068,0,1,0-75.466,0H142.74a27.918,27.918,0,1,1,54.914,0Zm0,0" transform="translate(-91.522 -120.125)" fill="#857e87"/>
    <path id="Path_106" data-name="Path 106" d="M139.528,41.751c.02-.381.058-.758.058-1.144a20.271,20.271,0,0,0-29.265-18.2,45.6,45.6,0,0,0-80.205,3.116,32.983,32.983,0,0,0,2.879,65.84h98.979a25.384,25.384,0,0,0,7.556-49.615Zm0,0" transform="translate(0)" fill="#edf4ff"/>
    <path id="Path_107" data-name="Path 107" d="M53.3,144.376A35.527,35.527,0,0,1,28.039,83.859a32.983,32.983,0,0,0,4.954,65.593h98.979a25.377,25.377,0,0,0,15.228-5.076H53.3Zm0,0" transform="translate(0 -58.087)" fill="#dbeaff"/>
    <g id="Group_30" data-name="Group 30" transform="translate(32.993 32.993)">
      <path id="Path_108" data-name="Path 108" d="M130.9,111.432a6.138,6.138,0,0,0-11.562,0L107.5,144.57a2.537,2.537,0,1,0,4.778,1.707l3.932-11h17.814l3.93,11a2.537,2.537,0,1,0,4.779-1.707ZM118.026,130.2l6.095-17.061a1.107,1.107,0,0,1,2,0l6.092,17.059Zm0,0" transform="translate(-107.354 -107.355)" fill="#ff8086"/>
      <path id="Path_109" data-name="Path 109" d="M250.861,107.355h-8.882a5.082,5.082,0,0,0-5.077,5.076v32.993a2.538,2.538,0,0,0,5.077,0V135.272h8.882a13.959,13.959,0,0,0,0-27.917Zm0,22.84h-8.882V112.43h8.882a8.882,8.882,0,1,1,0,17.765Zm0,0" transform="translate(-197.089 -107.354)" fill="#ff8086"/>
      <path id="Path_110" data-name="Path 110" d="M349.378,107.355a2.537,2.537,0,0,0-2.538,2.538v35.531a2.538,2.538,0,0,0,5.076,0V109.893A2.537,2.537,0,0,0,349.378,107.355Zm0,0" transform="translate(-273.241 -107.355)" fill="#ff8086"/>
    </g>
    <path id="Path_111" data-name="Path 111" d="M112.637,181.676,107.5,196.051a2.537,2.537,0,1,0,4.778,1.707l3.932-11h17.814l3.93,11a2.537,2.537,0,1,0,4.779-1.707L137.6,181.676Zm0,0" transform="translate(-74.361 -125.842)" fill="#e5646e"/>
    <path id="Path_112" data-name="Path 112" d="M241.978,196.907V186.756h8.882a13.937,13.937,0,0,0,10.759-5.076H236.9v15.227a2.538,2.538,0,1,0,5.076,0Zm0,0" transform="translate(-164.096 -125.845)" fill="#e5646e"/>
    <path id="Path_113" data-name="Path 113" d="M349.378,199.444a2.537,2.537,0,0,1-2.538-2.538V181.679h5.076v15.227A2.538,2.538,0,0,1,349.378,199.444Zm0,0" transform="translate(-240.248 -125.845)" fill="#e5646e"/>
  </g>
</svg>
