<svg xmlns="http://www.w3.org/2000/svg" width="21.264" height="21.274" viewBox="0 0 21.264 21.274">
  <g id="comment_inactive" transform="translate(-0.125 0)">
    <path id="Path_1364" data-name="Path 1364" d="M1.314,19.683l.973-4.521S-2.52,6.405,7.552,1.369A10.067,10.067,0,0,1,19.342,5.89c1.316,2.289,1.831,6.467,0,9.271a9.488,9.488,0,0,1-5.208,4.521,9.354,9.354,0,0,1-7.5-.63L1.314,20.369Z" fill="#b4b6bb" opacity="0.3"/>
    <path id="Path_1361" data-name="Path 1361" d="M18.275,3.116A10.633,10.633,0,0,0,1.243,15.382L.148,20.2a.874.874,0,0,0,1.045,1.045l4.817-1.1A10.633,10.633,0,0,0,18.275,3.116ZM8.195,19.141c-1.281-.61-1.115-1.008-2.247-.769l-3.79.861.859-3.776a.873.873,0,0,0-.083-.608,8.887,8.887,0,1,1,5.261,4.293Z" transform="translate(0 0)" fill="#b4b6bb"/>
    <path id="Path_1362" data-name="Path 1362" d="M137.887,192.061h-8.871a.873.873,0,0,0,0,1.747h8.871a.873.873,0,1,0,0-1.747Z" transform="translate(-122.694 -184.075)" fill="#b4b6bb"/>
    <path id="Path_1363" data-name="Path 1363" d="M135.67,277.394h-6.653a.873.873,0,0,0,0,1.747h6.653a.873.873,0,0,0,0-1.747Z" transform="translate(-122.694 -265.859)" fill="#b4b6bb"/>
  </g>
</svg>
