<svg xmlns="http://www.w3.org/2000/svg" width="16" height="20" viewBox="0 0 16 20">
  <g id="excel_download" transform="translate(-4 -2)">
    <path id="Path_1163" data-name="Path 1163" d="M13,4H6V20H18V9H13Z" fill="#212121" opacity="0.3"/>
    <path id="Path_1164" data-name="Path 1164" d="M20,8,14,2H6A2,2,0,0,0,4.01,4L4,20a2,2,0,0,0,1.99,2H18a2.006,2.006,0,0,0,2-2ZM18,20H6V4h7V9h5Z" fill="#212121"/>
    <path id="Path_1165" data-name="Path 1165" d="M3.179-4.658,4.512-7.109H6.2L4.126-3.584,6.25,0h-1.7L3.179-2.49,1.812,0H.107L2.231-3.584.161-7.109H1.846Z" transform="translate(9 18)"/>
  </g>
</svg>
