<svg xmlns="http://www.w3.org/2000/svg" width="21.217" height="18.758" viewBox="0 0 21.217 18.758">
  <g id="Group_2" data-name="Group 2" transform="translate(-442 -397)">
    <path id="user_2_" data-name="user (2)" d="M10.013,17.293H2.7a.736.736,0,0,1-.581-.279.771.771,0,0,1-.154-.642A8.044,8.044,0,0,1,9.611,9.962c.061,0,.123,0,.185,0a4.961,4.961,0,1,0-2.954-.992A9.413,9.413,0,0,0,3.8,10.661,9.574,9.574,0,0,0,.546,16.073a2.24,2.24,0,0,0,.449,1.865,2.185,2.185,0,0,0,1.708.819h7.311a.733.733,0,0,0,0-1.465Zm-3.7-12.31A3.486,3.486,0,1,1,9.878,8.5.712.712,0,0,0,9.8,8.494l-.17,0A3.508,3.508,0,0,1,6.309,4.983Z" transform="translate(441.501 397)"/>
    <g id="go-back-arrow" transform="translate(451.207 406.9)">
      <g id="Group_3" data-name="Group 3" transform="translate(0 0)">
        <path id="Path_62" data-name="Path 62" d="M11.763,53.017a.247.247,0,0,1-.221-.137c-.014-.027-1.146-2.127-5.871-2.2V52.77a.247.247,0,0,1-.4.2L.1,49a.247.247,0,0,1,0-.392L5.274,44.64a.247.247,0,0,1,.4.2v2.2c.125-.008.288-.015.48-.015,1.762,0,5.859.56,5.859,5.749a.247.247,0,0,1-.191.241A.223.223,0,0,1,11.763,53.017Z" transform="translate(0 -44.589)"/>
      </g>
    </g>
  </g>
</svg>
