<svg xmlns="http://www.w3.org/2000/svg" width="1028.463" height="1028.476" viewBox="0 0 1028.463 1028.476">
  <g id="Group_265" data-name="Group 265" transform="translate(-503.741 -282.735)">
    <g id="g10" transform="translate(504 282.995)" opacity="0.3">
      <g id="g12" transform="translate(0)">
        <path id="path14" d="M1022.127,342.425C1025.753,311.543,937.817,251,725.306,225,921.534,139.387,996.021,107.7,983.724,79.139S865,42.127,667.959,125.861C795.088-46.4,843.763-111.078,818.826-129.663S697.492-102.347,568.689,68.73c23.953-212.823,33.736-293.2,2.853-296.821S480.126-143.77,454.152,68.754c-85.646-196.223-117.341-270.71-145.9-258.412s-37.009,118.739,46.76,315.783C182.733-.993,118.041-49.656,99.459-24.725S126.778,96.6,297.833,225.367C85.08,201.419,4.724,191.622,1.1,222.5s84.323,91.419,296.843,117.4C101.713,425.541,27.224,457.231,39.526,485.789S158.26,522.8,355.3,439.044C228.179,611.319,179.509,676.006,204.441,694.589s121.335-27.315,250.1-198.363c-23.958,212.754-33.757,293.107-2.875,296.733s91.424-84.321,117.409-296.836C654.7,692.348,686.387,766.842,714.944,754.544s37.019-118.734-46.727-315.77C840.485,565.9,905.167,614.566,923.746,589.634s-27.3-121.328-198.344-250.1c212.752,23.967,293.094,33.774,296.725,2.891Z" transform="translate(2.356 231.545)" fill="rgba(209,7,7,0)" stroke="#1d6ce5" stroke-width="0.519"/>
        <path id="path16" d="M1024.57,330.1c2.811-30.969-85.1-83.614-298.218-104.041C920.268,135.334,992.328,96.145,979.287,67.912s-115.5-29.857-310.281,59C791.586-48.609,834.388-118.578,808.978-136.5S694.014-104.608,569.736,69.782C588.113-143.593,590.18-225.613,559.2-228.435s-83.6,85.113-104,298.242C364.448-124.109,325.243-196.163,297.017-183.11S267.165-67.6,356.06,127.177C180.514,4.608,110.537-38.188,92.609-12.777s31.9,114.958,206.271,239.2C85.57,208.048,3.571,205.971.755,236.941s85.105,83.6,298.231,104.016C105.068,431.695,33.014,470.9,46.06,499.125S161.568,528.978,356.343,440.1C233.777,615.637,190.974,685.61,216.383,703.535s114.958-31.9,239.2-206.257c-18.379,213.3-20.466,295.305,10.5,298.121S549.7,710.3,570.12,497.175c90.735,193.92,129.929,265.975,158.156,252.935S758.139,634.6,669.263,439.827C844.8,562.4,914.766,605.208,932.691,579.792S900.8,464.834,726.448,340.587c213.3,18.389,295.3,20.477,298.122-10.49Z" transform="translate(1.309 230.492)" fill="rgba(209,7,7,0)" stroke="#1d6ce5" stroke-width="0.519"/>
        <path id="path18" d="M1026.392,317.462c2.008-31.03-85.676-75.79-299.254-90.63C918.614,131.07,988.043,84.433,974.265,56.553s-112.093-22.8-304.474,71.137C787.733-50.979,824.542-126.083,798.676-143.337S690.2-107.02,570.521,70.559c12.786-213.782,7.091-297.247-23.944-299.248S470.8-143,455.984,70.583C360.192-120.887,313.546-190.31,285.666-176.532s-22.778,112.1,71.179,304.486C178.153,10.024,103.044-26.773,85.79-.9s36.319,108.467,213.875,228.1C85.954,214.41,2.507,220.095.5,251.127s85.69,75.781,299.273,90.606c-191.479,95.783-260.9,142.428-247.12,170.3s112.093,22.788,304.477-71.162C239.2,619.558,202.394,694.665,228.265,711.921S336.736,675.6,456.371,498.055c-12.791,213.711-7.112,297.157,23.918,299.161s75.778-85.684,90.616-299.264C666.68,689.425,713.318,758.855,741.2,745.076S763.988,632.984,670.048,440.6C848.73,558.542,923.828,595.345,941.082,569.479S904.776,461.008,727.233,341.363c213.7,12.8,297.151,7.126,299.159-23.9Z" transform="translate(0.524 229.715)" fill="rgba(209,7,7,0)" stroke="#1d6ce5" stroke-width="0.519"/>
        <path id="path20" d="M1027.6,304.543c1.193-31.067-86.053-67.943-299.943-77.192C916.559,126.609,983.16,72.6,968.669,45.1s-108.5-15.822-298.361,83.111c113.226-181.7,143.9-261.768,117.589-278.339S686.021-109.569,571.038,71.078c7.189-214.04-6.3-298.751-37.375-299.938S465.725-142.794,456.5,71.1C355.73-117.8,301.713-184.391,274.2-169.888s-15.8,108.5,83.158,298.361C175.643,15.259,95.564-15.407,78.994,10.9s40.565,101.875,221.188,216.814C86.211,220.529,1.525,234.009.329,265.079s86.063,67.938,299.959,77.174c-188.9,100.76-255.5,154.774-241,182.283s108.5,15.807,298.355-83.143C244.431,623.1,213.756,703.181,240.075,719.751s101.864-40.558,216.813-221.177c-7.194,213.971,6.281,298.655,37.353,299.849s67.941-86.056,77.181-299.952C672.177,687.377,726.186,753.976,753.694,739.478s15.81-108.5-83.129-298.355c181.7,113.221,261.774,143.893,278.351,117.582S908.361,456.836,727.75,341.883C941.712,349.086,1026.4,335.616,1027.6,304.543Z" transform="translate(0.007 229.196)" fill="rgba(209,7,7,0)" stroke="#1d6ce5" stroke-width="0.519"/>
        <path id="path22" d="M1028.185,291.352c.384-31.094-86.221-60.1-300.279-63.748C914.1,121.954,977.694,60.651,962.484,33.527S857.762,24.6,670.559,128.462C778.99-56.134,803.412-141.013,776.677-156.895S681.508-112.265,571.29,71.331c1.582-214.154-19.728-299.9-50.826-300.273s-60.089,86.233-63.711,300.3C351.075-114.836,289.759-178.421,262.641-163.2s-8.919,104.722,94.973,291.925C173,20.312,88.1-4.1,72.232,22.638s44.634,95.157,228.2,205.331C86.348,226.382.63,247.687.246,278.78s86.231,60.092,300.294,63.725C114.345,448.172,50.76,509.483,65.977,536.6S170.7,545.53,357.9,441.645c-108.417,184.608-132.829,269.5-106.09,285.375s95.153-44.632,205.333-228.193c-1.592,214.086,19.711,299.8,50.8,300.186s60.094-86.229,63.732-300.289C677.331,684.923,738.64,748.512,765.758,733.3s8.936-104.72-94.941-291.919C855.419,549.8,940.3,574.217,956.179,547.48S911.556,452.324,728,342.135c214.076,1.6,299.8-19.692,300.183-50.784Z" transform="translate(-0.245 228.944)" fill="rgba(209,7,7,0)" stroke="#1d6ce5" stroke-width="0.519"/>
        <path id="path24" d="M1028.161,277.884c-.437-31.091-86.191-52.247-300.267-50.294C911.267,117.1,971.647,48.592,955.735,21.875S854.969,19.717,670.547,128.448c103.565-187.365,121.6-276.9,94.462-292.069S676.648-115.1,571.277,71.317C567.26-142.8,538.1-229.376,507-228.938s-52.237,86.191-50.26,300.279C346.226-112.021,277.7-172.4,250.989-156.477S248.844-55.711,357.6,128.712C170.215,25.159,80.676,7.132,65.508,34.28s48.525,88.343,234.914,193.674C86.369,231.974-.179,261.13.25,292.218s86.194,52.244,300.277,50.273C117.158,453,56.783,521.518,72.707,548.229s100.764,2.147,285.177-106.6C254.336,629.013,236.308,718.545,263.452,733.715s88.333-48.52,193.674-234.9c4.008,214.051,33.163,300.6,64.254,300.17s52.246-86.191,50.28-300.273c110.494,183.37,179.018,243.754,205.729,227.83S779.541,625.778,670.8,441.362C858.175,544.917,947.711,562.95,962.879,535.81s-48.513-88.346-234.89-193.689C942.035,338.123,1028.592,308.973,1028.161,277.884Z" transform="translate(-0.232 228.958)" fill="rgba(209,7,7,0)" stroke="#1d6ce5" stroke-width="0.519"/>
        <path id="path26" d="M1027.511,264.16c-1.246-31.068-85.945-44.4-299.9-36.845C908.028,112.07,965.022,36.426,948.409,10.141s-96.631,4.513-278.141,118.032C768.889-61.841,780.425-155.847,752.9-170.3S671.455-118.061,571,71.042C561.375-142.9,524.345-230.1,493.274-228.848S448.882-142.89,456.462,71.066C341.188-109.341,265.533-166.323,239.251-149.71s4.528,96.637,118.072,278.147C167.288,29.828,73.28,18.3,58.824,45.835s52.24,81.421,241.319,181.844C86.273,237.294-.907,274.32.341,305.392s85.952,44.4,299.907,36.824C119.838,457.478,62.855,533.128,79.467,559.413s96.635-4.525,278.138-118.057C259,631.378,247.468,725.391,275,739.843s81.427-52.233,181.85-241.305c9.61,213.868,46.633,301.048,77.7,299.8s44.4-85.948,36.831-299.9c115.253,180.417,190.908,237.4,217.187,220.79s-4.519-96.635-118.044-278.138C860.54,539.7,954.552,551.232,969.007,523.7s-52.229-81.427-241.3-181.857C941.577,332.248,1028.757,295.232,1027.511,264.16Z" transform="translate(0.046 229.233)" fill="rgba(209,7,7,0)" stroke="#1d6ce5" stroke-width="0.519"/>
        <path id="path28" d="M1026.246,250.183c-2.056-31.027-85.5-36.567-299.176-23.415C904.409,106.843,957.819,24.158,940.523-1.678S848.2,9.4,669.723,127.627c93.617-192.525,98.537-290.84,70.64-304.57S665.93-121.172,570.454,70.5c-15.217-213.614-60.13-301.232-91.159-299.164S442.74-143.161,455.917,70.519C335.966-106.807,253.27-160.211,227.434-142.915S238.521-50.581,356.778,127.89c-192.549-93.6-290.859-98.507-304.59-70.61S107.96,131.7,299.6,227.133C86.053,242.343-1.545,287.253.519,318.276S86.02,354.838,299.7,341.67C122.372,461.614,68.964,544.3,86.261,570.141s92.329-11.087,270.8-129.332c-93.6,192.537-98.512,290.852-70.61,304.582s74.409-55.768,169.852-247.4c15.2,213.545,60.106,301.141,91.131,299.079s36.569-85.5,23.4-299.182C690.776,675.222,773.462,728.638,799.3,711.339s-11.081-92.329-129.317-270.8c192.531,93.61,290.846,98.524,304.576,70.624S918.792,436.753,727.166,341.3C940.708,326.1,1028.308,281.206,1026.246,250.183Z" transform="translate(0.591 229.779)" fill="rgba(209,7,7,0)" stroke="#1d6ce5" stroke-width="0.519"/>
        <path id="path30" d="M1024.375,235.969c-2.877-30.962-84.855-28.743-298.109-10.005C900.4,101.442,950.056,11.817,932.089-13.564S844.237,3.972,668.918,126.822c88.547-194.91,86.737-297.355,58.492-310.347S660.072-124.4,569.649,69.691c-20.8-213.135-73.6-300.968-104.566-298.1s-28.733,84.855-9.971,298.122c-124.554-174.127-214.186-223.773-239.565-205.8s17.546,87.851,140.426,263.171C161.046,38.558,58.6,40.373,45.608,68.63s59.113,67.307,253.185,157.7C85.719,247.122-2.088,299.921.782,330.881s84.853,28.741,298.116,9.984C124.767,465.408,75.124,555.035,93.088,580.414s87.854-17.537,263.168-140.409c-88.53,194.92-86.716,297.367-58.464,310.36S365.1,691.248,455.5,497.187c20.784,213.07,73.583,300.881,104.542,298.009s28.738-84.848,9.992-298.112C694.568,671.218,784.194,720.868,809.568,702.9s-17.53-87.856-140.392-263.168c194.916,88.537,297.355,86.723,310.354,58.474S920.414,430.894,726.361,340.5C939.424,319.719,1027.24,266.929,1024.375,235.969Z" transform="translate(1.396 230.583)" fill="rgba(209,7,7,0)" stroke="#1d6ce5" stroke-width="0.519"/>
        <path id="path32" d="M1021.878,221.52c-3.674-30.875-83.992-20.946-296.683,3.369C896.014,95.848,941.722-.616,923.1-25.516S839.889-1.658,667.848,125.747C751.265-71.411,742.623-177.81,714.042-190.06S653.891-127.781,568.579,68.616C542.207-143.9,481.509-231.741,450.636-228.056s-20.936,84,3.406,296.7C324.98-102.167,228.5-147.869,203.6-129.243S227.477-46.03,354.9,126.011C157.726,42.612,51.327,51.272,39.076,79.847s62.28,60.128,258.647,145.407C85.267,251.613-2.545,312.309,1.131,343.182s84,20.936,296.7-3.392C127.021,468.848,81.315,565.314,99.936,590.213s83.216-23.867,255.25-151.284c-83.4,197.167-74.751,303.564-46.169,315.815s60.131-62.271,145.412-258.633C480.782,708.563,541.472,796.379,572.348,792.7s20.938-83.991-3.386-296.691c129.049,170.815,225.512,216.523,250.413,197.9S795.517,610.7,668.106,438.66c197.164,83.406,303.558,74.76,315.807,46.181S921.646,424.711,725.291,339.42C937.743,313.077,1025.558,252.39,1021.878,221.52Z" transform="translate(2.466 231.659)" fill="rgba(209,7,7,0)" stroke="#1d6ce5" stroke-width="0.519"/>
        <path id="path34" d="M369.692-183.245a76.049,76.049,0,0,1,109.918,0c52.346,54.123,58.441,56.316,132.113,43.12,42.377-7.593,82.392,21.611,88.912,64.892C711.925-.249,714.975,4.684,782.265,37.645c38.379,18.794,53.667,66.049,33.968,105.006-34.37,67.974-34.855,72.668,0,139.543,19.7,37.788,4.411,85.042-33.968,105.01-67.6,35.172-70.028,37.878-81.631,112.872-6.52,42.115-46.536,71.317-88.912,64.893-75.29-11.405-78.155-10.593-132.113,43.122-30.276,30.14-79.737,30.14-109.918,0-53.8-53.736-56.786-54.509-132.1-43.12-42.485,6.421-82.5-22.78-88.912-64.9-11.421-74.9-14.034-77.79-81.638-112.872-38.477-19.969-53.764-67.222-33.964-105.01,34.949-66.719,34.46-71.724,0-139.543-19.8-38.957-4.514-86.212,33.964-105.006C134.331,4.768,137.564-.332,148.676-75.233c6.417-43.281,46.427-72.485,88.912-64.892,73.709,13.173,79.908,11.033,132.1-43.12Z" transform="translate(84.195 306.576)" fill="rgba(209,7,7,0)" stroke="#1d6ce5" stroke-width="0.519"/>
        <path id="path36" d="M362.374-181.248a73.865,73.865,0,0,1,106.762,0c50.844,52.577,56.765,54.7,128.316,41.891,41.172-7.377,80.036,20.987,86.365,63.022C694.784-3.5,697.75,1.293,763.11,33.308c37.282,18.255,52.127,64.155,32.992,102-33.381,66.024-33.854,70.582,0,135.54,19.136,36.7,4.291,82.6-32.992,102C697.445,407.01,695.1,409.637,683.817,482.48c-6.329,40.9-45.193,69.268-86.365,63.027-73.127-11.076-75.9-10.286-128.316,41.89-29.405,29.275-77.452,29.275-106.762,0-52.263-52.2-55.156-52.949-128.318-41.89-41.265,6.241-80.126-22.122-86.363-63.027C136.6,409.726,134.064,406.919,68.4,372.843c-37.372-19.4-52.221-65.3-32.992-102,33.947-64.808,33.47-69.669,0-135.54-19.229-37.842-4.38-83.743,32.992-102C133.762,1.371,136.9-3.579,147.694-76.334c6.236-42.035,45.1-70.4,86.363-63.022,71.595,12.789,77.618,10.71,128.318-41.891Z" transform="translate(93.221 315.912)" fill="rgba(209,7,7,0)" stroke="#1d6ce5" stroke-width="0.519"/>
        <path id="path38" d="M355.053-179.249a71.681,71.681,0,0,1,103.606,0C508-128.225,513.745-126.163,583.192-138.6c39.949-7.156,77.663,20.37,83.806,61.165,10.65,70.681,13.526,75.332,76.95,106.4,36.18,17.721,50.593,62.261,32.021,98.989-32.392,64.074-32.854,68.5,0,131.53,18.572,35.625,4.159,80.168-32.021,98.99-63.723,33.151-66,35.7-76.95,106.4-6.143,39.694-43.857,67.22-83.806,61.166-70.969-10.753-73.672-9.983-124.533,40.652-28.537,28.408-75.161,28.408-103.606,0-50.723-50.655-53.53-51.383-124.529-40.652-40.048,6.053-77.761-21.472-83.81-61.166-10.764-70.607-13.231-73.332-76.954-106.4-36.272-18.822-50.681-63.365-32.018-98.99,32.945-62.889,32.486-67.6,0-131.53C19.08,91.233,33.489,46.687,69.761,28.966c63.437-30.99,66.482-35.8,76.954-106.4,6.049-40.794,43.763-68.32,83.81-61.165,69.477,12.418,75.325,10.4,124.529-40.65Z" transform="translate(102.249 325.252)" fill="rgba(209,7,7,0)" stroke="#1d6ce5" stroke-width="0.519"/>
        <path id="path40" d="M347.725-177.251a69.5,69.5,0,0,1,100.453,0c47.839,49.472,53.413,51.474,120.738,39.41,38.739-6.94,75.308,19.753,81.265,59.307C660.5-10,663.294-5.5,724.788,24.629,759.859,41.805,773.834,85,755.832,120.6c-31.409,62.121-31.853,66.414,0,127.529,18,34.537,4.027,77.724-31.044,95.972-61.788,32.147-64,34.619-74.607,103.162-5.957,38.489-42.526,65.176-81.265,59.31-68.806-10.429-71.419-9.682-120.738,39.411-27.668,27.542-72.875,27.542-100.453,0-49.175-49.119-51.9-49.819-120.738-39.411-38.826,5.867-75.39-20.821-81.256-59.31C135.293,378.809,132.9,376.17,71.118,344.1c-35.162-18.248-49.134-61.435-31.042-95.972,31.945-60.974,31.491-65.551,0-127.529-18.092-35.6-4.12-78.8,31.042-95.972,61.5-30.043,64.455-34.712,74.613-103.163,5.867-39.554,42.43-66.247,81.256-59.307C294.358-125.8,300.023-127.761,347.725-177.251Z" transform="translate(111.281 334.592)" fill="rgba(209,7,7,0)" stroke="#1d6ce5" stroke-width="0.519"/>
        <path id="path42" d="M340.4-175.252a67.326,67.326,0,0,1,97.3,0c46.332,47.92,51.732,49.856,116.948,38.169,37.516-6.718,72.935,19.136,78.706,57.449,10,66.379,12.7,70.747,72.264,99.921,33.98,16.643,47.512,58.474,30.073,92.962-30.427,60.171-30.852,64.326,0,123.526,17.44,33.453,3.907,75.287-30.073,92.962-59.84,31.135-61.986,33.528-72.264,99.919-5.771,37.278-41.19,63.133-78.706,57.449C488,477,485.473,477.724,437.708,525.279c-26.8,26.676-70.591,26.676-97.3,0-47.631-47.574-50.266-48.26-116.948-38.175-37.6,5.684-73.023-20.171-78.7-57.449-10.111-66.3-12.426-68.863-72.272-99.919-34.061-17.675-47.593-59.509-30.066-92.962,30.939-59.059,30.506-63.5,0-123.526-17.527-34.488-4-76.325,30.066-92.962,59.572-29.1,62.433-33.615,72.272-99.921,5.682-38.313,41.1-64.167,78.7-57.449,65.251,11.668,70.746,9.769,116.948-38.169Z" transform="translate(120.309 343.932)" fill="rgba(209,7,7,0)" stroke="#1d6ce5" stroke-width="0.519"/>
        <path id="path44" d="M333.078-173.254a65.145,65.145,0,0,1,94.151,0c44.833,46.362,50.059,48.238,113.159,36.935,36.3-6.5,70.574,18.512,76.153,55.585,9.679,64.227,12.292,68.452,69.926,96.679,32.872,16.109,45.966,56.58,29.1,89.954-29.444,58.223-29.863,62.24,0,119.52,16.87,32.369,3.776,72.846-29.1,89.949-57.9,30.127-59.978,32.442-69.926,96.681-5.579,36.073-39.853,61.087-76.153,55.583-64.491-9.769-66.936-9.071-113.159,36.934a66.9,66.9,0,0,1-94.151,0c-46.086-46.026-48.637-46.684-113.158-36.932-36.382,5.5-70.654-19.512-76.155-55.585-9.778-64.157-12.019-66.634-69.924-96.681-32.954-17.1-46.05-57.58-29.1-89.947,29.939-57.146,29.52-61.435,0-119.522-16.954-33.374-3.858-73.851,29.1-89.954,57.641-28.155,60.41-32.524,69.924-96.679,5.5-37.073,39.774-62.087,76.155-55.585C283.058-125.034,288.372-126.868,333.078-173.254Z" transform="translate(129.339 353.273)" fill="rgba(209,7,7,0)" stroke="#1d6ce5" stroke-width="0.519"/>
        <path id="path46" d="M226.058-124.165c-17.08-11.74-26.306-26.189-30.686-39.71a105.6,105.6,0,0,1-3.961-18.3,104.567,104.567,0,0,1-4.078,18.279c-4.471,13.46-13.784,27.855-30.948,39.506-34.806,23.385-64.123,47.363-64.86,72.12.629,24.781,29.815,23.307,64.464,46.949,17.09,11.764,26.3,26.183,30.691,39.7a103.975,103.975,0,0,1,3.958,18.328,103.953,103.953,0,0,1,4.081-18.3c4.469-13.49,13.786-27.819,30.946-39.5C260.471-28.486,290-26.521,290.739-51.272c-.635-24.745-30.023-49.256-64.681-72.893Z" transform="translate(318.758 392.383)" fill="rgba(209,7,7,0)" stroke="#1d6ce5" stroke-width="0.519"/>
        <path id="path48" d="M207.384-129.447c-18.711-8.924-30.079-21.755-36.522-34.418a105.407,105.407,0,0,1-6.775-17.464,104.359,104.359,0,0,1-1.17,18.7c-2.313,13.988-9.259,29.659-24.391,43.857C107.812-90.229,82.6-61.966,85.748-37.4c4.5,24.374,33.095,18.357,71.017,36.282,18.716,8.954,30.07,21.755,36.524,34.424a104.025,104.025,0,0,1,6.775,17.476,103.722,103.722,0,0,1,1.168-18.71c2.3-14.03,9.263-29.635,24.389-43.863C256.34-40.332,285.811-43,282.667-67.57c-4.495-24.344-37.358-43.953-75.283-61.878Z" transform="translate(297.642 395.346)" fill="rgba(209,7,7,0)" stroke="#1d6ce5" stroke-width="0.519"/>
        <path id="path50" d="M187.055-134.332c-19.87-5.885-33.111-16.78-41.455-28.281a105.226,105.226,0,0,1-9.42-16.193,104.612,104.612,0,0,1,1.768,18.656c-.094,14.179-4.5,30.75-17.232,47.135C94.844-80.024,74.37-48.159,81.318-24.391,89.577-1.018,116.875-11.434,157.136.337c19.885,5.921,33.1,16.786,41.457,28.284a104.411,104.411,0,0,1,9.427,16.207,103.88,103.88,0,0,1-1.777-18.66c.08-14.217,4.516-30.722,17.228-47.143,25.88-33,54.566-40.243,47.621-64.017-8.248-23.337-43.773-37.57-84.038-49.34Z" transform="translate(278.303 404.162)" fill="rgba(209,7,7,0)" stroke="#1d6ce5" stroke-width="0.519"/>
        <path id="path52" d="M165.712-138.7c-20.547-2.709-35.328-11.4-45.369-21.449a105.634,105.634,0,0,1-11.834-14.515,104.23,104.23,0,0,1,4.661,18.135c2.128,14.024.366,31.08-9.642,49.256-20.4,36.629-35.633,71.311-25.049,93.7C90.292,8.215,115.624-6.342,157.226-1.014c20.568,2.739,35.324,11.4,45.369,21.451a104,104,0,0,1,11.853,14.531,103.926,103.926,0,0,1-4.678-18.155c-2.147-14.051-.344-31.053,9.643-49.254,20.4-36.635,47.6-48.286,37.023-70.676-11.8-21.761-49.112-30.265-90.724-35.586Z" transform="translate(261.082 418.626)" fill="rgba(209,7,7,0)" stroke="#1d6ce5" stroke-width="0.519"/>
        <path id="path54" d="M144.134-142.442c-20.718.539-36.677-5.729-48.166-14.09a105.235,105.235,0,0,1-13.962-12.489,104.374,104.374,0,0,1,7.442,17.194c4.3,13.514,5.223,30.636-1.816,50.156C73.216-62.3,63.59-25.674,77.542-5.211c15.078,19.679,37.822,1.332,79.747.091,20.743-.517,36.669,5.733,48.169,14.088a104.362,104.362,0,0,1,13.973,12.5,104.286,104.286,0,0,1-7.456-17.207c-4.317-13.537-5.195-30.611,1.816-50.148,14.418-39.374,39.464-55.136,25.515-75.6C224.251-141.13,186.064-143.689,144.134-142.442Z" transform="translate(246.151 438.36)" fill="rgba(209,7,7,0)" stroke="#1d6ce5" stroke-width="0.519"/>
        <path id="path56" d="M130.549-145.471c-20.379,3.776-37.119.078-49.772-6.383A105.111,105.111,0,0,1,65.034-162a104.159,104.159,0,0,1,10.041,15.816c6.351,12.675,9.945,29.438,6.042,49.82C73.042-55.222,69.264-17.538,86.243.488c17.974,17.08,37.568-4.6,78.777-12.384,20.411-3.755,37.116-.072,49.779,6.381A103.749,103.749,0,0,1,230.562,4.648,104.279,104.279,0,0,1,220.5-11.177c-6.382-12.7-9.919-29.422-6.047-49.816,8.079-41.148,30.352-60.637,13.372-78.664C209.884-156.708,171.772-153.256,130.549-145.471Z" transform="translate(226.178 462.897)" fill="rgba(209,7,7,0)" stroke="#1d6ce5" stroke-width="0.519"/>
        <path id="path58" d="M125.307-139.668c-19.534,6.916-36.651,5.885-50.161,1.486a105.751,105.751,0,0,1-17.134-7.563A104.051,104.051,0,0,1,70.4-131.7c8.261,11.524,14.432,27.526,13.765,48.262-1.543,41.9.623,79.708,20.215,94.858C124.8,25.48,140.767,1.006,180.253-13.132c19.567-6.9,36.644-5.874,50.161-1.482a104.068,104.068,0,0,1,17.155,7.571A103.761,103.761,0,0,1,235.162-21.1c-8.29-11.544-14.4-27.507-13.768-48.257,1.543-41.9,20.5-64.628.9-79.785C201.9-163.179,164.8-153.812,125.307-139.668Z" transform="translate(201.64 483.59)" fill="rgba(209,7,7,0)" stroke="#1d6ce5" stroke-width="0.519"/>
        <path id="path60" d="M119.78-123.75c-18.213,9.882-35.279,11.543-49.313,9.313a106.478,106.478,0,0,1-18.1-4.788A104.325,104.325,0,0,1,66.8-107.293C76.759-97.2,85.353-82.362,87.94-61.776c5.033,41.623,13.084,78.632,34.8,90.529,22.368,10.687,34.307-15.982,71.1-36.119,18.253-9.875,35.279-11.539,49.318-9.313a104.364,104.364,0,0,1,18.122,4.794,104.1,104.1,0,0,1-14.451-11.944c-9.994-10.1-18.522-24.915-21.144-45.511-5.031-41.633,10.129-67.044-11.588-78.94-22.333-10.674-57.517,4.381-94.315,24.529Z" transform="translate(181.899 498.499)" fill="rgba(209,7,7,0)" stroke="#1d6ce5" stroke-width="0.519"/>
        <path id="path62" d="M114.1-106.519C97.66-93.9,81.064-89.595,66.854-89.607A105.186,105.186,0,0,1,48.226-91.5a103.94,103.94,0,0,1,16.121,9.53c11.419,8.414,22.226,21.717,28,41.647C103.828,0,117.57,35.3,140.882,43.648c23.763,7.061,31.386-21.151,64.575-46.794,16.476-12.611,33.034-16.913,47.249-16.911a104,104,0,0,1,18.653,1.9,103.849,103.849,0,0,1-16.144-9.535c-11.452-8.42-22.2-21.71-28-41.644-11.485-40.329-.484-67.8-23.792-76.155-23.73-7.048-56.126,13.322-89.321,38.973Z" transform="translate(167.441 515.662)" fill="rgba(209,7,7,0)" stroke="#1d6ce5" stroke-width="0.519"/>
        <path id="path64" d="M108.419-88.649C94.155-73.612,78.438-66.765,64.4-64.553a105.024,105.024,0,0,1-18.7,1.042,104.576,104.576,0,0,1,17.414,6.892c12.595,6.524,25.353,17.977,34.17,36.754,17.649,38.03,36.74,70.738,61.075,75.345,24.571,3.257,27.687-25.8,56.463-56.315,14.3-15.034,29.979-21.874,44.016-24.1a104.4,104.4,0,0,1,18.724-1.042,104.15,104.15,0,0,1-17.436-6.892c-12.628-6.522-25.32-17.977-34.177-36.747-17.644-38.045-11.075-66.9-35.41-71.5-24.537-3.248-53.345,21.94-82.121,52.46Z" transform="translate(158.615 534.916)" fill="rgba(209,7,7,0)" stroke="#1d6ce5" stroke-width="0.519"/>
        <path id="path66" d="M102.871-70.715c-11.744,17.078-26.2,26.3-39.71,30.686a105.527,105.527,0,0,1-18.309,3.947A104.53,104.53,0,0,1,63.133-32c13.458,4.471,27.848,13.791,39.5,30.958,23.38,34.8,47.352,64.123,72.1,64.865C199.518,63.2,198.048,34.013,221.692-.63c11.775-17.085,26.194-26.294,39.711-30.684a104.248,104.248,0,0,1,18.325-3.957,103.87,103.87,0,0,1-18.3-4.08c-13.493-4.469-27.82-13.793-39.5-30.955-23.377-34.809-21.406-64.333-46.155-65.076-24.742.629-49.262,30.017-72.9,64.666Z" transform="translate(155.646 555.923)" fill="rgba(209,7,7,0)" stroke="#1d6ce5" stroke-width="0.519"/>
        <path id="path68" d="M97.584-53.436c-8.924,18.7-21.759,30.073-34.422,36.513A104.924,104.924,0,0,1,45.7-10.155,105.084,105.084,0,0,1,64.392-8.978C78.386-6.667,94.057.281,108.248,15.416c28.533,30.717,56.8,55.927,81.362,52.79,24.38-4.5,18.363-33.09,36.3-71.01,8.957-18.71,21.755-30.063,34.42-36.515a104.4,104.4,0,0,1,17.485-6.775A103.749,103.749,0,0,1,259.1-47.263c-14.025-2.3-29.632-9.263-43.854-24.391-28.537-30.726-31.206-60.194-55.773-57.055-24.337,4.492-43.959,37.348-61.885,75.273Z" transform="translate(158.605 578.437)" fill="rgba(209,7,7,0)" stroke="#1d6ce5" stroke-width="0.519"/>
        <path id="path70" d="M92.7-37.167C86.809-17.3,75.911-4.061,64.413,4.28A104.524,104.524,0,0,1,48.22,13.7a104.588,104.588,0,0,1,18.649-1.763C81.048,12.027,97.615,16.442,114,29.17c32.987,25.875,64.848,46.355,88.619,39.414,23.375-8.259,12.96-35.558,24.743-75.814,5.918-19.885,16.787-33.1,28.284-41.45A104.5,104.5,0,0,1,271.855-58.1a104.044,104.044,0,0,1-18.663,1.772c-14.217-.079-30.724-4.521-47.134-17.234-32.987-25.88-40.24-54.569-64.013-47.626-23.331,8.24-37.568,43.763-49.346,84.024Z" transform="translate(167.417 601.832)" fill="rgba(209,7,7,0)" stroke="#1d6ce5" stroke-width="0.519"/>
        <path id="path72" d="M88.333-22.372C85.62-1.825,76.931,12.954,66.876,22.992A105,105,0,0,1,52.355,34.824,104.439,104.439,0,0,1,70.5,30.168c14.022-2.126,31.077-.358,49.245,9.652,36.63,20.395,71.305,35.64,93.694,25.065,21.8-11.813,7.238-37.147,12.579-78.752,2.732-20.561,11.4-35.314,21.453-45.364A104.425,104.425,0,0,1,262-71.072a104.514,104.514,0,0,1-18.154,4.67c-14.051,2.142-31.049.339-49.25-9.65-36.632-20.406-48.272-47.609-70.668-37.03C102.171-101.288,93.662-63.979,88.333-22.372Z" transform="translate(181.867 625.598)" fill="rgba(209,7,7,0)" stroke="#1d6ce5" stroke-width="0.519"/>
        <path id="path74" d="M84.584-9.444c.539,20.718-5.735,36.672-14.095,48.159A105.531,105.531,0,0,1,58,52.672a104.273,104.273,0,0,1,17.187-7.435c13.52-4.293,30.635-5.216,50.152,1.83,39.366,14.414,75.994,24.047,96.459,10.1,19.679-15.076,1.337-37.824.105-79.744-.513-20.742,5.738-36.668,14.095-48.165a104.114,104.114,0,0,1,12.5-13.973A104.09,104.09,0,0,1,231.3-77.259c-13.541,4.315-30.609,5.192-50.149-1.826-39.371-14.423-55.128-39.469-75.589-25.521C85.909-89.554,83.343-51.372,84.584-9.444Z" transform="translate(201.604 649.181)" fill="rgba(209,7,7,0)" stroke="#1d6ce5" stroke-width="0.519"/>
        <path id="path76" d="M81.558,1.319c3.774,20.379.073,37.119-6.386,49.772A105.112,105.112,0,0,1,65.021,66.83,104.1,104.1,0,0,1,80.834,56.8c12.679-6.354,29.445-9.947,49.819-6.04,41.138,8.081,78.819,11.864,96.847-5.111,17.08-17.969-4.591-37.563-12.365-78.78-3.755-20.406-.071-37.112,6.389-49.774a104.264,104.264,0,0,1,10.162-15.755,104.054,104.054,0,0,1-15.825,10.052c-12.7,6.377-29.424,9.919-49.819,6.04C124.9-90.655,105.419-112.929,87.391-95.95,70.337-78.013,73.776-39.9,81.558,1.319Z" transform="translate(226.132 671.975)" fill="rgba(209,7,7,0)" stroke="#1d6ce5" stroke-width="0.519"/>
        <path id="path78" d="M87.342,22.513c6.91,19.536,5.879,36.653,1.475,50.156A104.985,104.985,0,0,1,81.253,89.8,104.34,104.34,0,0,1,95.3,77.422c11.53-8.257,27.523-14.425,48.263-13.758,41.9,1.55,79.707-.609,94.858-20.2,14.063-20.416-10.41-36.382-24.538-75.868-6.9-19.571-5.871-36.648-1.477-50.163a104.179,104.179,0,0,1,7.571-17.15,104.143,104.143,0,0,1-14.058,12.4c-11.544,8.282-27.5,14.39-48.256,13.756-41.9-1.547-64.626-20.5-79.779-.915C63.85-54.087,73.2-16.98,87.342,22.513Z" transform="translate(246.839 680.564)" fill="rgba(209,7,7,0)" stroke="#1d6ce5" stroke-width="0.519"/>
        <path id="path80" d="M103.254,43.1c9.884,18.218,11.541,35.284,9.308,49.313a105.794,105.794,0,0,1-4.79,18.1,104.27,104.27,0,0,1,11.939-14.43c10.09-9.956,24.925-18.548,45.509-21.132,41.624-5.026,78.635-13.07,90.532-34.788,10.694-22.366-15.97-34.312-36.1-71.1-9.875-18.25-11.532-35.277-9.3-49.318a104.249,104.249,0,0,1,4.8-18.122A103.664,103.664,0,0,1,203.2-83.923c-10.109,9.989-24.92,18.52-45.517,21.134-41.628,5.024-67.035-10.139-78.937,11.574C68.071-28.881,83.116,6.306,103.254,43.1Z" transform="translate(261.744 685.251)" fill="rgba(209,7,7,0)" stroke="#1d6ce5" stroke-width="0.519"/>
        <path id="path82" d="M120.491,59.832c12.613,16.444,16.911,33.041,16.9,47.249a104.645,104.645,0,0,1-1.9,18.63,104.51,104.51,0,0,1,9.535-16.12c8.411-11.415,21.717-22.221,41.649-27.989C227,70.123,262.293,56.391,270.65,33.079,277.713,9.315,249.506,1.693,223.87-31.5c-12.607-16.481-16.907-33.039-16.9-47.251a104.2,104.2,0,0,1,1.9-18.651,103.643,103.643,0,0,1-9.535,16.142c-8.421,11.452-21.715,22.19-41.649,28-40.326,11.471-67.8.466-76.153,23.78C74.483-5.761,94.845,26.639,120.491,59.832Z" transform="translate(278.904 688.658)" fill="rgba(209,7,7,0)" stroke="#1d6ce5" stroke-width="0.519"/>
        <path id="path84" d="M138.363,72.308c15.029,14.271,21.874,29.988,24.084,44.02a104.654,104.654,0,0,1,1.035,18.7,105.178,105.178,0,0,1,6.9-17.412c6.52-12.592,17.977-25.346,36.754-34.162,38.037-17.64,70.746-36.728,75.355-61.056,3.256-24.576-25.8-27.694-56.306-56.465-15.029-14.3-21.865-29.986-24.086-44.023a103.9,103.9,0,0,1-1.037-18.723,103.449,103.449,0,0,1-6.9,17.436c-6.524,12.627-17.972,25.316-36.754,34.165-38.039,17.642-66.887,11.073-71.5,35.4-3.254,24.536,21.928,53.349,52.451,82.125Z" transform="translate(298.153 690.697)" fill="rgba(209,7,7,0)" stroke="#1d6ce5" stroke-width="0.519"/>
        <path id="path86" d="M156.289,80.212c17.075,11.742,26.3,26.2,30.672,39.708a104.746,104.746,0,0,1,3.952,18.309A104.273,104.273,0,0,1,195,119.953C199.471,106.5,208.789,92.1,225.96,80.46c34.806-23.373,64.125-47.338,64.874-72.092-.623-24.78-29.809-23.319-64.446-46.961-17.08-11.777-26.288-26.2-30.677-39.715a104.6,104.6,0,0,1-3.952-18.33,104.011,104.011,0,0,1-4.08,18.3c-4.471,13.491-13.8,27.816-30.958,39.493C121.909-15.473,92.382-17.448,91.64,7.3c.623,24.747,30,49.267,64.649,72.911Z" transform="translate(319.16 691.321)" fill="rgba(209,7,7,0)" stroke="#1d6ce5" stroke-width="0.519"/>
        <path id="path88" d="M173.57,83.348c18.7,8.931,30.07,21.762,36.506,34.427a104.7,104.7,0,0,1,6.766,17.464,104.146,104.146,0,0,1,1.179-18.693c2.316-13.99,9.266-29.658,24.405-43.847,30.713-28.528,55.932-56.788,52.792-81.35-4.495-24.379-33.081-18.373-71-36.307-18.709-8.957-30.058-21.76-36.506-34.427a103.049,103.049,0,0,1-6.768-17.483,104.71,104.71,0,0,1-1.178,18.712c-2.3,14.025-9.275,29.63-24.4,43.847C124.648-5.775,95.177-3.113,98.309,21.454c4.491,24.339,37.342,43.964,75.261,61.894Z" transform="translate(341.667 690.515)" fill="rgba(209,7,7,0)" stroke="#1d6ce5" stroke-width="0.519"/>
        <path id="path90" d="M189.84,81.648c19.866,5.888,33.1,16.79,41.443,28.289A105.385,105.385,0,0,1,240.7,126.13a104.7,104.7,0,0,1-1.762-18.648c.1-14.18,4.513-30.742,17.242-47.125C282.061,27.371,302.539-4.478,295.6-28.251,287.352-51.626,260.054-41.218,219.8-53c-19.882-5.927-33.095-16.792-41.44-28.3a104.308,104.308,0,0,1-9.423-16.2,103.775,103.775,0,0,1,1.77,18.662c-.084,14.212-4.527,30.714-17.241,47.13C127.576,1.269,98.887,8.51,105.826,32.283,114.067,55.618,149.582,69.868,189.84,81.648Z" transform="translate(365.061 688.298)" fill="rgba(209,7,7,0)" stroke="#1d6ce5" stroke-width="0.519"/>
        <path id="path92" d="M204.633,75.144c20.548,2.715,35.326,11.41,45.359,21.46a105.746,105.746,0,0,1,11.83,14.524,104.638,104.638,0,0,1-4.657-18.143c-2.121-14.022-.354-31.07,9.661-49.243,20.4-36.623,35.652-71.289,25.075-93.68-11.8-21.8-37.139-7.246-78.742-12.593C192.6-65.272,177.846-73.939,167.8-83.993a103.975,103.975,0,0,1-11.841-14.533,104.352,104.352,0,0,1,4.668,18.157c2.142,14.048.333,31.042-9.657,49.243C130.568,5.5,103.362,17.139,113.935,39.535,125.722,61.3,163.033,69.807,204.633,75.144Z" transform="translate(388.83 684.721)" fill="rgba(209,7,7,0)" stroke="#1d6ce5" stroke-width="0.519"/>
        <path id="path94" d="M217.566,64.007c20.718-.532,36.671,5.745,48.154,14.1a104.2,104.2,0,0,1,13.952,12.494,105.226,105.226,0,0,1-7.431-17.193c-4.291-13.517-5.208-30.634,1.834-50.151C288.5-16.1,298.136-52.72,284.2-73.188c-15.072-19.679-37.822-1.346-79.743-.114C183.71-72.8,167.789-79.047,156.3-87.41a103.761,103.761,0,0,1-13.968-12.5,104.263,104.263,0,0,1,7.449,17.2c4.313,13.543,5.186,30.612-1.833,50.149-14.43,39.369-39.477,55.119-25.536,75.58,15.051,19.653,53.23,22.226,95.158,20.987Z" transform="translate(412.41 679.874)" fill="rgba(209,7,7,0)" stroke="#1d6ce5" stroke-width="0.519"/>
        <path id="path96" d="M228.332,50.209c20.376-3.769,37.115-.066,49.772,6.4A104.928,104.928,0,0,1,293.835,66.76,104.475,104.475,0,0,1,283.8,50.947c-6.352-12.679-9.936-29.445-6.029-49.819,8.091-41.136,11.878-78.817-5.094-96.845C254.719-112.8,235.116-91.132,193.9-83.364c-20.406,3.746-37.11.063-49.77-6.393a104.366,104.366,0,0,1-15.75-10.165A104.005,104.005,0,0,1,138.43-84.095c6.376,12.7,9.909,29.417,6.03,49.814-8.09,41.141-30.369,60.611-13.395,78.647C149,61.423,187.112,57.986,228.332,50.209Z" transform="translate(435.205 672.176)" fill="rgba(209,7,7,0)" stroke="#1d6ce5" stroke-width="0.519"/>
        <path id="path98" d="M249.507,46.62c19.543-6.908,36.659-5.871,50.161-1.47A105.235,105.235,0,0,1,316.8,52.719a104.143,104.143,0,0,1-12.376-14.053C296.163,27.136,290,11.142,290.667-9.6c1.552-41.89-.6-79.7-20.178-94.855-20.412-14.06-36.383,10.406-75.877,24.525-19.561,6.9-36.641,5.869-50.154,1.47a104.364,104.364,0,0,1-17.15-7.573,103.869,103.869,0,0,1,12.4,14.058c8.282,11.544,14.386,27.507,13.746,48.258-1.556,41.9-20.512,64.619-.929,79.775,20.382,14.042,57.49,4.689,96.978-9.439Z" transform="translate(443.808 649.286)" fill="rgba(209,7,7,0)" stroke="#1d6ce5" stroke-width="0.519"/>
        <path id="path100" d="M270.093,39.49C288.312,29.613,305.38,27.96,319.4,30.2a105.167,105.167,0,0,1,18.1,4.793,104.334,104.334,0,0,1-14.425-11.939c-9.954-10.1-18.548-24.934-21.125-45.517C296.936-64.086,288.9-101.093,267.187-113c-22.366-10.7-34.31,15.968-71.107,36.094-18.249,9.869-35.269,11.525-49.309,9.3a104.254,104.254,0,0,1-18.122-4.8A104.143,104.143,0,0,1,143.1-60.464c9.984,10.111,18.518,24.92,21.131,45.514,5.01,41.63-10.152,67.035,11.56,78.934C198.111,74.666,233.3,59.625,270.093,39.49Z" transform="translate(448.501 625.597)" fill="rgba(209,7,7,0)" stroke="#1d6ce5" stroke-width="0.519"/>
        <path id="path102" d="M286.836,28.982c16.445-12.606,33.039-16.9,47.249-16.892a104.817,104.817,0,0,1,18.632,1.9A104.374,104.374,0,0,1,336.6,4.454C325.185-3.957,314.38-17.271,308.609-37.2c-11.465-40.322-25.189-75.617-48.5-83.977-23.756-7.065-31.385,21.141-64.581,46.771-16.481,12.6-33.039,16.9-47.255,16.895a103.943,103.943,0,0,1-18.648-1.908,103.826,103.826,0,0,1,16.141,9.54c11.448,8.42,22.188,21.715,27.989,41.647,11.459,40.329.455,67.8,23.762,76.158,23.72,7.056,56.124-13.306,89.32-38.945Z" transform="translate(451.906 601.717)" fill="rgba(209,7,7,0)" stroke="#1d6ce5" stroke-width="0.519"/>
        <path id="path104" d="M299.309,15.372C313.579.35,329.3-6.493,343.334-8.7a104.937,104.937,0,0,1,18.7-1.035,104.262,104.262,0,0,1-17.41-6.9c-12.585-6.525-25.344-17.981-34.16-36.761-17.625-38.03-36.707-70.746-61.039-75.357-24.571-3.264-27.694,25.786-56.466,56.294C178.652-57.431,162.969-50.6,148.927-48.381a104.218,104.218,0,0,1-18.718,1.033,103.741,103.741,0,0,1,17.43,6.9c12.627,6.525,25.314,17.977,34.16,36.756,17.631,38.039,11.057,66.89,35.389,71.5C241.717,71.067,270.537,45.889,299.309,15.372Z" transform="translate(453.948 578.209)" fill="rgba(209,7,7,0)" stroke="#1d6ce5" stroke-width="0.519"/>
        <path id="path106" d="M307.217-.931C318.963-18,333.418-27.218,346.933-31.6a105.241,105.241,0,0,1,18.309-3.947,104.181,104.181,0,0,1-18.279-4.09c-13.448-4.476-27.838-13.8-39.482-30.967-23.367-34.8-47.327-64.13-72.078-64.879-24.781.617-23.319,29.8-46.967,64.437-11.782,17.073-26.2,26.277-39.722,30.665a104.356,104.356,0,0,1-18.327,3.949,103.341,103.341,0,0,1,18.3,4.09c13.49,4.469,27.808,13.79,39.488,30.96,23.367,34.813,21.377,64.334,46.134,65.085C259.045,63.084,283.575,33.709,307.217-.931Z" transform="translate(454.575 555.583)" fill="rgba(209,7,7,0)" stroke="#1d6ce5" stroke-width="0.519"/>
        <path id="path108" d="M310.365-19.595c8.93-18.7,21.761-30.066,34.43-36.5a104.823,104.823,0,0,1,17.464-6.763,104.416,104.416,0,0,1-18.692-1.18c-13.988-2.318-29.659-9.271-43.845-24.408-28.521-30.725-56.772-55.943-81.337-52.815-24.38,4.495-18.375,33.087-36.312,71-8.966,18.707-21.767,30.054-34.436,36.5A103.422,103.422,0,0,1,130.158-27a104.692,104.692,0,0,1,18.708,1.178c14.024,2.306,29.623,9.28,43.845,24.4,28.521,30.733,31.182,60.2,55.741,57.072,24.349-4.486,43.971-37.335,61.914-75.248Z" transform="translate(453.77 534.461)" fill="rgba(209,7,7,0)" stroke="#1d6ce5" stroke-width="0.519"/>
        <path id="path110" d="M308.67-39.918c5.891-19.866,16.792-33.1,28.293-41.431a105.315,105.315,0,0,1,16.193-9.412A105.271,105.271,0,0,1,334.506-89c-14.173-.108-30.738-4.525-47.117-17.254-32.973-25.884-64.826-46.374-88.6-39.44-23.373,8.246-12.963,35.556-24.757,75.8-5.927,19.882-16.8,33.09-28.3,41.436a104.46,104.46,0,0,1-16.212,9.422,104.128,104.128,0,0,1,18.661-1.767c14.215.087,30.714,4.53,47.123,17.244,32.979,25.894,40.219,54.585,63.987,47.649,23.337-8.239,37.588-43.751,49.376-84Z" transform="translate(451.551 515.121)" fill="rgba(209,7,7,0)" stroke="#1d6ce5" stroke-width="0.519"/>
        <path id="path112" d="M302.171-61.255c2.715-20.54,11.417-35.313,21.467-45.357a105.616,105.616,0,0,1,14.521-11.818,104.705,104.705,0,0,1-18.141,4.651c-14.018,2.122-31.068.348-49.233-9.667C234.162-143.852,199.5-159.1,177.1-148.539c-21.8,11.8-7.251,37.139-12.6,78.73-2.745,20.566-11.411,35.317-21.471,45.357A103.986,103.986,0,0,1,128.5-12.61a103.852,103.852,0,0,1,18.162-4.665c14.045-2.14,31.041-.33,49.236,9.666C232.514,12.8,244.153,40,266.548,29.439c21.761-11.782,30.283-49.091,35.622-90.693Z" transform="translate(447.976 497.896)" fill="rgba(209,7,7,0)" stroke="#1d6ce5" stroke-width="0.519"/>
        <path id="path114" d="M291.037-82.826c-.527-20.718,5.747-36.671,14.114-48.154a105.394,105.394,0,0,1,12.489-13.958,104.165,104.165,0,0,1-17.188,7.437c-13.514,4.285-30.63,5.208-50.15-1.846-39.356-14.425-75.979-24.074-96.443-10.134-19.683,15.066-1.353,37.816-.131,79.743C154.237-49,147.982-33.08,139.62-21.59A103.557,103.557,0,0,1,127.114-7.624a104.049,104.049,0,0,1,17.207-7.445c13.541-4.31,30.609-5.183,50.146,1.84C233.828,1.2,249.572,26.253,270.038,12.32c19.651-15.048,22.234-53.228,21-95.146Z" transform="translate(443.133 482.962)" fill="rgba(209,7,7,0)" stroke="#1d6ce5" stroke-width="0.519"/>
        <path id="path116" d="M277.228-96.463c-3.764-20.382-.06-37.121,6.406-49.766a105.129,105.129,0,0,1,10.152-15.732,104.375,104.375,0,0,1-15.81,10.026c-12.681,6.347-29.444,9.93-49.82,6.023-41.13-8.1-78.807-11.89-96.84,5.076-17.087,17.961,4.579,37.564,12.342,78.778,3.746,20.406.056,37.106-6.4,49.764A104.007,104.007,0,0,1,127.084,3.459,104.054,104.054,0,0,1,142.912-6.588c12.708-6.375,29.427-9.907,49.815-6.026,41.142,8.1,60.607,30.38,78.646,13.407C288.429-17.135,285-55.25,277.228-96.464Z" transform="translate(435.451 463.032)" fill="rgba(209,7,7,0)" stroke="#1d6ce5" stroke-width="0.519"/>
        <path id="path118" d="M273.642-101.708c-6.9-19.537-5.873-36.647-1.462-50.149a105.611,105.611,0,0,1,7.569-17.128A104.114,104.114,0,0,1,265.7-156.609c-11.531,8.258-27.526,14.413-48.256,13.742-41.895-1.564-79.7.581-94.858,20.16-14.063,20.412,10.4,36.383,24.511,75.877,6.892,19.567,5.859,36.641,1.463,50.157a103.945,103.945,0,0,1-7.585,17.143,104.822,104.822,0,0,1,14.064-12.4C166.587-.208,182.548-6.31,203.3-5.669c41.9,1.566,64.61,20.521,79.767.939,14.042-20.374,4.7-57.483-9.421-96.977Z" transform="translate(412.565 438.485)" fill="rgba(209,7,7,0)" stroke="#1d6ce5" stroke-width="0.519"/>
        <path id="path120" d="M266.515-107.229c-9.87-18.219-11.519-35.281-9.283-49.3a105.053,105.053,0,0,1,4.8-18.1,104.807,104.807,0,0,1-11.944,14.425c-10.1,9.954-24.931,18.542-45.519,21.119-41.621,5.01-78.628,13.047-90.534,34.747C103.336-81.981,130-70.03,150.112-33.239c9.865,18.255,11.523,35.281,9.289,49.315A104.351,104.351,0,0,1,154.6,34.2a103.883,103.883,0,0,1,11.951-14.447c10.108-9.99,24.92-18.512,45.514-21.119C253.684-6.379,279.094,8.8,291-12.917,301.676-35.241,286.645-70.432,266.515-107.229Z" transform="translate(388.877 418.728)" fill="rgba(209,7,7,0)" stroke="#1d6ce5" stroke-width="0.519"/>
        <path id="path122" d="M256.012-112.9c-12.6-16.451-16.9-33.045-16.882-47.249a105.132,105.132,0,0,1,1.906-18.632,104.461,104.461,0,0,1-9.542,16.121c-8.414,11.411-21.725,22.21-41.653,27.969-40.32,11.465-75.617,25.189-83.979,48.5-7.07,23.756,21.132,31.385,46.754,64.581,12.6,16.481,16.9,33.045,16.886,47.256a104.278,104.278,0,0,1-1.91,18.646,104.158,104.158,0,0,1,9.541-16.134C185.558,16.7,198.85,5.971,218.784.17c40.332-11.459,67.792-.443,76.158-23.75C302-47.3,281.65-79.7,256.012-112.9Z" transform="translate(364.999 404.251)" fill="rgba(209,7,7,0)" stroke="#1d6ce5" stroke-width="0.519"/>
        <path id="path124" d="M242.408-118.587c-15.018-14.269-21.863-29.989-24.066-44.025a104.957,104.957,0,0,1-1.03-18.7,104.511,104.511,0,0,1-6.9,17.41c-6.526,12.591-17.984,25.338-36.765,34.154-38.035,17.619-70.748,36.7-75.362,61.027-3.266,24.571,25.781,27.694,56.283,56.472,15.024,14.311,21.854,30,24.066,44.031A103.642,103.642,0,0,1,179.664,50.5a103.584,103.584,0,0,1,6.9-17.429c6.529-12.627,17.986-25.308,36.763-34.154,38.042-17.625,66.886-11.039,71.507-35.371,3.254-24.529-21.91-53.35-52.425-82.134Z" transform="translate(341.49 395.411)" fill="rgba(209,7,7,0)" stroke="#1d6ce5" stroke-width="0.519"/>
        <path id="path126" d="M127.647,4.188c9.863,0,17.855-88.289,17.855-108.774s-7.992-37.1-17.855-37.1-17.865,16.613-17.865,37.1S117.781,4.188,127.647,4.188Z" transform="translate(382.563 533.878)" fill="rgba(209,7,7,0)" stroke="#1d6ce5" stroke-width="0.519"/>
        <path id="path128" d="M142.07,2.81c9.743-1.541,3.833-89.993.627-110.23s-13.7-35.389-23.445-33.849-15.041,19.2-11.836,39.435S132.326,4.35,142.07,2.81Z" transform="translate(371.026 534.969)" fill="rgba(209,7,7,0)" stroke="#1d6ce5" stroke-width="0.519"/>
        <path id="path130" d="M157.09-1.257c9.383-3.05-10.294-89.483-16.624-108.971S121.4-143.04,112.021-139.99s-11.86,21.317-5.525,40.8S147.705,1.791,157.09-1.257Z" transform="translate(358.814 538.298)" fill="rgba(209,7,7,0)" stroke="#1d6ce5" stroke-width="0.519"/>
        <path id="path132" d="M172.022-7.892c8.791-4.481-24.161-86.774-33.462-105.03s-23.967-29.427-32.755-24.95-8.372,22.905.927,41.164,56.5,93.289,65.291,88.816Z" transform="translate(346.54 543.767)" fill="rgba(209,7,7,0)" stroke="#1d6ce5" stroke-width="0.519"/>
        <path id="path134" d="M186.2-16.919c7.983-5.8-37.435-81.926-49.479-98.5s-28.275-25.311-36.253-19.516S95.784-111,107.824-94.425s70.4,83.3,78.379,77.506Z" transform="translate(334.802 551.223)" fill="rgba(209,7,7,0)" stroke="#1d6ce5" stroke-width="0.519"/>
        <path id="path136" d="M199.078-28.054c6.976-6.972-49.791-75.06-64.275-89.549s-31.885-20.577-38.861-13.6-.888,24.373,13.6,38.859S192.1-21.075,199.078-28.054Z" transform="translate(324.096 560.424)" fill="rgba(209,7,7,0)" stroke="#1d6ce5" stroke-width="0.519"/>
        <path id="path138" d="M210.2-40.937c5.8-7.983-60.922-66.349-77.495-78.4S97.988-134.672,92.191-126.7s2.936,24.214,19.51,36.26S204.4-32.961,210.2-40.937Z" transform="translate(314.821 571.065)" fill="rgba(209,7,7,0)" stroke="#1d6ce5" stroke-width="0.519"/>
        <path id="path140" d="M219.191-55.139c4.481-8.788-70.547-56-88.8-65.305s-36.681-9.718-41.159-.934,6.688,23.457,24.939,32.76S214.716-46.348,219.191-55.139Z" transform="translate(307.285 582.755)" fill="rgba(209,7,7,0)" stroke="#1d6ce5" stroke-width="0.519"/>
        <path id="path142" d="M225.812-70.081c3.046-9.378-78.443-44.276-97.927-50.613s-37.749-3.86-40.8,5.523,10.273,22.115,29.759,28.45S222.759-60.7,225.812-70.081Z" transform="translate(301.725 594.99)" fill="rgba(209,7,7,0)" stroke="#1d6ce5" stroke-width="0.519"/>
        <path id="path144" d="M229.853-85.112c1.54-9.739-84.4-31.458-104.637-34.663S87.325-117.69,85.78-107.949,99.388-87.706,119.622-84.5,228.308-75.367,229.853-85.112Z" transform="translate(298.303 607.182)" fill="rgba(209,7,7,0)" stroke="#1d6ce5" stroke-width="0.519"/>
        <path id="path146" d="M231.2-99.538c0-9.865-88.282-17.874-108.766-17.876s-37.1,7.987-37.105,17.853S101.94-81.7,122.429-81.7,231.2-89.671,231.2-99.538Z" transform="translate(297.118 618.712)" fill="rgba(209,7,7,0)" stroke="#1d6ce5" stroke-width="0.519"/>
        <path id="path148" d="M229.828-109.913c-1.54-9.74-89.988-3.848-110.227-.646S84.213-96.861,85.751-87.12s19.2,15.045,39.435,11.843S231.371-100.167,229.828-109.913Z" transform="translate(298.203 626.197)" fill="rgba(209,7,7,0)" stroke="#1d6ce5" stroke-width="0.519"/>
        <path id="path150" d="M225.766-112.767c-3.048-9.38-89.488,10.279-108.97,16.6S83.981-77.1,87.029-67.718s21.313,11.857,40.8,5.532,100.98-41.2,97.939-50.58Z" transform="translate(301.531 626.243)" fill="rgba(209,7,7,0)" stroke="#1d6ce5" stroke-width="0.519"/>
        <path id="path152" d="M219.129-114.149C214.649-122.937,132.35-90,114.1-80.7S84.673-56.745,89.147-47.954s22.906,8.378,41.159-.918,93.3-56.486,88.823-65.277Z" transform="translate(307.001 624.965)" fill="rgba(209,7,7,0)" stroke="#1d6ce5" stroke-width="0.519"/>
        <path id="path154" d="M210.107-115.113c-5.8-7.98-81.926,37.419-98.5,49.461S86.286-37.384,92.083-29.408s23.934,4.7,40.511-7.341,83.312-70.382,77.514-78.363Z" transform="translate(314.45 623.488)" fill="rgba(209,7,7,0)" stroke="#1d6ce5" stroke-width="0.519"/>
        <path id="path156" d="M198.976-115.862C192-122.839,123.914-66.09,109.423-51.6S88.838-19.721,95.812-12.75s24.37.9,38.863-13.592S205.947-108.886,198.976-115.862Z" transform="translate(323.65 622.069)" fill="rgba(209,7,7,0)" stroke="#1d6ce5" stroke-width="0.519"/>
        <path id="path158" d="M186.087-116.455c-7.976-5.8-66.352,60.906-78.4,77.476S92.346-4.272,100.321,1.527s24.214-2.931,36.258-19.5,57.486-92.685,49.508-98.484Z" transform="translate(334.292 620.82)" fill="rgba(209,7,7,0)" stroke="#1d6ce5" stroke-width="0.519"/>
        <path id="path160" d="M171.892-116.909c-8.786-4.476-56.009,70.539-65.314,88.792s-9.727,36.674-.939,41.158,23.455-6.684,32.755-24.934S180.683-112.426,171.892-116.909Z" transform="translate(345.979 619.806)" fill="rgba(209,7,7,0)" stroke="#1d6ce5" stroke-width="0.519"/>
        <path id="path162" d="M156.958-117.228c-9.383-3.048-44.292,78.431-50.629,97.913s-3.87,37.746,5.511,40.8S133.959,11.211,140.3-8.271s26.037-105.9,16.661-108.957Z" transform="translate(358.214 619.072)" fill="rgba(209,7,7,0)" stroke="#1d6ce5" stroke-width="0.519"/>
        <path id="path164" d="M141.925-117.414c-9.741-1.545-31.473,84.392-34.682,104.623s2.083,37.889,11.822,39.434,20.241-13.6,23.45-33.837,9.154-108.674-.59-110.22Z" transform="translate(370.405 618.641)" fill="rgba(209,7,7,0)" stroke="#1d6ce5" stroke-width="0.519"/>
        <path id="path166" d="M127.5-117.467c-9.863,0-17.888,88.275-17.894,108.762s7.985,37.093,17.848,37.1,17.862-16.6,17.871-37.089S137.36-117.467,127.5-117.467Z" transform="translate(381.935 618.527)" fill="rgba(209,7,7,0)" stroke="#1d6ce5" stroke-width="0.519"/>
        <path id="path168" d="M117.112-117.387c-9.741,1.538-3.861,89.986-.66,110.217s13.686,35.4,23.431,33.853S154.931,7.492,151.73-12.742,126.857-118.928,117.112-117.387Z" transform="translate(389.429 618.735)" fill="rgba(209,7,7,0)" stroke="#1d6ce5" stroke-width="0.519"/>
        <path id="path170" d="M114.257-117.175c-9.383,3.046,10.261,89.481,16.581,108.967S149.9,24.608,159.279,21.56,171.136.253,164.815-19.234,123.637-120.219,114.257-117.175Z" transform="translate(389.479 619.257)" fill="rgba(209,7,7,0)" stroke="#1d6ce5" stroke-width="0.519"/>
        <path id="path172" d="M112.873-116.831C104.082-112.356,137.006-30.057,146.3-11.8s23.958,29.434,32.744,24.955,8.385-22.9-.913-41.158-56.465-93.3-65.255-88.827Z" transform="translate(388.202 620.079)" fill="rgba(209,7,7,0)" stroke="#1d6ce5" stroke-width="0.519"/>
        <path id="path174" d="M111.907-116.354c-7.981,5.789,37.409,81.926,49.444,98.505S189.615,7.469,197.595,1.68s4.7-23.932-7.339-40.516S119.89-122.152,111.907-116.354Z" transform="translate(386.721 621.175)" fill="rgba(209,7,7,0)" stroke="#1d6ce5" stroke-width="0.519"/>
        <path id="path176" d="M111.158-115.743c-6.976,6.972,49.763,75.07,64.247,89.563S207.28-5.591,214.253-12.565s.9-24.37-13.584-38.86S118.134-122.712,111.158-115.743Z" transform="translate(385.303 622.491)" fill="rgba(209,7,7,0)" stroke="#1d6ce5" stroke-width="0.519"/>
        <path id="path178" d="M110.566-114.977c-5.8,7.976,60.892,66.363,77.462,78.41s34.7,15.348,40.505,7.372-2.931-24.213-19.5-36.258-92.669-57.5-98.47-49.524Z" transform="translate(384.057 623.972)" fill="rgba(209,7,7,0)" stroke="#1d6ce5" stroke-width="0.519"/>
        <path id="path180" d="M110.113-114c-4.483,8.783,70.52,56.016,88.769,65.326s36.678,9.731,41.155.948-6.676-23.457-24.922-32.763-100.526-42.3-105-33.512Z" transform="translate(383.046 625.502)" fill="rgba(209,7,7,0)" stroke="#1d6ce5" stroke-width="0.519"/>
        <path id="path182" d="M109.793-112.607c-3.05,9.375,78.417,44.3,97.9,50.636s37.748,3.877,40.8-5.5-10.266-22.123-29.743-28.462S112.843-121.99,109.793-112.607Z" transform="translate(382.309 626.816)" fill="rgba(209,7,7,0)" stroke="#1d6ce5" stroke-width="0.519"/>
        <path id="path184" d="M109.607-109.762c-1.552,9.741,84.38,31.487,104.608,34.7s37.888-2.078,39.44-11.817-13.6-20.241-33.83-23.46-108.672-9.165-110.217.573Z" transform="translate(381.877 626.806)" fill="rgba(209,7,7,0)" stroke="#1d6ce5" stroke-width="0.519"/>
        <path id="path186" d="M109.553-99.423c-.007,9.86,88.266,17.9,108.75,17.911s37.1-7.978,37.1-17.841-16.6-17.869-37.085-17.873S109.553-109.288,109.553-99.423Z" transform="translate(381.762 619.368)" fill="rgba(209,7,7,0)" stroke="#1d6ce5" stroke-width="0.519"/>
        <path id="path188" d="M109.632-85c1.538,9.746,89.982,3.875,110.214.679S255.241-98,253.7-107.745s-19.19-15.05-39.423-11.852S108.1-94.743,109.632-85Z" transform="translate(381.968 607.832)" fill="rgba(209,7,7,0)" stroke="#1d6ce5" stroke-width="0.519"/>
        <path id="path190" d="M109.845-69.978c3.044,9.378,89.476-10.252,108.962-16.575s32.818-19.044,29.773-28.427-21.305-11.867-40.794-5.544S106.8-79.361,109.845-69.978Z" transform="translate(382.493 595.623)" fill="rgba(209,7,7,0)" stroke="#1d6ce5" stroke-width="0.519"/>
        <path id="path192" d="M110.19-55.056c4.467,8.8,86.772-24.117,105.03-33.409s29.432-23.941,24.955-32.732-22.9-8.383-41.158.906-93.3,56.444-88.827,65.234Z" transform="translate(383.316 583.353)" fill="rgba(209,7,7,0)" stroke="#1d6ce5" stroke-width="0.519"/>
        <path id="path194" d="M110.665-40.868c5.794,7.981,81.933-37.39,98.515-49.423s25.322-28.256,19.533-36.242-23.932-4.7-40.513,7.334S104.87-48.845,110.665-40.868Z" transform="translate(384.405 571.611)" fill="rgba(209,7,7,0)" stroke="#1d6ce5" stroke-width="0.519"/>
        <path id="path196" d="M111.277-27.991c6.972,6.976,75.074-49.747,89.567-64.224s20.592-31.873,13.622-38.849-24.37-.9-38.863,13.578S104.307-34.968,111.277-27.991Z" transform="translate(385.724 560.905)" fill="rgba(209,7,7,0)" stroke="#1d6ce5" stroke-width="0.519"/>
        <path id="path198" d="M112.043-16.873c7.978,5.805,66.368-60.876,78.414-77.441s15.357-34.7,7.382-40.5-24.209,2.925-36.262,19.492-57.509,92.652-49.533,98.451Z" transform="translate(387.205 551.625)" fill="rgba(209,7,7,0)" stroke="#1d6ce5" stroke-width="0.519"/>
        <path id="path200" d="M113.019-7.867c8.788,4.483,56.028-70.514,65.338-88.757s9.739-36.671.955-41.153-23.457,6.676-32.765,24.918S104.238-12.35,113.019-7.867Z" transform="translate(388.734 544.086)" fill="rgba(209,7,7,0)" stroke="#1d6ce5" stroke-width="0.519"/>
        <path id="path202" d="M114.408-1.247c9.378,3.055,44.311-78.4,50.653-97.88s3.881-37.746-5.5-40.8-22.123,10.26-28.464,29.737S105.033-4.3,114.408-1.247Z" transform="translate(390.049 538.52)" fill="rgba(209,7,7,0)" stroke="#1d6ce5" stroke-width="0.519"/>
        <path id="path204" d="M117.256,2.8c9.739,1.55,31.5-84.372,34.71-104.6s-2.072-37.887-11.81-39.433-20.24,13.592-23.459,33.824S107.513,1.252,117.256,2.8Z" transform="translate(390.043 535.093)" fill="rgba(209,7,7,0)" stroke="#1d6ce5" stroke-width="0.519"/>
      </g>
    </g>
  </g>
</svg>
