<svg id="home" xmlns="http://www.w3.org/2000/svg" width="54.47" height="54.47" viewBox="0 0 54.47 54.47">
  <g id="Group_264" data-name="Group 264" transform="translate(46.598 37.661)">
    <g id="Group_263" data-name="Group 263">
      <path id="Path_1167" data-name="Path 1167" d="M439.816,354.312a1.063,1.063,0,1,0,.312.752A1.071,1.071,0,0,0,439.816,354.312Z" transform="translate(-438 -354)"/>
    </g>
  </g>
  <g id="Group_266" data-name="Group 266">
    <g id="Group_265" data-name="Group 265" transform="translate(0 0)">
      <path id="Path_1168" data-name="Path 1168" d="M53.406,52.343H48.725V42.449a1.064,1.064,0,0,0-2.128,0v9.894H12.979v-10a1.064,1.064,0,0,0-2.128,0v10H7.873V24.364L27.235,9.247,46.6,24.364V34.47a1.064,1.064,0,1,0,2.128,0V26.025l.186.145a1.064,1.064,0,0,0,1.407-.086l3.837-3.837a1.064,1.064,0,0,0-.1-1.591l-6.4-4.994V5A1.064,1.064,0,0,0,46.6,3.937H40.432A1.064,1.064,0,0,0,39.368,5V9.187L27.89.226a1.064,1.064,0,0,0-1.309,0L.412,20.655a1.064,1.064,0,0,0-.1,1.591l3.837,3.837a1.064,1.064,0,0,0,1.407.086l.186-.145V52.343H1.064a1.064,1.064,0,0,0,0,2.128H53.406a1.064,1.064,0,1,0,0-2.128ZM41.5,6.065h4.038V14L41.5,10.848ZM4.991,23.914,2.67,21.592,27.235,2.414,51.8,21.592l-2.321,2.321L27.89,7.059a1.064,1.064,0,0,0-1.309,0Z" transform="translate(0 -0.001)"/>
    </g>
  </g>
  <g id="Group_268" data-name="Group 268" transform="translate(15.958 23.192)">
    <g id="Group_267" data-name="Group 267">
      <path id="Path_1169" data-name="Path 1169" d="M171.49,218H151.064A1.064,1.064,0,0,0,150,219.064V239.49a1.064,1.064,0,0,0,1.064,1.064H171.49a1.064,1.064,0,0,0,1.064-1.064V219.064A1.064,1.064,0,0,0,171.49,218Zm-11.277,20.426h-8.085v-8.085h8.085Zm0-10.213h-8.085v-8.085h8.085Zm10.213,10.213h-8.085v-8.085h8.085Zm0-10.213h-8.085v-8.085h8.085Z" transform="translate(-150 -218)"/>
    </g>
  </g>
  <g id="Group_270" data-name="Group 270" transform="translate(10.852 37.077)">
    <g id="Group_269" data-name="Group 269">
      <path id="Path_1170" data-name="Path 1170" d="M103.064,348.506A1.064,1.064,0,0,0,102,349.57v.017a1.064,1.064,0,1,0,2.128,0v-.017A1.064,1.064,0,0,0,103.064,348.506Z" transform="translate(-102 -348.506)"/>
    </g>
  </g>
</svg>
