<svg xmlns="http://www.w3.org/2000/svg" width="54.088" height="39.267" viewBox="0 0 54.088 39.267">
  <g id="icon-graduation-cap" transform="translate(0 0)">
    <path id="Path_1231" data-name="Path 1231" d="M52.141,16.42l-22.76-9.63a5.7,5.7,0,0,0-4.419,0L2.2,16.42a3.4,3.4,0,0,0,0,6.261l7.976,3.373V36.9A5.611,5.611,0,0,0,12.9,41.743a28.284,28.284,0,0,0,28.551,0A5.611,5.611,0,0,0,44.17,36.9V26.054l3.4-1.439v5.373a2.819,2.819,0,0,0-.55,4.858,2.822,2.822,0,0,0-1.15,2.266v2.832A1.133,1.133,0,0,0,47,41.077h3.4a1.133,1.133,0,0,0,1.133-1.133V37.112a2.822,2.822,0,0,0-1.15-2.266,2.819,2.819,0,0,0-.55-4.858V23.656l2.307-.976a3.4,3.4,0,0,0,0-6.261ZM49.268,32.58a.566.566,0,1,1-.566-.566A.566.566,0,0,1,49.268,32.58Zm0,6.231H48.135v-1.7a.566.566,0,0,1,1.133,0ZM41.9,36.9a3.339,3.339,0,0,1-1.6,2.89,26.022,26.022,0,0,1-26.251,0,3.339,3.339,0,0,1-1.6-2.89V27.012l12.522,5.3a5.692,5.692,0,0,0,4.419,0l12.517-5.3Zm9.355-16.306L28.5,30.224a3.421,3.421,0,0,1-2.649,0l-22.76-9.63a1.133,1.133,0,0,1,0-2.087l22.76-9.63a3.414,3.414,0,0,1,2.649,0l22.76,9.63a1.133,1.133,0,0,1,0,2.087Z" transform="translate(-0.129 -6.344)"/>
  </g>
</svg>
