<svg xmlns="http://www.w3.org/2000/svg" width="41.512" height="49.891" viewBox="0 0 41.512 49.891">
  <g id="icon-staff" transform="translate(0 0)">
    <path id="Path_1227" data-name="Path 1227" d="M33.337,29.94a12.47,12.47,0,1,0-12.47-12.47,12.47,12.47,0,0,0,12.47,12.47Zm0-22.169a9.7,9.7,0,1,1-9.7,9.7,9.7,9.7,0,0,1,9.7-9.7ZM13.939,54.88a1.386,1.386,0,0,0,1.386-1.386V47.952a17.962,17.962,0,0,1,8.219-15.108L32.1,49.959a1.391,1.391,0,0,0,2.483,0l8.552-17.12a17.5,17.5,0,0,1,2.954,2.378A17.89,17.89,0,0,1,51.36,47.964v5.542a1.386,1.386,0,1,0,2.771,0V47.964A20.745,20.745,0,0,0,43.224,29.674l-.111-.039a1.3,1.3,0,0,0-.133-.05.554.554,0,0,0-.133-.028h-.4l-.133.028h-.122a1.208,1.208,0,0,0-.127.05l-.122.055-.111.072-.111.078-.094.094a.8.8,0,0,0-.094.1.848.848,0,0,0-.078.116.626.626,0,0,0-.067.1l-3.27,6.435L37.477,32.5a1.38,1.38,0,0,0-1.369-1.175H30.566A1.38,1.38,0,0,0,29.2,32.5l-.637,4.184-3.2-6.418h0a.654.654,0,0,0-.072-.1.759.759,0,0,0-.072-.111l-.122-.116-.067-.116a.626.626,0,0,0-.116-.083.676.676,0,0,0-.105-.067l-.127-.061c-.039,0-.072-.033-.116-.044a1.164,1.164,0,0,0-.133-.033h-.538l-.122.028a1.481,1.481,0,0,0-.144.05l-.1.039a20.767,20.767,0,0,0-10.9,18.289v5.542a1.386,1.386,0,0,0,1.319,1.4ZM30.71,40.98,31.757,34.1h3.159l1.047,6.883-2.627,5.26ZM46.5,43.8a1.386,1.386,0,1,1,0,2.771H42.343a1.386,1.386,0,0,1,0-2.771Z" transform="translate(-12.62 -5)"/>
  </g>
</svg>
