<svg xmlns="http://www.w3.org/2000/svg" width="48.088" height="60.014" viewBox="0 0 48.088 60.014">
  <g id="icon-parent" transform="translate(0)">
    <path id="Path_1228" data-name="Path 1228" d="M287.483,217.273l-.008-.008-4.566-3.95a4.641,4.641,0,0,1-.988-1.215,32.352,32.352,0,0,0-8.019-9.459l-.006,0-.006,0a5.6,5.6,0,0,0-8.326,1.665,17.757,17.757,0,0,0-7.187,2.6,3.519,3.519,0,0,0,1.863,6.513,3.491,3.491,0,0,0,1.7-.441c.034-.018.067-.036.1-.057a6.335,6.335,0,0,1,5.764-.651A18.347,18.347,0,0,1,255.3,223.3a8.7,8.7,0,0,0-5.03,13.27,22.583,22.583,0,0,1,3.852,12.082,2.8,2.8,0,0,0,2.781,2.716h8.949a2.783,2.783,0,0,0,2.777-2.977c-.059-.836-.127-1.734-.23-2.638a37.081,37.081,0,0,0-5.673-16.479,28.3,28.3,0,0,0,10-9.456,13.662,13.662,0,0,1,.075,5.643.015.015,0,0,0,0,.006v0a2.806,2.806,0,0,0,.722,2.407,4.078,4.078,0,0,0,2.969,1.329c.067,0,.135,0,.2-.006a3.707,3.707,0,0,0,3.49-3.818v-.034l-.281-4.821,2.579,2.407.019.017a3.78,3.78,0,1,0,4.989-5.677Zm-27.026,10.3-.01,0a1.462,1.462,0,0,0-.739.929,1.481,1.481,0,0,0,.208,1.178A34.535,34.535,0,0,1,265.837,246v.014a.1.1,0,0,0,0,.014c.1.855.161,1.723.22,2.532a.213.213,0,0,1-.213.229H256.9a.213.213,0,0,1-.214-.209,25.153,25.153,0,0,0-4.285-13.454,6.133,6.133,0,0,1,3.549-9.349,20.976,20.976,0,0,0,14.671-13.749h0v0a1.364,1.364,0,1,1,2.586.848A25.544,25.544,0,0,1,260.457,227.569Zm25.742-7.2a1.212,1.212,0,0,1-2,.676l-4.605-4.3a1.45,1.45,0,0,0-2.431,1.15l.441,7.578a1.133,1.133,0,0,1-1.072,1.168,1.5,1.5,0,0,1-1.1-.458.39.39,0,0,1-.121-.241,16.129,16.129,0,0,0-.892-9.222,28.184,28.184,0,0,0,1.213-3.033,3.926,3.926,0,0,0-6.741-3.759,8.856,8.856,0,0,0-8.193.786.957.957,0,0,1-1.3-.336.972.972,0,0,1,.343-1.315,15.1,15.1,0,0,1,6.67-2.277c.044,0,.087-.01.129-.018a1.444,1.444,0,0,0,1.078-.865,3.037,3.037,0,0,1,4.683-1.247,29.806,29.806,0,0,1,7.371,8.706,7.207,7.207,0,0,0,1.533,1.885l4.57,3.954h0A1.213,1.213,0,0,1,286.2,220.365Z" transform="translate(-240.768 -191.351)"/>
    <path id="Path_1229" data-name="Path 1229" d="M160.911,332.131a6.031,6.031,0,1,0-6.03,6.03A6.031,6.031,0,0,0,160.911,332.131Zm-6.031,3.462a3.463,3.463,0,1,1,3.463-3.462A3.463,3.463,0,0,1,154.881,335.593Z" transform="translate(-148.85 -306.003)"/>
    <path id="Path_1230" data-name="Path 1230" d="M382.549,85.959a5.149,5.149,0,1,0-5.149-5.149A5.149,5.149,0,0,0,382.549,85.959Zm0-7.731a2.582,2.582,0,1,1-2.582,2.582,2.582,2.582,0,0,1,2.582-2.582Z" transform="translate(-359.06 -75.66)"/>
  </g>
</svg>
