<svg xmlns="http://www.w3.org/2000/svg" width="55.681" height="55.681" viewBox="0 0 55.681 55.681">
  <g id="mail-box" transform="translate(0)">
    <path id="Path_1173" data-name="Path 1173" d="M44.153,13.92H39.627V10.875H54.593a1.088,1.088,0,0,0,.771-1.855L51.8,5.438l3.568-3.582A1.088,1.088,0,0,0,54.593,0H38.539a1.087,1.087,0,0,0-1.088,1.088V13.92H17.7c-.02,0-.04,0-.06,0l-.239,0A11.541,11.541,0,0,0,5.881,25.013H2.175A2.178,2.178,0,0,0,0,27.188V40.673a2.178,2.178,0,0,0,2.175,2.175H29.58V54.593a1.087,1.087,0,0,0,1.088,1.088h6.09a1.087,1.087,0,0,0,1.088-1.088V42.848H54.593a1.087,1.087,0,0,0,1.088-1.088V25.448A11.541,11.541,0,0,0,44.153,13.92ZM49.49,4.67a1.088,1.088,0,0,0,0,1.535L51.975,8.7H39.627V2.175H51.975ZM22.4,28.746v10.39l-5.2-5.2Zm-7.556,4.48a3.621,3.621,0,0,1-5.116,0L3.693,27.188H20.885ZM2.175,28.746l5.195,5.195L2.175,39.135ZM3.713,40.673l5.258-5.258a5.8,5.8,0,0,0,6.636,0l5.258,5.258ZM35.67,53.506H31.755V42.848H35.67ZM53.505,40.673H28.928V35.881a1.088,1.088,0,0,0-2.175,0v4.792H24.578V27.188A2.178,2.178,0,0,0,22.4,25.013H8.058a9.352,9.352,0,0,1,18.694.435v.646a1.088,1.088,0,0,0,2.175,0v-.646a11.52,11.52,0,0,0-4.8-9.353H37.452v5.764a1.088,1.088,0,0,0,2.175,0V16.1h4.526a9.363,9.363,0,0,1,9.353,9.353Zm0,0" transform="translate(0 0)"/>
    <path id="Path_1174" data-name="Path 1174" d="M247.146,274.941a1.088,1.088,0,1,0,.769.319A1.09,1.09,0,0,0,247.146,274.941Zm0,0" transform="translate(-219.3 -245.041)"/>
  </g>
</svg>
