<svg id="e7fADhxyjqe1" xmlns="http://www.w3.org/2000/svg" xmlns:xlink="http://www.w3.org/1999/xlink" viewBox="0 0 192.296980 201.716870" shape-rendering="geometricPrecision" text-rendering="geometricPrecision"><style><![CDATA[#e7fADhxyjqe32 {animation: e7fADhxyjqe32_c_o 3300ms linear infinite normal forwards}@keyframes e7fADhxyjqe32_c_o { 0% {opacity: 0} 90.909091% {opacity: 0} 93.939394% {opacity: 1} 96.969697% {opacity: 0} 100% {opacity: 1}} #e7fADhxyjqe33 {animation: e7fADhxyjqe33_c_o 3300ms linear infinite normal forwards}@keyframes e7fADhxyjqe33_c_o { 0% {opacity: 0} 90.909091% {opacity: 0} 93.939394% {opacity: 1} 96.969697% {opacity: 0} 100% {opacity: 1}}]]></style><g id="e7fADhxyjqe2" transform="matrix(1 0 0 1 -12.62570000000000 -44.74090000000000)"><g id="e7fADhxyjqe3" transform="matrix(0.04866200000000 0 0 -0.04866200000000 -43.77830000000000 297.86099999999999)"><path id="e7fADhxyjqe4" d="M1882.231000,3064.589900C1882.231000,3064.589900,2126.905600,2264.543000,2857.045500,2656.799000C2857.045500,2656.799000,3090.068900,2392.705900,3128.906100,2276.194200C3128.906100,2276.194200,3309.963500,2562.117300,3410.125600,2621.497700C3410.125600,2621.497700,4107.604300,2268.426700,4379.464900,3087.892300C4415.931000,2948.686300,4602.698900,2020.284800,3130,1183.246500C3130,1183.246500,1594.835500,2015.984700,1882.231000,3064.589900Z" fill="rgb(99,159,241)" stroke="rgb(255,255,255)" stroke-width="5.437210"/><circle id="e7fADhxyjqe5" r="590.434000" transform="matrix(-1 0 0 1 3733.73000000000002 3133.21000000000004)" fill="rgb(255,255,255)" stroke="none" stroke-width="73.979800"/><circle id="e7fADhxyjqe6" r="590.434000" transform="matrix(-1 0 0 1 2506.17999999999984 3146.94000000000005)" fill="rgb(255,255,255)" stroke="none" stroke-width="73.980000"/><path id="e7fADhxyjqe7" d="M2166,4753C1511,4489,1211,4363,1221,4357C1229,4352,1381,4286,1560,4210L1885,4072L1892,4143C1896,4181,1902,4215,1904,4218C1907,4220,1931,4205,1957,4183C1983,4161,2023,4133,2045,4120L2086,4097L2190,4138C2481,4251,2780,4304,3130,4304C3480,4304,3779,4251,4070,4138L4174,4097L4215,4120C4237,4133,4277,4161,4303,4183C4329,4205,4353,4220,4356,4218C4358,4215,4364,4181,4368,4143L4375,4072L4593,4165C4712,4216,4810,4255,4811,4251C4811,4248,4811,4155,4810,4045C4809,3882,4806,3844,4794,3837C4775,3826,4776,3791,4795,3784C4817,3775,4813,3742,4790,3735C4760,3725,4740,3678,4740,3615L4740,3560L4841,3560L4942,3560L4938,3627C4934,3690,4932,3695,4894,3728L4855,3762L4878,3777C4905,3796,4906,3816,4880,3832C4861,3844,4860,3856,4860,4061L4860,4277L4918,4303C4949,4317,4993,4335,5014,4344C5036,4353,5051,4362,5049,4365C5042,4371,3136,5140,3129,5140C3127,5140,2693,4965,2166,4753Z" fill="rgb(7,31,62)" stroke="none" stroke-width="1"/><path id="e7fADhxyjqe8" d="M2955,4234C2767,4215,2699,4206,2590,4184C2427,4150,2178,4070,2207,4059C2218,4055,2316,4038,2426,4021C2650,3986,2761,3956,2870,3899C2954,3856,3062,3770,3100,3716C3114,3696,3127,3681,3130,3681C3133,3681,3146,3696,3160,3716C3202,3775,3310,3859,3405,3906C3516,3961,3635,3992,3855,4024C4101,4060,4101,4059,3946,4109C3686,4194,3470,4229,3180,4235C3078,4237,2977,4236,2955,4234Z" fill="rgb(7,31,62)" stroke="none" stroke-width="1"/><path id="e7fADhxyjqe9" d="M2447.153900,1673.318800C2447.153900,1673.318800,2781.581800,1382.818900,3130,1183.246500C3130,1183.246500,3671.938000,1487.461600,3853.373000,1734.832400C3853.373000,1734.832400,3617.458500,2494.559000,3122.703500,2523.549000C3122.703500,2523.549000,2624.281800,2519.281200,2447.153900,1673.318800Z" fill="rgb(255,255,255)" stroke="none" stroke-width="5.437210"/><path id="e7fADhxyjqe10" d="M2383.231300,1763.542800C2383.231300,1763.542800,2445.370800,2070.356900,2612.370900,2264.543000C2612.370900,2264.543000,2390.998700,2163.566200,2317.208000,1957.728900C2317.208000,1957.728900,2309.440500,2268.426700,2608.487200,2392.705900C2608.487200,2392.705900,2371.580100,2396.589600,2173.510200,2163.566200C2173.510200,2163.566200,2185.161400,2334.450000,2305.556800,2416.008200C2305.556800,2416.008200,2088.068300,2377.171000,2002.626400,2225.705800C2002.626400,2225.705800,2177.394000,1880.054500,2383.231300,1763.542800Z" fill="rgb(70,131,213)" stroke="none" stroke-width="5.437210"/><path id="e7fADhxyjqe11" d="M3107.346400,2381.024500C3050.850700,2460.280700,2994.185300,2533.288500,2958.595500,2572.675400C2925.303000,2609.520000,2919.968700,2617.420300,2924.320700,2623.438300C2927.155500,2627.358200,2947.762300,2650.921500,2970.113600,2675.801200C3020.906100,2732.339300,3053.115700,2780.521700,3095.730700,2863.711900L3129.095100,2928.843800L3137.358600,2915.255500C3141.903600,2907.781900,3155.409400,2882.163800,3167.371600,2858.326300C3207.970400,2777.423800,3244.252600,2724.601100,3304.457500,2658.745300C3322.613900,2638.884600,3337.469100,2620.750200,3337.469100,2618.446600C3337.469100,2616.143000,3313.379300,2586.247800,3283.936300,2552.012800C3222.019700,2480.019200,3200.776600,2452.684400,3163.751100,2397.363100C3149.011600,2375.340300,3134.967000,2356.094800,3132.540700,2354.595300C3130.114300,2353.095800,3118.776900,2364.988900,3107.346400,2381.024500Z" fill="rgb(244,164,3)" stroke="none" stroke-width="54.677100"/><path id="e7fADhxyjqe12" d="M3888.173000,1766.650100C3888.173000,1766.650100,3826.033500,2073.464200,3659.033400,2267.650300C3659.033400,2267.650300,3880.405600,2166.673500,3954.196300,1960.836200C3954.196300,1960.836200,3961.963800,2271.534000,3662.917100,2395.813200C3662.917100,2395.813200,3899.824200,2399.696900,4097.894100,2166.673500C4097.894100,2166.673500,4086.242900,2337.557300,3965.847500,2419.115500C3965.847500,2419.115500,4183.336000,2380.278300,4268.777900,2228.813100C4268.777900,2228.813100,4094.010300,1883.161800,3888.173000,1766.650100Z" fill="rgb(70,131,213)" stroke="none" stroke-width="5.437210"/><path id="e7fADhxyjqe13" d="M1947,4078C1959,4014,1991,3943,2026,3902C2068,3852,2064,3851,1944,3880C1841,3904,1760,3940,1693,3991L1640,4031L1646,3988C1669,3842,1759,3725,1909,3646C1948,3626,1980,3608,1980,3606C1980,3605,1960,3563,1936,3514C1755,3152,1746,2708,1909,2314C1991,2116,2108,1945,2290,1757C2504,1535,2734,1356,3043,1171L3130,1118L3218,1171C3506,1344,3717,1507,3930,1720C4147,1937,4261,2099,4351,2314C4515,2709,4505,3152,4324,3514C4300,3563,4280,3605,4280,3606C4280,3608,4312,3626,4351,3646C4501,3725,4591,3842,4614,3988L4620,4031L4568,3992C4492,3935,4440,3911,4332,3884C4195,3849,4192,3850,4239,3910C4275,3955,4298,4008,4314,4083C4318,4098,4317,4110,4314,4110C4310,4110,4284,4096,4256,4079C4174,4028,4079,4001,3850,3965C3608,3927,3528,3905,3420,3849C3309,3792,3206,3699,3153,3610C3144,3594,3133,3580,3130,3580C3127,3580,3117,3593,3107,3609C3026,3746,2862,3861,2674,3914C2625,3928,2506,3951,2410,3965C2168,4001,2075,4028,1985,4089C1945,4117,1939,4115,1947,4078ZM2625,3705C2796,3669,2940,3558,3017,3403C3205,3027,2936,2590,2517,2590C2351,2590,2228,2640,2115,2754C2006,2865,1950,2996,1950,3147C1950,3310,2003,3435,2119,3550C2262,3691,2437,3744,2625,3705ZM3857,3704C4073,3660,4241,3497,4296,3280C4320,3186,4311,3047,4276,2956C4224,2820,4123,2709,3995,2646C3900,2599,3833,2587,3714,2592C3594,2598,3523,2621,3427,2686C3235,2818,3142,3054,3195,3279C3245,3490,3418,3659,3630,3704C3717,3723,3766,3723,3857,3704ZM1986,2763C2069,2646,2207,2554,2355,2515C2434,2494,2597,2494,2675,2515C2708,2524,2759,2542,2787,2555L2840,2579L2911,2502C2982,2424,3073,2297,3106,2228C3116,2207,3126,2190,3129,2190C3132,2190,3152,2221,3172,2259C3220,2346,3281,2429,3359,2512L3421,2578L3473,2555C3560,2515,3638,2499,3745,2499C3859,2499,3933,2515,4035,2564C4164,2625,4281,2744,4345,2881L4371,2935L4365,2830C4358,2703,4329,2556,4289,2436C4253,2333,4167,2164,4151,2167C4145,2169,4143,2163,4147,2153C4152,2141,4150,2139,4140,2145C4131,2150,4129,2149,4134,2142C4150,2115,3907,1819,3756,1681C3647,1582,3420,1413,3262,1313L3131,1230L3048,1282C2762,1458,2514,1655,2356,1830C2279,1914,2150,2077,2142,2100C2139,2108,2134,2117,2130,2120C2117,2130,2051,2248,2020,2314C1948,2472,1906,2645,1895,2830L1888,2935L1915,2881C1929,2851,1961,2798,1986,2763ZM3172,2822C3193,2778,3233,2718,3265,2683L3321,2621L3258,2548C3223,2508,3181,2454,3165,2428C3148,2401,3133,2380,3130,2380C3127,2380,3106,2409,3083,2443C3060,2477,3018,2531,2990,2563L2938,2620L2995,2683C3028,2719,3067,2777,3088,2822C3109,2865,3127,2899,3130,2899C3133,2899,3152,2864,3172,2822Z" fill="rgb(7,31,62)" stroke="none" stroke-width="1"/><circle id="e7fADhxyjqe14" r="306.380000" transform="matrix(1 0 0 -1 2563.95999999999958 3083.55000000000064)" fill="rgb(64,199,195)" stroke="none" stroke-width="77.116100"/><circle id="e7fADhxyjqe15" r="306.380000" transform="matrix(1 0 0 -1 3695.33999999999969 3083.67000000000053)" fill="rgb(64,199,195)" stroke="none" stroke-width="77.116000"/><circle id="e7fADhxyjqe16" r="174.562000" transform="matrix(1 0 0 -1 2563.95999999999958 3083.55000000000064)" fill="rgb(26,55,69)" stroke="none" stroke-width="43.937500"/><circle id="e7fADhxyjqe17" r="174.562000" transform="matrix(1 0 0 -1 3695.33999999999969 3083.67000000000053)" fill="rgb(26,55,69)" stroke="none" stroke-width="43.937500"/><circle id="e7fADhxyjqe18" r="126.326000" transform="matrix(1 0 0 -1 2421.26999999999953 3259.42000000000053)" fill="rgb(255,255,255)" stroke="none" stroke-width="68.130400"/><circle id="e7fADhxyjqe19" r="126.326000" transform="matrix(1 0 0 -1 3861.37999999999965 3258.78000000000065)" fill="rgb(255,255,255)" stroke="none" stroke-width="68.130400"/><path id="e7fADhxyjqe20" d="M2950.212900,2177.534900C2939.493569,2125.439720,2893.633475,2088.054715,2840.446900,2088.054000C2787.260954,2088.054396,2741.400996,2125.438261,2730.680700,2177.532600C2730.515145,2175.077113,2730.432031,2172.616762,2730.431500,2170.155700C2730.431349,2140.977774,2742.022182,2112.994859,2762.654110,2092.362968C2783.286038,2071.731078,2811.268974,2060.140296,2840.446900,2060.140500C2869.624792,2060.140349,2897.607676,2071.731154,2918.239561,2092.363039C2938.871446,2112.994924,2950.462251,2140.977808,2950.462100,2170.155700C2950.461620,2172.617529,2950.378507,2175.078648,2950.212900,2177.534900Z" fill="rgb(209,212,216)" stroke="none" stroke-width="14.402500"/><path id="e7fADhxyjqe21" d="M3244.886300,2178.250700C3234.166969,2126.155520,3188.306875,2088.770515,3135.120300,2088.769800C3081.934316,2088.770148,3036.074303,2126.154024,3025.354000,2178.248400C3025.188445,2175.792913,3025.105331,2173.332562,3025.104800,2170.871500C3025.104649,2141.693557,3036.695495,2113.710627,3057.327445,2093.078733C3077.959395,2072.446839,3105.942357,2060.856069,3135.120300,2060.856300C3164.298192,2060.856149,3192.281076,2072.446954,3212.912961,2093.078839C3233.544846,2113.710724,3245.135651,2141.693608,3245.135500,2170.871500C3245.135020,2173.333329,3245.051907,2175.794448,3244.886300,2178.250700Z" fill="rgb(209,212,216)" stroke="none" stroke-width="14.402500"/><path id="e7fADhxyjqe22" d="M3549.370000,2178.250700C3538.650669,2126.155520,3492.790575,2088.770515,3439.604000,2088.769800C3386.418054,2088.770196,3340.558096,2126.154061,3329.837800,2178.248400C3329.672245,2175.792913,3329.589131,2173.332562,3329.588600,2170.871500C3329.588449,2141.693574,3341.179282,2113.710659,3361.811210,2093.078768C3382.443138,2072.446878,3410.426074,2060.856096,3439.604000,2060.856300C3468.781892,2060.856149,3496.764776,2072.446954,3517.396661,2093.078839C3538.028546,2113.710724,3549.619351,2141.693608,3549.619200,2170.871500C3549.618720,2173.333329,3549.535607,2175.794448,3549.370000,2178.250700Z" fill="rgb(209,212,216)" stroke="none" stroke-width="14.402500"/><path id="e7fADhxyjqe23" d="M3094.974700,1956.878400C3084.255369,1904.783220,3038.395275,1867.398215,2985.208700,1867.397500C2932.022754,1867.397896,2886.162796,1904.781761,2875.442500,1956.876100C2875.276945,1954.420613,2875.193831,1951.960262,2875.193300,1949.499200C2875.193149,1920.321274,2886.783982,1892.338359,2907.415910,1871.706468C2928.047838,1851.074578,2956.030774,1839.483796,2985.208700,1839.484000C3014.386592,1839.483849,3042.369476,1851.074654,3063.001361,1871.706539C3083.633246,1892.338424,3095.224051,1920.321308,3095.223900,1949.499200C3095.223420,1951.961029,3095.140307,1954.422148,3094.974700,1956.878400Z" fill="rgb(209,212,216)" stroke="none" stroke-width="14.402500"/><path id="e7fADhxyjqe24" d="M2800.588600,1958.431900C2789.869269,1906.336720,2744.009175,1868.951715,2690.822600,1868.951000C2637.636654,1868.951396,2591.776696,1906.335261,2581.056400,1958.429600C2580.890845,1955.974113,2580.807731,1953.513762,2580.807200,1951.052700C2580.807049,1921.874774,2592.397882,1893.891859,2613.029810,1873.259968C2633.661738,1852.628078,2661.644674,1841.037296,2690.822600,1841.037500C2720.000492,1841.037349,2747.983376,1852.628154,2768.615261,1873.260039C2789.247146,1893.891924,2800.837951,1921.874808,2800.837800,1951.052700C2800.837320,1953.514529,2800.754207,1955.975648,2800.588600,1958.431900Z" fill="rgb(209,212,216)" stroke="none" stroke-width="14.402500"/><path id="e7fADhxyjqe25" d="M3407.225900,1958.432000C3396.506569,1906.336820,3350.646475,1868.951815,3297.459900,1868.951100C3244.273954,1868.951496,3198.413996,1906.335361,3187.693700,1958.429700C3187.528145,1955.974213,3187.445031,1953.513862,3187.444500,1951.052800C3187.444349,1921.874874,3199.035182,1893.891959,3219.667110,1873.260068C3240.299038,1852.628178,3268.281974,1841.037396,3297.459900,1841.037600C3326.637792,1841.037449,3354.620676,1852.628254,3375.252561,1873.260139C3395.884446,1893.892024,3407.475251,1921.874908,3407.475100,1951.052800C3407.474620,1953.514629,3407.391507,1955.975748,3407.225900,1958.432000Z" fill="rgb(209,212,216)" stroke="none" stroke-width="14.402500"/><path id="e7fADhxyjqe26" d="M3700.835300,1958.432000C3690.115969,1906.336820,3644.255875,1868.951815,3591.069300,1868.951100C3537.883354,1868.951496,3492.023396,1906.335361,3481.303100,1958.429700C3481.137545,1955.974213,3481.054431,1953.513862,3481.053900,1951.052800C3481.053749,1921.874874,3492.644582,1893.891959,3513.276510,1873.260068C3533.908438,1852.628178,3561.891374,1841.037396,3591.069300,1841.037600C3620.247192,1841.037449,3648.230076,1852.628254,3668.861961,1873.260139C3689.493846,1893.892024,3701.084651,1921.874908,3701.084500,1951.052800C3701.084020,1953.514629,3701.000907,1955.975748,3700.835300,1958.432000Z" fill="rgb(209,212,216)" stroke="none" stroke-width="14.402500"/><path id="e7fADhxyjqe27" d="M3246.440000,1735.506200C3235.720669,1683.411020,3189.860575,1646.026015,3136.674000,1646.025300C3083.488054,1646.025696,3037.628096,1683.409561,3026.907800,1735.503900C3026.742245,1733.048413,3026.659131,1730.588062,3026.658600,1728.127000C3026.658449,1698.949074,3038.249282,1670.966159,3058.881210,1650.334268C3079.513138,1629.702378,3107.496074,1618.111596,3136.674000,1618.111800C3165.851892,1618.111649,3193.834776,1629.702454,3214.466661,1650.334339C3235.098546,1670.966224,3246.689351,1698.949108,3246.689200,1728.127000C3246.688720,1730.588829,3246.605607,1733.049948,3246.440000,1735.506200Z" fill="rgb(209,212,216)" stroke="none" stroke-width="14.402500"/><path id="e7fADhxyjqe28" d="M3557.137900,1734.729500C3546.418569,1682.634320,3500.558475,1645.249315,3447.371900,1645.248600C3394.185916,1645.248948,3348.325903,1682.632824,3337.605600,1734.727200C3337.440045,1732.271713,3337.356931,1729.811362,3337.356400,1727.350300C3337.356249,1698.172357,3348.947095,1670.189427,3369.579045,1649.557533C3390.210995,1628.925639,3418.193957,1617.334869,3447.371900,1617.335100C3476.549792,1617.334949,3504.532676,1628.925754,3525.164561,1649.557639C3545.796446,1670.189524,3557.387251,1698.172408,3557.387100,1727.350300C3557.386620,1729.812129,3557.303507,1732.273248,3557.137900,1734.729500Z" fill="rgb(209,212,216)" stroke="none" stroke-width="14.402500"/><path id="e7fADhxyjqe29" d="M2948.170300,1734.729500C2937.450969,1682.634320,2891.590875,1645.249315,2838.404300,1645.248600C2785.218316,1645.248948,2739.358303,1682.632824,2728.638000,1734.727200C2728.472445,1732.271713,2728.389331,1729.811362,2728.388800,1727.350300C2728.388649,1698.172357,2739.979495,1670.189427,2760.611445,1649.557533C2781.243395,1628.925639,2809.226357,1617.334869,2838.404300,1617.335100C2867.582192,1617.334949,2895.565076,1628.925754,2916.196961,1649.557639C2936.828846,1670.189524,2948.419651,1698.172408,2948.419500,1727.350300C2948.419020,1729.812129,2948.335907,1732.273248,2948.170300,1734.729500Z" fill="rgb(209,212,216)" stroke="none" stroke-width="14.402500"/><path id="e7fADhxyjqe30" d="M3404.895900,1517.241100C3394.176569,1465.145920,3348.316475,1427.760915,3295.129900,1427.760200C3241.943916,1427.760548,3196.083903,1465.144424,3185.363600,1517.238800C3185.198045,1514.783313,3185.114931,1512.322962,3185.114400,1509.861900C3185.114249,1480.683957,3196.705095,1452.701027,3217.337045,1432.069133C3237.968995,1411.437239,3265.951957,1399.846469,3295.129900,1399.846700C3324.307792,1399.846549,3352.290676,1411.437354,3372.922561,1432.069239C3393.554446,1452.701124,3405.145251,1480.684008,3405.145100,1509.861900C3405.144620,1512.323729,3405.061507,1514.784848,3404.895900,1517.241100Z" fill="rgb(209,212,216)" stroke="none" stroke-width="14.402500"/><path id="e7fADhxyjqe31" d="M3100.412100,1517.241100C3089.692769,1465.145920,3043.832675,1427.760915,2990.646100,1427.760200C2937.460116,1427.760548,2891.600103,1465.144424,2880.879800,1517.238800C2880.714245,1514.783313,2880.631131,1512.322962,2880.630600,1509.861900C2880.630449,1480.683957,2892.221295,1452.701027,2912.853245,1432.069133C2933.485195,1411.437239,2961.468157,1399.846469,2990.646100,1399.846700C3019.823992,1399.846549,3047.806876,1411.437354,3068.438761,1432.069239C3089.070646,1452.701124,3100.661451,1480.684008,3100.661300,1509.861900C3100.660820,1512.323729,3100.577707,1514.784848,3100.412100,1517.241100Z" fill="rgb(209,212,216)" stroke="none" stroke-width="14.402500"/><circle id="e7fADhxyjqe32" r="359.623526" transform="matrix(1 0 0 -1 2399.13122559302792 3278.60656737572208)" opacity="0" fill="rgb(255,255,255)" stroke="none" stroke-width="194.224000"/><circle id="e7fADhxyjqe33" r="360.126000" transform="matrix(1 0 0 -1 3890.11999999999944 3201.30000000000064)" opacity="0" fill="rgb(255,255,255)" stroke="none" stroke-width="194.224000"/></g></g></svg>