<svg id="pie-chart" xmlns="http://www.w3.org/2000/svg" width="62.278" height="62.273" viewBox="0 0 62.278 62.273">
  <path id="Path_1239" data-name="Path 1239" d="M301.8,28.917H285.6a1.121,1.121,0,0,1-1.09-.863,13.035,13.035,0,0,0-9.668-9.633,1.122,1.122,0,0,1-.867-1.091V1.141A1.124,1.124,0,0,1,275.222.026a31.228,31.228,0,0,1,27.69,27.644A1.124,1.124,0,0,1,301.8,28.917Z" transform="translate(-240.651 -0.019)" fill="#ff7258"/>
  <path id="Path_1240" data-name="Path 1240" d="M273.976,118.262v-3.333a17.249,17.249,0,0,1,14.967,14.92H285.6a1.121,1.121,0,0,1-1.09-.863,13.035,13.035,0,0,0-9.668-9.633A1.122,1.122,0,0,1,273.976,118.262Z" transform="translate(-240.651 -100.952)" fill="#f95d48"/>
  <path id="Path_1241" data-name="Path 1241" d="M366.4,273.42a30.917,30.917,0,0,1-6.706,16.256,1.124,1.124,0,0,1-1.67.093l-9.066-9.066-2.386-2.386a1.123,1.123,0,0,1-.157-1.387,12.909,12.909,0,0,0,1.6-3.883,1.122,1.122,0,0,1,1.093-.873h16.181A1.124,1.124,0,0,1,366.4,273.42Z" transform="translate(-304.13 -239.072)" fill="#ffdc65"/>
  <path id="Path_1242" data-name="Path 1242" d="M352.442,272.175a17.144,17.144,0,0,1-3.484,8.528l-2.386-2.386a1.123,1.123,0,0,1-.157-1.387,12.909,12.909,0,0,0,1.6-3.883,1.122,1.122,0,0,1,1.093-.873h3.337Z" transform="translate(-304.13 -239.071)" fill="#ffc846"/>
  <path id="Path_1243" data-name="Path 1243" d="M50.925,53.7a1.124,1.124,0,0,1-.091,1.669A31.223,31.223,0,0,1,9.145,8.992,30.985,30.985,0,0,1,27.875.026a1.123,1.123,0,0,1,1.243,1.116V17.329a1.123,1.123,0,0,1-.87,1.092A12.993,12.993,0,1,0,38.087,42.1a1.123,1.123,0,0,1,1.391.154Z" transform="translate(0 -0.02)" fill="#00abe0"/>
  <path id="Path_1244" data-name="Path 1244" d="M140.2,143.122l2.391,2.391a17.242,17.242,0,1,1-12.751-30.654V118.2a1.123,1.123,0,0,1-.87,1.092,12.993,12.993,0,1,0,9.839,23.676A1.123,1.123,0,0,1,140.2,143.122Z" transform="translate(-100.719 -100.89)" fill="#099dd1"/>
</svg>
