<svg xmlns="http://www.w3.org/2000/svg" width="62" height="62" viewBox="0 0 62 62">
  <g id="staff" transform="translate(-73.913 8.644)">
    <circle id="Ellipse_200" data-name="Ellipse 200" cx="31" cy="31" r="31" transform="translate(73.913 -8.644)" fill="#df7e29"/>
    <g id="Group_276" data-name="Group 276" transform="translate(87.913 0)">
      <path id="Path_1245" data-name="Path 1245" d="M116.93,18.75,118.1,17.7c4.07-17.625-8.4-15.765-8.4-15.765S105.932-1.394,99.161.682c-6.61,2.027-7.17,6.547-11,8.826a.508.508,0,0,0-.069.831,5.184,5.184,0,0,0,3.341,1.12,23.129,23.129,0,0,0,.575,6.216l1.166,1.074H116.93Z" transform="translate(-87.913 0)" fill="#2d4456"/>
      <path id="Path_1246" data-name="Path 1246" d="M133.533,156.6a3.2,3.2,0,0,0-3.131,2.561q.115.529.252,1.075h3.209v-3.618A3.2,3.2,0,0,0,133.533,156.6Z" transform="translate(-126.301 -141.485)" fill="#253847"/>
      <path id="Path_1247" data-name="Path 1247" d="M367.977,160.233q.138-.538.256-1.052A3.2,3.2,0,0,0,365.1,156.6a3.245,3.245,0,0,0-.33.017v3.618h3.209Z" transform="translate(-338.047 -141.484)" fill="#253847"/>
      <path id="Path_1248" data-name="Path 1248" d="M134.478,179.379V175.54a3.245,3.245,0,0,0-.33-.017,3.2,3.2,0,0,0-3.062,2.281c-.086.289,1.3,3.194,3.062,3.194l.355-.933Q134.478,179.725,134.478,179.379Z" transform="translate(-126.916 -158.582)" fill="#ffc4ad"/>
      <path id="Path_1249" data-name="Path 1249" d="M132.943,201.436a3.2,3.2,0,0,1-3.061-2.281,3.2,3.2,0,0,0,3.712,4.041l.724-.876-1.02-.9A3.2,3.2,0,0,1,132.943,201.436Z" transform="translate(-125.711 -179.933)" fill="#ffb69f"/>
      <path id="Path_1250" data-name="Path 1250" d="M136.642,324.306H107.859l-.913-.913v-6.324a11.8,11.8,0,0,1,11.8-11.8h7a11.8,11.8,0,0,1,11.8,11.8v6.324Z" transform="translate(-105.109 -275.803)" fill="#86dcff"/>
      <path id="Path_1251" data-name="Path 1251" d="M122,498.824a30.445,30.445,0,0,0,15.553-4.111v-1.637h-30.61v1.778A30.6,30.6,0,0,0,122,498.824Z" transform="translate(-105.109 -445.486)" fill="#56caed"/>
      <path id="Path_1252" data-name="Path 1252" d="M234.434,341.716l1.776-.913,1.776.913,1.355,7.425-.371,1.288-2.76,2.788-2.739-2.767-.392-1.309Z" transform="translate(-219.068 -307.91)" fill="#ff5876"/>
      <path id="Path_1253" data-name="Path 1253" d="M233.583,430l-2.77-2.8-.234,1.282a.507.507,0,0,0,.139.448l2.865,2.895a.507.507,0,0,0,.721,0l2.865-2.894a.507.507,0,0,0,.139-.448l-.234-1.282L234.3,430A.507.507,0,0,1,233.583,430Z" transform="translate(-216.802 -385.966)" fill="#e6485d"/>
      <path id="Path_1254" data-name="Path 1254" d="M234.879,309.609h-3.551l-1.687-4.343h6.925Z" transform="translate(-215.962 -275.803)" fill="#e6485d"/>
      <path id="Path_1255" data-name="Path 1255" d="M364.541,179.379V175.54a3.244,3.244,0,0,1,.33-.017,3.2,3.2,0,0,1,3.062,2.281c.086.289-1.3,3.194-3.062,3.194l-.355-.933Q364.541,179.725,364.541,179.379Z" transform="translate(-337.82 -158.582)" fill="#ffc4ad"/>
      <path id="Path_1256" data-name="Path 1256" d="M355.313,201.436a3.2,3.2,0,0,0,3.061-2.281,3.2,3.2,0,0,1-3.712,4.041l-.724-.876,1.02-.9A3.2,3.2,0,0,0,355.313,201.436Z" transform="translate(-328.261 -179.933)" fill="#ffb69f"/>
      <path id="Path_1257" data-name="Path 1257" d="M179.028,78.882c-3.62,4.05-10.534,5.278-12.329,5.535a.506.506,0,0,0-.434.5V91a9.579,9.579,0,0,0,19.159,0V84.985a.506.506,0,0,0-.3-.464,10.7,10.7,0,0,1-5.256-5.5A.506.506,0,0,0,179.028,78.882Z" transform="translate(-158.703 -71.119)" fill="#ffe0cc"/>
      <path id="Path_1258" data-name="Path 1258" d="M175.844,206.132a9.579,9.579,0,0,1-9.579-9.579v1.826a9.579,9.579,0,1,0,19.159,0v-1.826A9.579,9.579,0,0,1,175.844,206.132Z" transform="translate(-158.703 -177.582)" fill="#ffceb3"/>
      <circle id="Ellipse_198" data-name="Ellipse 198" cx="3.948" cy="3.948" r="3.948" transform="matrix(0.192, -0.981, 0.981, 0.192, 6.866, 22.042)" fill="#e4eef9"/>
      <circle id="Ellipse_199" data-name="Ellipse 199" cx="3.948" cy="3.948" r="3.948" transform="matrix(0.994, -0.106, 0.106, 0.994, 18.423, 15.402)" fill="#e4eef9"/>
      <path id="Path_1259" data-name="Path 1259" d="M163.227,440.413v-4.865a.761.761,0,1,0-1.522,0v4.865l.761.913Z" transform="translate(-154.583 -392.823)" fill="#41adf7"/>
      <path id="Path_1260" data-name="Path 1260" d="M161.7,493.076h1.522V494.9H161.7Z" transform="translate(-154.583 -445.486)" fill="#1ba0ea"/>
      <path id="Path_1261" data-name="Path 1261" d="M355.08,440.413v-4.865a.761.761,0,1,0-1.522,0v4.865l.761.913Z" transform="translate(-327.919 -392.823)" fill="#41adf7"/>
      <path id="Path_1262" data-name="Path 1262" d="M353.558,493.076h1.522V494.9h-1.522Z" transform="translate(-327.919 -445.486)" fill="#1ba0ea"/>
    </g>
    <g id="Group_278" data-name="Group 278" transform="translate(99.643 17.079)">
      <path id="Path_1263" data-name="Path 1263" d="M241.124,238.81a.763.763,0,0,0-1,.415c0,.006-.3.643-1.395.643s-1.392-.637-1.395-.643a.763.763,0,0,0-1.41.581,3.272,3.272,0,0,0,5.61,0A.762.762,0,0,0,241.124,238.81Z" transform="translate(-233.32 -232.788)" fill="#ff5876"/>
      <g id="Group_277" data-name="Group 277" transform="translate(0)">
        <path id="Path_1264" data-name="Path 1264" d="M210.209,180.632a.762.762,0,0,0,.762-.762v-2.152a.762.762,0,0,0-1.525,0v2.152A.763.763,0,0,0,210.209,180.632Z" transform="translate(-209.447 -176.955)" fill="#2d4456"/>
        <path id="Path_1265" data-name="Path 1265" d="M306.576,176.956a.762.762,0,0,0-.762.762v2.152a.762.762,0,1,0,1.525,0v-2.152A.763.763,0,0,0,306.576,176.956Z" transform="translate(-296.513 -176.956)" fill="#2d4456"/>
      </g>
    </g>
    <path id="Path_1266" data-name="Path 1266" d="M174.351,147.3a4.716,4.716,0,0,0-4.647,3.949h-1.967a4.71,4.71,0,1,0,0,1.522H169.7a4.709,4.709,0,1,0,4.647-5.471Zm-11.262,7.9a3.188,3.188,0,1,1,3.187-3.187A3.191,3.191,0,0,1,163.09,155.2Zm11.262,0a3.188,3.188,0,1,1,3.188-3.187A3.191,3.191,0,0,1,174.351,155.2Z" transform="translate(-63.666 -133.086)" fill="#2d4456"/>
  </g>
</svg>
