<svg id="students" xmlns="http://www.w3.org/2000/svg" width="62" height="62.036" viewBox="0 0 62 62.036">
  <circle id="Ellipse_190" data-name="Ellipse 190" cx="31" cy="31" r="31" fill="#dfcd29"/>
  <g id="Group_266" data-name="Group 266" transform="translate(26.51 9.346)">
    <g id="Group_264" data-name="Group 264" transform="translate(4.579 25.547)">
      <path id="Path_1184" data-name="Path 1184" d="M285.988,314.224l-2.419,1.452H272.951l-1.413-2.033c0-3.327-.27-4.085-.009-5.806.086-.56-.8-2.271-.312-2.563a15.741,15.741,0,0,1,1.516-.8l.005,0c.441-.2.88-.383,1.307-.543a23.127,23.127,0,0,1,3.875-1.074,1.918,1.918,0,0,1,.678,0,23.145,23.145,0,0,1,3.874,1.074,17.334,17.334,0,0,1,2.829,1.341c.487.292-.538,2-.452,2.563C285.109,309.559,285.988,310.9,285.988,314.224Z" transform="translate(-269.505 -302.83)" fill="#5766cb"/>
      <path id="Path_1185" data-name="Path 1185" d="M255.873,322.238a2.2,2.2,0,0,0-.7,1.446c-.2,1.854-.634,6.169-.634,9.753h-1.9c0-3.327,1.763-6.117,2.023-7.839.086-.56-.8-2.271-.312-2.563a15.733,15.733,0,0,1,1.516-.8Z" transform="translate(-252.64 -320.59)" fill="#3d4fc3"/>
      <path id="Path_1186" data-name="Path 1186" d="M323.243,325.728a12.693,12.693,0,0,0,1.233,1.768c.428.514.948-.073,1.527.339.579-.412,1.1.175,1.527-.339a12.68,12.68,0,0,0,1.233-1.768v-3.493h-5.52Z" transform="translate(-317.249 -320.587)" fill="#ecf4ff"/>
      <path id="Path_1187" data-name="Path 1187" d="M340.818,363.545a8.378,8.378,0,0,1-1.527,1.461,8.374,8.374,0,0,1-1.527-1.461l1.527-1.917Z" transform="translate(-330.538 -356.636)" fill="#d57080"/>
      <path id="Path_1188" data-name="Path 1188" d="M323.243,315.085l2.76,2.654,2.76-2.654-2.99-1.908" transform="translate(-317.249 -312.298)" fill="#d57080"/>
      <path id="Path_1189" data-name="Path 1189" d="M256.746,337.508a21.425,21.425,0,0,0-.66,4.528H252.64a67.3,67.3,0,0,1,.809-9.053,1.911,1.911,0,0,1,.9-1.349,3.967,3.967,0,0,1,.832.573,5.843,5.843,0,0,1,1.666,3.653A4.634,4.634,0,0,1,256.746,337.508Z" transform="translate(-252.64 -329.189)" fill="#ecf4ff"/>
      <path id="Path_1190" data-name="Path 1190" d="M413.167,342.037h-3.445a21.415,21.415,0,0,0-.661-4.528,4.652,4.652,0,0,1-.1-1.646,5.282,5.282,0,0,1,2.5-4.227,1.909,1.909,0,0,1,.9,1.349A67.253,67.253,0,0,1,413.167,342.037Z" transform="translate(-395.659 -329.19)" fill="#ecf4ff"/>
      <g id="Group_263" data-name="Group 263">
        <path id="Path_1191" data-name="Path 1191" d="M255.184,332.207c0,.025-.007.05-.01.075-.2,1.854-.634,6.169-.634,9.753h-1.9a67.3,67.3,0,0,1,.809-9.053,1.912,1.912,0,0,1,.9-1.349A3.967,3.967,0,0,1,255.184,332.207Z" transform="translate(-252.64 -329.188)" fill="#ddeafb"/>
        <path id="Path_1192" data-name="Path 1192" d="M314.553,303.932l-1.453,4.036-2.76-2.654-2.76,2.654-1.453-4.036A23.127,23.127,0,0,1,310,302.858a1.889,1.889,0,0,1,.678,0A23.124,23.124,0,0,1,314.553,303.932Z" transform="translate(-301.585 -302.828)" fill="#ddeafb"/>
      </g>
    </g>
    <path id="Path_1193" data-name="Path 1193" d="M222.337,17.033l-4.677,5.3-10.453-5.086-6.172.088s-3.1-4.532-2.16-8.962,6.644-1.745,6.644-1.745,3.1-4.738,7.2-4.738c6.082,0,8.643,5.812,11.395,3.732,0,0,3.609,6.822-1.773,11.411Z" transform="translate(-198.697 -1.891)" fill="#9d6b6b"/>
    <path id="Path_1194" data-name="Path 1194" d="M207.207,59.631l-6.172.088s-3.1-4.532-2.16-8.962,6.644-1.745,6.644-1.745a4.407,4.407,0,0,0,1.589,5.88C208.252,55.734,208.032,57.554,207.207,59.631Z" transform="translate(-198.697 -44.275)" fill="#8b5e5e"/>
    <path id="Path_1195" data-name="Path 1195" d="M335.26,266.21v3.5a2.1,2.1,0,0,1-4.191,0v-3.5Z" transform="translate(-319.832 -243.771)" fill="#ffddce"/>
    <path id="Path_1196" data-name="Path 1196" d="M333.851,271.689a2.1,2.1,0,0,1-2.78-1.981v-3.5h1.368v3.5A2.1,2.1,0,0,0,333.851,271.689Z" transform="translate(-319.833 -243.77)" fill="#ffcbbe"/>
    <path id="Path_1197" data-name="Path 1197" d="M223.144,184.508a2.738,2.738,0,0,1-2.669-3.341,1.351,1.351,0,0,1,2.669.3h17.509a1.351,1.351,0,0,1,2.669-.3,2.738,2.738,0,0,1-2.669,3.341" transform="translate(-218.565 -164.983)" fill="#ffcbbe"/>
    <path id="Path_1198" data-name="Path 1198" d="M451.826,197.169a.638.638,0,0,1-.522-1,2.583,2.583,0,0,1,.572-.568,1.675,1.675,0,0,1,1.641-.24.637.637,0,1,1-.476,1.181c-.328-.132-.692.355-.7.36A.631.631,0,0,1,451.826,197.169Z" transform="translate(-429.755 -178.826)" fill="#eaac9d"/>
    <path id="Path_1199" data-name="Path 1199" d="M331.069,266.21h4.191v3.224h-4.191Z" transform="translate(-319.832 -243.771)" fill="#ffcbbe"/>
    <path id="Path_1200" data-name="Path 1200" d="M270.139,114.05v4.9a6.381,6.381,0,0,1-6.381,6.381h-4.747a6.381,6.381,0,0,1-6.381-6.381v-4.9a4.094,4.094,0,0,0,4.094-4.093s.033.031.1.087C257.508,110.635,261.829,114.05,270.139,114.05Z" transform="translate(-248.052 -100.783)" fill="#ffddce"/>
    <path id="Path_1201" data-name="Path 1201" d="M263.2,125.336h-4.192a6.381,6.381,0,0,1-6.381-6.381v-4.9a4.094,4.094,0,0,0,4.094-4.093s.033.031.1.087v8.912A6.381,6.381,0,0,0,263.2,125.336Z" transform="translate(-248.052 -100.783)" fill="#ffcbbe"/>
    <g id="Group_265" data-name="Group 265" transform="translate(6.125 17.137)">
      <ellipse id="Ellipse_177" data-name="Ellipse 177" cx="1.433" cy="0.871" rx="1.433" ry="0.871" transform="translate(11.55 0)" fill="#eaafa5"/>
      <ellipse id="Ellipse_178" data-name="Ellipse 178" cx="1.433" cy="0.871" rx="1.433" ry="0.871" transform="translate(0 0)" fill="#eaafa5"/>
    </g>
    <path id="Path_1202" data-name="Path 1202" d="M335.857,230.739a2.317,2.317,0,0,1-1.649-.683.672.672,0,0,1,.951-.95.988.988,0,0,0,1.4,0,.672.672,0,1,1,.95.95A2.317,2.317,0,0,1,335.857,230.739Z" transform="translate(-322.524 -209.636)" fill="#d57080"/>
  </g>
  <g id="Group_271" data-name="Group 271" transform="translate(9.642 9.346)">
    <path id="Path_1203" data-name="Path 1203" d="M11.321,1.892A11.319,11.319,0,0,1,22.639,13.211V23.954a7.089,7.089,0,0,1-4.808,6.712l-6.511,2.213L4.81,30.666A7.089,7.089,0,0,1,0,23.954V13.211A11.319,11.319,0,0,1,11.321,1.892Z" transform="translate(-0.002 -1.892)" fill="#e4936b"/>
    <path id="Path_1204" data-name="Path 1204" d="M8.561,30.666l2.758,2.213-6.51-2.213A7.09,7.09,0,0,1,0,23.954V13.211A11.319,11.319,0,0,1,11.319,1.892c-2.648,0-4.8,5.068-4.8,11.319V23.954c0,3.036.819,5.735,2.037,6.712Z" transform="translate(0 -1.892)" fill="#e27d47"/>
    <g id="Group_268" data-name="Group 268" transform="translate(2.565 25.547)">
      <path id="Path_1205" data-name="Path 1205" d="M63.567,314.224l-2.419,1.452H50.53l-1.413-2.033c0-3.327-.27-4.085-.009-5.806.086-.56-.8-2.271-.312-2.563a15.742,15.742,0,0,1,1.516-.8l.005,0c.441-.2.88-.383,1.307-.543A23.127,23.127,0,0,1,55.5,302.86a1.918,1.918,0,0,1,.678,0,23.145,23.145,0,0,1,3.874,1.074,17.334,17.334,0,0,1,2.829,1.341c.487.292-.538,2-.452,2.563C62.688,309.559,63.567,310.9,63.567,314.224Z" transform="translate(-47.084 -302.83)" fill="#5766cb"/>
      <path id="Path_1206" data-name="Path 1206" d="M33.453,322.239a2.2,2.2,0,0,0-.7,1.446c-.2,1.854-.634,6.169-.634,9.753h-1.9c0-3.327,1.763-6.117,2.023-7.839.086-.56-.8-2.271-.312-2.563a15.735,15.735,0,0,1,1.516-.8Z" transform="translate(-30.22 -320.591)" fill="#3d4fc3"/>
      <path id="Path_1207" data-name="Path 1207" d="M100.823,325.728a12.7,12.7,0,0,0,1.233,1.768c.428.514.948-.073,1.527.339.579-.412,1.1.175,1.527-.339a12.678,12.678,0,0,0,1.233-1.768v-3.493h-5.52Z" transform="translate(-94.829 -320.587)" fill="#ecf4ff"/>
      <path id="Path_1208" data-name="Path 1208" d="M118.4,363.545a8.381,8.381,0,0,1-1.527,1.461,8.376,8.376,0,0,1-1.527-1.461l1.527-1.917Z" transform="translate(-108.117 -356.636)" fill="#d57080"/>
      <path id="Path_1209" data-name="Path 1209" d="M100.823,315.085l2.76,2.654,2.76-2.654-2.99-1.908" transform="translate(-94.829 -312.298)" fill="#d57080"/>
      <path id="Path_1210" data-name="Path 1210" d="M34.326,337.508a21.424,21.424,0,0,0-.66,4.528H30.22a67.3,67.3,0,0,1,.809-9.053,1.912,1.912,0,0,1,.9-1.349,3.967,3.967,0,0,1,.832.573,5.843,5.843,0,0,1,1.666,3.653A4.633,4.633,0,0,1,34.326,337.508Z" transform="translate(-30.22 -329.189)" fill="#ecf4ff"/>
      <path id="Path_1211" data-name="Path 1211" d="M190.745,342.037H187.3a21.416,21.416,0,0,0-.661-4.528,4.651,4.651,0,0,1-.1-1.646,5.282,5.282,0,0,1,2.5-4.227,1.909,1.909,0,0,1,.9,1.349A67.243,67.243,0,0,1,190.745,342.037Z" transform="translate(-173.238 -329.19)" fill="#ecf4ff"/>
      <g id="Group_267" data-name="Group 267" transform="translate(0)">
        <path id="Path_1212" data-name="Path 1212" d="M32.764,332.207c0,.025-.007.05-.01.075-.2,1.854-.634,6.169-.634,9.753h-1.9a67.3,67.3,0,0,1,.809-9.053,1.912,1.912,0,0,1,.9-1.349A3.966,3.966,0,0,1,32.764,332.207Z" transform="translate(-30.22 -329.188)" fill="#ddeafb"/>
        <path id="Path_1213" data-name="Path 1213" d="M92.132,303.932l-1.453,4.036-2.76-2.654-2.76,2.654-1.453-4.036a23.126,23.126,0,0,1,3.874-1.074,1.889,1.889,0,0,1,.678,0,23.122,23.122,0,0,1,3.874,1.074Z" transform="translate(-79.165 -302.828)" fill="#ddeafb"/>
      </g>
    </g>
    <path id="Path_1214" data-name="Path 1214" d="M112.84,266.209v3.5a2.1,2.1,0,0,1-4.191,0v-3.5Z" transform="translate(-99.426 -243.771)" fill="#ffddce"/>
    <path id="Path_1215" data-name="Path 1215" d="M111.43,271.689a2.1,2.1,0,0,1-2.78-1.981v-3.5h1.368v3.5A2.1,2.1,0,0,0,111.43,271.689Z" transform="translate(-99.426 -243.77)" fill="#ffcbbe"/>
    <path id="Path_1216" data-name="Path 1216" d="M108.649,266.209h4.191v3.224h-4.191Z" transform="translate(-99.426 -243.771)" fill="#ffcbbe"/>
    <path id="Path_1217" data-name="Path 1217" d="M47.718,114.143v4.809a6.381,6.381,0,0,1-6.381,6.381H36.59a6.381,6.381,0,0,1-6.381-6.381V114.2a26.159,26.159,0,0,0,4.192-.544c3.3-.671,7.089-1.939,8.851-3.7C43.252,109.952,45,113.515,47.718,114.143Z" transform="translate(-27.644 -100.779)" fill="#ffddce"/>
    <path id="Path_1218" data-name="Path 1218" d="M40.781,165.232H36.589a6.381,6.381,0,0,1-6.381-6.381V154.1a26.157,26.157,0,0,0,4.192-.544v5.3A6.381,6.381,0,0,0,40.781,165.232Z" transform="translate(-27.644 -140.678)" fill="#ffcbbe"/>
    <g id="Group_269" data-name="Group 269" transform="translate(4.729 17.755)">
      <ellipse id="Ellipse_179" data-name="Ellipse 179" cx="1.433" cy="0.871" rx="1.433" ry="0.871" transform="translate(10.313)" fill="#eaafa5"/>
      <ellipse id="Ellipse_180" data-name="Ellipse 180" cx="1.433" cy="0.871" rx="1.433" ry="0.871" fill="#eaafa5"/>
    </g>
    <g id="Group_270" data-name="Group 270" transform="translate(5.824 13.881)">
      <path id="Path_1219" data-name="Path 1219" d="M298.463,165.4c-.457,0-.829.617-.829,1.374s.372,1.374.829,1.374.829-.617.829-1.374S298.92,165.4,298.463,165.4Z" transform="translate(-278.191 -165.402)" fill="#2b4d66"/>
      <ellipse id="Ellipse_181" data-name="Ellipse 181" cx="0.829" cy="1.374" rx="0.829" ry="1.374" transform="translate(27.653)" fill="#2b4d66"/>
      <path id="Path_1220" data-name="Path 1220" d="M70.129,173.616l-1.033.008a.5.5,0,1,0,0,.991h.226a2.245,2.245,0,0,0-.033.387c0,.764.377,1.386.84,1.386s.84-.622.84-1.386S70.593,173.616,70.129,173.616Z" transform="translate(-68.601 -172.919)" fill="#2b4d66"/>
      <path id="Path_1221" data-name="Path 1221" d="M171.353,173.624l-1.1-.008c-.463,0-.84.622-.84,1.386s.377,1.386.84,1.386.84-.622.84-1.386a2.247,2.247,0,0,0-.033-.387h.289a.5.5,0,0,0,0-.991Z" transform="translate(-160.859 -172.919)" fill="#2b4d66"/>
    </g>
    <path id="Path_1222" data-name="Path 1222" d="M114.057,231.141a2.235,2.235,0,0,1-1.591-.659.672.672,0,0,1,.951-.95.906.906,0,0,0,1.282,0,.672.672,0,0,1,.95.95A2.236,2.236,0,0,1,114.057,231.141Z" transform="translate(-102.738 -210.027)" fill="#d57080"/>
  </g>
  <path id="Path_1223" data-name="Path 1223" d="M32.145,453.733H69.082v8.37A31.227,31.227,0,0,1,50.7,468.065c-11.941-.16-18.56-6.363-18.56-6.363Z" transform="translate(-19.774 -406.03)" fill="#8b5e5e"/>
  <path id="Path_1224" data-name="Path 1224" d="M48.74,430.927H9.772a.966.966,0,0,1-.966-.966v-1.228a.966.966,0,0,1,.966-.966H48.74a.966.966,0,0,1,.966.966v1.228A.966.966,0,0,1,48.74,430.927Z" transform="translate(1.584 -382.268)" fill="#9d6b6b"/>
  <path id="Path_1225" data-name="Path 1225" d="M11.639,430.929H9.772a.967.967,0,0,1-.966-.967v-1.228a.966.966,0,0,1,.966-.966h1.867a.966.966,0,0,0-.966.966v1.228A.967.967,0,0,0,11.639,430.929Z" transform="translate(1.584 -382.27)" fill="#8b5e5e"/>
</svg>
