<svg xmlns="http://www.w3.org/2000/svg" width="280" height="280" viewBox="0 0 280 280">
  <g id="logo" transform="translate(-1.526 -1.526)">
    <g id="Ellipse_2_copy" data-name="Ellipse 2 copy" transform="translate(1.526 1.526)" fill="#efefef">
      <path d="M 139.9994354248047 278.5 C 130.6014251708984 278.5 121.2098236083984 277.5532836914062 112.0855026245117 275.6861572265625 C 103.1935729980469 273.8665466308594 94.44739532470703 271.1515502929688 86.08982086181641 267.6165771484375 C 77.88349914550781 264.1455383300781 69.96836090087891 259.8492736816406 62.5643196105957 254.8471832275391 C 55.22996520996094 249.8921813964844 48.33324813842773 244.2017822265625 42.06575012207031 237.9341430664062 C 35.79803466796875 231.66650390625 30.10767936706543 224.7697448730469 25.15275001525879 217.4354248046875 C 20.15053558349609 210.0311126708984 15.85432147979736 202.1158905029297 12.3834285736084 193.9097137451172 C 8.848320960998535 185.5517120361328 6.133321285247803 176.8054351806641 4.313857078552246 167.9137573242188 C 2.446714401245117 158.7891387939453 1.5 149.3973999023438 1.5 139.9994354248047 C 1.5 130.6015777587891 2.446714401245117 121.2099609375 4.313857078552246 112.0855026245117 C 6.133321285247803 103.193962097168 8.848285675048828 94.44774627685547 12.3834285736084 86.08982086181641 C 15.8544282913208 77.88349914550781 20.15064239501953 69.96836090087891 25.15275001525879 62.5643196105957 C 30.10771369934082 55.23003387451172 35.79807281494141 48.33332061767578 42.06571578979492 42.06575012207031 C 48.33332061767578 35.79807281494141 55.23003387451172 30.10771369934082 62.5643196105957 25.15275001525879 C 69.96836090087891 20.15064239501953 77.88349914550781 15.8544282913208 86.08982086181641 12.3834285736084 C 94.44774627685547 8.848285675048828 103.193962097168 6.133321285247803 112.0855026245117 4.313857078552246 C 121.2099609375 2.446714401245117 130.6015777587891 1.5 139.9994354248047 1.5 C 149.3973999023438 1.5 158.7891387939453 2.446714401245117 167.9137573242188 4.313857078552246 C 176.8054351806641 6.133321285247803 185.5517120361328 8.848320960998535 193.9097137451172 12.3834285736084 C 202.1158905029297 15.85432147979736 210.0311126708984 20.15053558349609 217.4354248046875 25.15275001525879 C 224.7697448730469 30.10767936706543 231.66650390625 35.79803466796875 237.9341125488281 42.06571578979492 C 244.2017822265625 48.33324813842773 249.8921813964844 55.22996520996094 254.8471832275391 62.5643196105957 C 259.8492736816406 69.96836090087891 264.1455383300781 77.88349914550781 267.6165771484375 86.08982086181641 C 271.1515502929688 94.44739532470703 273.8665466308594 103.1935729980469 275.6861572265625 112.0855026245117 C 277.5532836914062 121.2098236083984 278.5 130.6014251708984 278.5 139.9994354248047 C 278.5 149.3976135253906 277.5532836914062 158.7893218994141 275.6861572265625 167.9137573242188 C 273.8665466308594 176.8058166503906 271.1515502929688 185.5521392822266 267.6165771484375 193.9097137451172 C 264.1455078125 202.1161804199219 259.8492431640625 210.0313873291016 254.8471832275391 217.4354248046875 C 249.8922424316406 224.7697143554688 244.2018890380859 231.6664581298828 237.9341430664062 237.9341125488281 C 231.6664581298828 244.2018890380859 224.7697143554688 249.8922424316406 217.4354248046875 254.8471832275391 C 210.0313873291016 259.8492431640625 202.1161804199219 264.1455078125 193.9097137451172 267.6165771484375 C 185.5521392822266 271.1515502929688 176.8058166503906 273.8665466308594 167.9137573242188 275.6861572265625 C 158.7893218994141 277.5532836914062 149.3976135253906 278.5 139.9994354248047 278.5 Z M 139.9994354248047 53.0750732421875 C 92.06917572021484 53.0750732421875 53.0750732421875 92.06917572021484 53.0750732421875 139.9994354248047 C 53.0750732421875 187.9303283691406 92.06917572021484 226.9249572753906 139.9994354248047 226.9249572753906 C 187.9303283691406 226.9249572753906 226.9249572753906 187.9303283691406 226.9249572753906 139.9994354248047 C 226.9249572753906 92.06917572021484 187.9303283691406 53.0750732421875 139.9994354248047 53.0750732421875 Z" stroke="none"/>
      <path d="M 139.9994506835938 277 C 149.2966613769531 277 158.5872192382812 276.0635681152344 167.6130065917969 274.216552734375 C 176.4083404541016 272.4167785644531 185.0592193603516 269.7314453125 193.3253326416016 266.235107421875 C 201.4424438476562 262.8017883300781 209.2716674804688 258.5522155761719 216.5956726074219 253.6042175292969 C 223.8506622314453 248.7030029296875 230.6730041503906 243.0740051269531 236.8734436035156 236.8734436035156 C 243.0740051269531 230.6730041503906 248.7030029296875 223.8506622314453 253.6042175292969 216.5956726074219 C 258.5522155761719 209.2716674804688 262.8017883300781 201.4424438476562 266.235107421875 193.3253326416016 C 269.7314453125 185.0592193603516 272.4167785644531 176.4083404541016 274.216552734375 167.6130065917969 C 276.0635681152344 158.5872192382812 277 149.2966613769531 277 139.9994506835938 C 277 130.7024383544922 276.0635681152344 121.4120025634766 274.216552734375 112.3862228393555 C 272.4167785644531 103.5910034179688 269.7314453125 94.94022369384766 266.235107421875 86.67422485351562 C 262.8017883300781 78.55699920654297 258.5521240234375 70.72777557373047 253.6042175292969 63.40410995483398 C 248.7031097412109 56.14944458007812 243.0741119384766 49.32699966430664 236.8734436035156 43.12633514404297 C 230.6732177734375 36.92610931396484 223.8507843017578 31.29711151123047 216.5956726074219 26.39566612243652 C 209.2717742919922 21.44777870178223 201.4425506591797 17.19822311401367 193.3253326416016 13.76488876342773 C 185.0583343505859 10.26833343505859 176.4075622558594 7.583000183105469 167.6130065917969 5.783444404602051 C 158.5871124267578 3.936444520950317 149.2965545654297 3 139.9994506835938 3 C 130.7024383544922 3 121.4120025634766 3.936444520950317 112.3862228393555 5.783444404602051 C 103.5917739868164 7.583000183105469 94.94100189208984 10.26833343505859 86.67422485351562 13.76488876342773 C 78.55699920654297 17.19822311401367 70.72777557373047 21.44788932800293 63.40410995483398 26.39566612243652 C 56.14933395385742 31.29688835144043 49.32688903808594 36.92588806152344 43.12633514404297 43.12633514404297 C 36.92588806152344 49.32688903808594 31.29688835144043 56.14933395385742 26.39566612243652 63.40410995483398 C 21.44788932800293 70.72777557373047 17.19822311401367 78.55699920654297 13.76488876342773 86.67422485351562 C 10.26833343505859 94.94100189208984 7.583000183105469 103.5917739868164 5.783444404602051 112.3862228393555 C 3.936444520950317 121.4120025634766 3 130.7024383544922 3 139.9994506835938 C 3 149.2965545654297 3.936444520950317 158.5871124267578 5.783444404602051 167.6130065917969 C 7.583000183105469 176.4075622558594 10.26833343505859 185.0583343505859 13.76488876342773 193.3253326416016 C 17.19822311401367 201.4425506591797 21.44777870178223 209.2717742919922 26.39566612243652 216.5956726074219 C 31.29711151123047 223.8507843017578 36.92610931396484 230.6732177734375 43.12633514404297 236.8734436035156 C 49.32699966430664 243.0741119384766 56.14944458007812 248.7031097412109 63.40410995483398 253.6042175292969 C 70.72777557373047 258.5521240234375 78.55699920654297 262.8017883300781 86.67422485351562 266.235107421875 C 94.94022369384766 269.7314453125 103.5910034179688 272.4167785644531 112.3862228393555 274.216552734375 C 121.4120025634766 276.0635681152344 130.7024383544922 277 139.9994506835938 277 M 139.9994506835938 51.57500076293945 C 188.7574462890625 51.57500076293945 228.4250030517578 91.24199676513672 228.4250030517578 139.9994506835938 C 228.4250030517578 188.7574462890625 188.7574462890625 228.4250030517578 139.9994506835938 228.4250030517578 C 91.24199676513672 228.4250030517578 51.57500076293945 188.7574462890625 51.57500076293945 139.9994506835938 C 51.57500076293945 91.24199676513672 91.24199676513672 51.57500076293945 139.9994506835938 51.57500076293945 M 139.9994506835938 280 C 130.5006713867188 280 121.0078887939453 279.0429992675781 111.7847747802734 277.1556701660156 C 102.7958908081055 275.3162231445312 93.9542236328125 272.5716552734375 85.50555419921875 268.9981079101562 C 77.20999908447266 265.4893188476562 69.20888519287109 261.1464538574219 61.72466659545898 256.0901184082031 C 54.31122207641602 251.0817718505859 47.3402214050293 245.3300018310547 41.00500106811523 238.9947814941406 C 34.66977691650391 232.6595611572266 28.91811180114746 225.6884460449219 23.9097785949707 218.2751159667969 C 18.85344505310059 210.7906646728516 14.510666847229 202.7896728515625 11.0018892288208 194.4940032958984 C 7.428333282470703 186.0449981689453 4.683666706085205 177.2033386230469 2.844333410263062 168.2144470214844 C 0.9570000171661377 158.9912261962891 0 149.4983367919922 0 139.9994506835938 C 0 130.5006713867188 0.9570000171661377 121.0078887939453 2.844333410263062 111.7847747802734 C 4.683666706085205 102.7961120605469 7.428333282470703 93.95444488525391 11.0018892288208 85.50555419921875 C 14.510666847229 77.20999908447266 18.85344505310059 69.20899963378906 23.9097785949707 61.72466659545898 C 28.91811180114746 54.31133270263672 34.66977691650391 47.34033203125 41.00500106811523 41.00500106811523 C 47.34033203125 34.66977691650391 54.31133270263672 28.91811180114746 61.72466659545898 23.9097785949707 C 69.20899963378906 18.85344505310059 77.20999908447266 14.510666847229 85.50555419921875 11.0018892288208 C 93.95444488525391 7.428333282470703 102.7961120605469 4.683666706085205 111.7847747802734 2.844333410263062 C 121.0078887939453 0.9570000171661377 130.5006713867188 0 139.9994506835938 0 C 149.4983367919922 0 158.9912261962891 0.9570000171661377 168.2144470214844 2.844333410263062 C 177.2033386230469 4.683666706085205 186.0449981689453 7.428333282470703 194.4940032958984 11.0018892288208 C 202.7896728515625 14.510666847229 210.7906646728516 18.85344505310059 218.2751159667969 23.9097785949707 C 225.6884460449219 28.91811180114746 232.6595611572266 34.66977691650391 238.9947814941406 41.00500106811523 C 245.3300018310547 47.3402214050293 251.0817718505859 54.31122207641602 256.0901184082031 61.72466659545898 C 261.1464538574219 69.20888519287109 265.4893188476562 77.20999908447266 268.9981079101562 85.50555419921875 C 272.5716552734375 93.9542236328125 275.3162231445312 102.7958908081055 277.1556701660156 111.7847747802734 C 279.0429992675781 121.0078887939453 280 130.5006713867188 280 139.9994506835938 C 280 149.4983367919922 279.0429992675781 158.9913330078125 277.1556701660156 168.2144470214844 C 275.3162231445312 177.2034454345703 272.5716552734375 186.0452270507812 268.9981079101562 194.4940032958984 C 265.4893188476562 202.78955078125 261.1464538574219 210.7906646728516 256.0901184082031 218.2751159667969 C 251.0818939208984 225.6884460449219 245.3301086425781 232.6595611572266 238.9947814941406 238.9947814941406 C 232.6595611572266 245.3301086425781 225.6884460449219 251.0818939208984 218.2751159667969 256.0901184082031 C 210.7906646728516 261.1464538574219 202.78955078125 265.4893188476562 194.4940032958984 268.9981079101562 C 186.0452270507812 272.5716552734375 177.2034454345703 275.3162231445312 168.2144470214844 277.1556701660156 C 158.9913330078125 279.0429992675781 149.4983367919922 280 139.9994506835938 280 Z M 139.9994506835938 54.57500076293945 C 92.89622497558594 54.57500076293945 54.57500076293945 92.89622497558594 54.57500076293945 139.9994506835938 C 54.57500076293945 187.1032257080078 92.89622497558594 225.4250030517578 139.9994506835938 225.4250030517578 C 187.1032257080078 225.4250030517578 225.4250030517578 187.1032257080078 225.4250030517578 139.9994506835938 C 225.4250030517578 92.89622497558594 187.1032257080078 54.57500076293945 139.9994506835938 54.57500076293945 Z" stroke="none" fill="#acacac"/>
    </g>
    <path id="Click_here_to_Upload_Logo_Click_here_to_Upload_Logo" data-name="Click here to Upload Logo        Click here to Upload Logo" d="M117.3,236.359a5.768,5.768,0,0,1-2.3-2.4,8.714,8.714,0,0,1-.954-3.726l-.031-.648a8.759,8.759,0,0,1,.576-3.8,5.711,5.711,0,0,1,2.048-2.6,6.416,6.416,0,0,1,6.456-.322,5.768,5.768,0,0,1,2.313,2.372,8.526,8.526,0,0,1,.967,3.666l.034.718a8.719,8.719,0,0,1-.591,3.812,5.755,5.755,0,0,1-2.063,2.608,6.007,6.007,0,0,1-3.182,1.028q-.178.009-.353.009A5.922,5.922,0,0,1,117.3,236.359Zm2.645-11.746a2.636,2.636,0,0,0-2.256,1.294,6.153,6.153,0,0,0-.651,3.484l.034.707a6.117,6.117,0,0,0,.985,3.43,2.891,2.891,0,0,0,4.658-.21,6.043,6.043,0,0,0,.662-3.474l-.034-.708a6.189,6.189,0,0,0-.985-3.41,2.631,2.631,0,0,0-2.235-1.117Q120.035,224.609,119.945,224.614Zm-18.323,11.71,1.262-9.509a2.762,2.762,0,0,0-.4-2.153,2.618,2.618,0,0,0-1.788-.9q-2.5-.333-2.893,2.295l-1.272,9.588-2.978-.394,1.258-9.49a4.9,4.9,0,0,1,1.976-3.545,5.75,5.75,0,0,1,4.225-.839,5.819,5.819,0,0,1,3.831,1.867,4.816,4.816,0,0,1,1.026,3.871l-1.273,9.6Zm27.508-2.464,4.385-.77-2.093-11.926,2.95-.518,2.092,11.926,4.326-.759.419,2.388-11.66,2.047ZM83.8,232.924a6.56,6.56,0,0,1-2.628-1.321,4.414,4.414,0,0,1-1.408-2.138,4.745,4.745,0,0,1,0-2.6,4.171,4.171,0,0,1,2.282-2.877,6.091,6.091,0,0,1,4.229-.147l2.536.678,1.321-4.948,2.893.772-3.748,14.043Zm-.093-6.678a2.03,2.03,0,0,0-1.015,1.382,2.392,2.392,0,0,0,.162,1.831,2.346,2.346,0,0,0,1.5,1.1l2.652.708,1.177-4.407-2.585-.69a3.685,3.685,0,0,0-.946-.137A2.062,2.062,0,0,0,83.711,226.246Zm64.185,3.668,6.356-2.208-1.137-3.273-5.431,1.888-.77-2.216,5.431-1.888-1.278-3.677-6.374,2.215-.79-2.272,9.2-3.2,4.77,13.729-9.184,3.19Zm-75.67-.767L76.7,217.876,70.8,215.528l.888-2.235,8.692,3.453L75.01,230.253Zm90.066-3.227a3.959,3.959,0,0,1-2.675-2.306,4.47,4.47,0,0,1-.506-2.513,4.388,4.388,0,0,1,1.063-2.276l-5.425-3.965-.061-.126,2.89-1.407,4.778,3.594,2.146-1.044-2.328-4.784,2.693-1.31,6.357,13.07-4.856,2.362a7.124,7.124,0,0,1-3.076.82A4.271,4.271,0,0,1,162.292,225.921Zm1.1-6.8a2.472,2.472,0,0,0-1.32,1.28,2.049,2.049,0,0,0,.136,1.693,2.19,2.19,0,0,0,1.232,1.2,2.429,2.429,0,0,0,1.869-.254l2.163-1.052-1.908-3.923ZM58.615,223.1a6.008,6.008,0,0,1-2.429-2.3,5.758,5.758,0,0,1-.737-3.242,8.723,8.723,0,0,1,1.1-3.685l.309-.571a8.784,8.784,0,0,1,2.451-2.954,5.717,5.717,0,0,1,3.1-1.168,6.415,6.415,0,0,1,5.7,3.056,5.767,5.767,0,0,1,.758,3.225A8.52,8.52,0,0,1,67.8,219.1l-.341.633a8.715,8.715,0,0,1-2.472,2.96,5.756,5.756,0,0,1-3.113,1.17q-.172.01-.343.01A6.081,6.081,0,0,1,58.615,223.1Zm3.3-11.052a6.156,6.156,0,0,0-2.355,2.649l-.336.624a6.11,6.11,0,0,0-.927,3.446,2.891,2.891,0,0,0,4.1,2.224,6.054,6.054,0,0,0,2.36-2.635l.336-.625A6.184,6.184,0,0,0,66,214.306a2.661,2.661,0,0,0-1.492-2.2,2.862,2.862,0,0,0-1.366-.372A2.663,2.663,0,0,0,61.912,212.052Zm111.117,7.01,5.659-3.639-1.874-2.913-4.836,3.11-1.27-1.973,4.836-3.11-2.106-3.274-5.675,3.651-1.3-2.024,8.193-5.271,7.863,12.223-8.176,5.261ZM44.37,213.837l4.1-14.968,2.581,1.865-.936,3.018,4.255,3.075,2.563-1.843,2.581,1.864-12.9,8.615Zm3.276-2.165,4.65-3.353-2.946-2.128Zm129.177-9.533,2.3-1.921,3.995,4.78,4.48-3.745-3.994-4.78,2.3-1.92,9.32,11.153-2.3,1.92-3.777-4.519-4.482,3.745,3.777,4.519-2.3,1.921Zm-142.6,3.269a6.792,6.792,0,0,1-1.9-2.979,6.026,6.026,0,0,1-.035-3.406,7.568,7.568,0,0,1,1.864-3.216l.458-.487a7.589,7.589,0,0,1,3.077-2.052,5.965,5.965,0,0,1,3.388-.169,6.829,6.829,0,0,1,3.094,1.708l3.278,3.086-9.964,10.58Zm5.595-9.813a5.186,5.186,0,0,0-2.942,1.74l-.527.56a5.27,5.27,0,0,0-1.634,3.075,3.244,3.244,0,0,0,1.171,2.673l1.075,1.012,6.652-7.063-1.054-.993a3.366,3.366,0,0,0-2.329-1.033A3.036,3.036,0,0,0,39.813,195.594Zm160.134-4.3-9.6-1.094,2.282-2.737,6.869.866-.291-2.271-3.189-2.659,1.917-2.3,11.163,9.307-1.917,2.3-5.06-4.219.544,2.169,1.3,5.907-2.359,2.829Zm-178.729-.061,9.652-7.344-3.851-5.06,1.914-1.457L34.6,184.81l-11.565,8.8ZM207.234,184.7l1.612-2.523a3.038,3.038,0,0,0,2.143.439,2.9,2.9,0,0,0,1.639-1.387,2.547,2.547,0,0,0,.3-2.467,6.013,6.013,0,0,0-2.394-2.435l-.926-.592a6.436,6.436,0,0,0-3.286-1.252,2.5,2.5,0,0,0-2.129,1.311,2.955,2.955,0,0,0-.58,2.088,2.868,2.868,0,0,0,1.231,1.716l-1.612,2.523a5.143,5.143,0,0,1-2.18-3.448,6.086,6.086,0,0,1,1.082-4.2,5.471,5.471,0,0,1,3.953-2.692,7.714,7.714,0,0,1,5.215,1.431l.75.479a8.706,8.706,0,0,1,2.714,2.611,5.543,5.543,0,0,1,.929,3.1,6.593,6.593,0,0,1-4.316,5.837,4.836,4.836,0,0,1-1.357.194A6.142,6.142,0,0,1,207.234,184.7ZM15.078,181.375a6.4,6.4,0,0,1-3.3-5.555,5.758,5.758,0,0,1,1.04-3.158,8.7,8.7,0,0,1,2.845-2.588l.559-.331a8.776,8.776,0,0,1,3.623-1.267,5.707,5.707,0,0,1,3.254.594,6.414,6.414,0,0,1,3.306,5.553,5.768,5.768,0,0,1-1.012,3.154,8.532,8.532,0,0,1-2.788,2.571l-.617.367a8.73,8.73,0,0,1-3.645,1.262q-.322.03-.633.03A5.611,5.611,0,0,1,15.078,181.375Zm2.739-9.048-.609.361a6.119,6.119,0,0,0-2.57,2.476A2.892,2.892,0,0,0,17,179.182a6.056,6.056,0,0,0,3.38-1.042l.609-.362a6.2,6.2,0,0,0,2.554-2.466,2.866,2.866,0,0,0-2.346-4.041q-.107-.007-.216-.007A6.482,6.482,0,0,0,17.817,172.327Zm188.694-4.9,1.372-2.662,12.919,6.656-1.371,2.662Zm-195.975.913a5.432,5.432,0,0,1-3.067-1,6.106,6.106,0,0,1-2.039-2.656,6.068,6.068,0,0,1-.438-4.2,5.266,5.266,0,0,1,2.633-2.988l1.135,2.685A2.9,2.9,0,0,0,7.422,161.7a2.82,2.82,0,0,0,.2,1.959,2.655,2.655,0,0,0,1.963,1.7,6.032,6.032,0,0,0,3.459-.584l.855-.361a5.755,5.755,0,0,0,2.844-2.145,2.975,2.975,0,0,0,.085-2.8,3.324,3.324,0,0,0-1.6-1.936l-2.308.975,1.062,2.51-2.033.859-2.226-5.269,5.342-2.258a5.193,5.193,0,0,1,2.273,1.521,9.573,9.573,0,0,1,1.767,2.808,6.487,6.487,0,0,1,.53,3.369A5.485,5.485,0,0,1,18.287,165a8.413,8.413,0,0,1-3.084,2.165l-.91.384a9.129,9.129,0,0,1-3.543.8Q10.643,168.345,10.536,168.342ZM208.819,163.1l3.587-8.638,13.423,5.572-1.148,2.766-11.2-4.651-2.437,5.873Zm13.576-7.858.812-2.882a3.038,3.038,0,0,0,2.178-.2,2.9,2.9,0,0,0,1.167-1.8,2.546,2.546,0,0,0-.425-2.449,6.02,6.02,0,0,0-3-1.639l-1.057-.3a6.428,6.428,0,0,0-3.508-.247,2.5,2.5,0,0,0-1.658,1.871,2.952,2.952,0,0,0,.048,2.165,2.856,2.856,0,0,0,1.675,1.287l-.814,2.883a5.145,5.145,0,0,1-3.084-2.669,6.079,6.079,0,0,1-.179-4.33,5.466,5.466,0,0,1,3-3.721,7.714,7.714,0,0,1,5.407-.141l.855.241a8.709,8.709,0,0,1,3.354,1.714,5.531,5.531,0,0,1,1.786,2.7,6.6,6.6,0,0,1-2.441,6.836,5.087,5.087,0,0,1-2.835.8A7.34,7.34,0,0,1,222.4,155.244ZM4.91,153.946a5.765,5.765,0,0,1-2.989-1.458,6.408,6.408,0,0,1-1.683-6.235,5.754,5.754,0,0,1,1.849-2.764,8.7,8.7,0,0,1,3.436-1.729l.626-.169a8.773,8.773,0,0,1,3.831-.249,5.715,5.715,0,0,1,2.974,1.446,6.414,6.414,0,0,1,1.7,6.238,5.773,5.773,0,0,1-1.823,2.766,8.516,8.516,0,0,1-3.374,1.728l-.694.187a9.628,9.628,0,0,1-2.514.356A7.517,7.517,0,0,1,4.91,153.946Zm2.079-9.439-.684.185a6.111,6.111,0,0,0-3.14,1.7,2.667,2.667,0,0,0-.538,2.565,2.669,2.669,0,0,0,1.739,1.939,6.042,6.042,0,0,0,3.535-.1l.684-.184a6.192,6.192,0,0,0,3.121-1.691,2.866,2.866,0,0,0-1.175-4.522,4.169,4.169,0,0,0-1.381-.212A8.535,8.535,0,0,0,6.989,144.508ZM219.9,97.44a5.707,5.707,0,0,1-2.952-1.491,6.412,6.412,0,0,1-1.6-6.263,5.768,5.768,0,0,1,1.865-2.738,8.508,8.508,0,0,1,3.4-1.675l.7-.177a8.751,8.751,0,0,1,3.853-.178,5.77,5.77,0,0,1,2.965,1.5,6.407,6.407,0,0,1,1.586,6.261,5.753,5.753,0,0,1-1.891,2.734,8.717,8.717,0,0,1-3.464,1.675l-.628.16a9.848,9.848,0,0,1-2.413.321A7.509,7.509,0,0,1,219.9,97.44Zm2.227-9.42-.687.175a6.191,6.191,0,0,0-3.147,1.642,2.864,2.864,0,0,0,1.1,4.539,6.152,6.152,0,0,0,3.543-.054l.688-.174A6.119,6.119,0,0,0,226.8,92.5a2.891,2.891,0,0,0-1.13-4.523,4.185,4.185,0,0,0-1.484-.243A8.6,8.6,0,0,0,222.13,88.02ZM6.979,92.38l-.851-.255A8.722,8.722,0,0,1,2.8,90.359a5.541,5.541,0,0,1-1.743-2.725,5.918,5.918,0,0,1,.1-3.3,5.918,5.918,0,0,1,2.452-3.5,5.529,5.529,0,0,1,4.134-.618l-.858,2.869a3.032,3.032,0,0,0-2.18.166,2.9,2.9,0,0,0-1.2,1.783,2.547,2.547,0,0,0,.386,2.455,6.01,6.01,0,0,0,2.97,1.687l1.052.314a6.436,6.436,0,0,0,3.5.3,2.5,2.5,0,0,0,1.688-1.844,2.957,2.957,0,0,0-.014-2.167,2.86,2.86,0,0,0-1.653-1.313L12.3,81.6a5.144,5.144,0,0,1,3.042,2.718,6.084,6.084,0,0,1,.111,4.331,5.472,5.472,0,0,1-3.064,3.674,6.29,6.29,0,0,1-2.559.511A9.984,9.984,0,0,1,6.979,92.38Zm205.813-9.529a9.606,9.606,0,0,1-1.721-2.836,6.486,6.486,0,0,1-.475-3.377,5.488,5.488,0,0,1,1.4-2.931,8.4,8.4,0,0,1,3.118-2.115l.916-.37a8.923,8.923,0,0,1,3.769-.73,5.428,5.428,0,0,1,3.051,1.05,6.965,6.965,0,0,1,2.365,6.9,5.275,5.275,0,0,1-2.681,2.946l-1.091-2.7a2.9,2.9,0,0,0,1.362-1.5,2.826,2.826,0,0,0-.167-1.962A2.657,2.657,0,0,0,220.7,73.49a6.036,6.036,0,0,0-3.468.529l-.86.347a5.749,5.749,0,0,0-2.878,2.1,2.972,2.972,0,0,0-.129,2.8,3.318,3.318,0,0,0,1.567,1.962l2.323-.938-1.02-2.526,2.047-.826,2.141,5.3-5.379,2.172A5.21,5.21,0,0,1,212.792,82.851Zm-208.4-7.5L5.586,72.6l11.125,4.829L19.243,71.6l2.207.958-3.724,8.579ZM9.6,64.059l1.414-2.641,12.813,6.861-1.414,2.641Zm197.636,5.488a6.414,6.414,0,0,1-3.218-5.606,5.782,5.782,0,0,1,1.063-3.138,8.523,8.523,0,0,1,2.828-2.525l.624-.358a8.742,8.742,0,0,1,3.663-1.2,5.76,5.76,0,0,1,3.26.654,6.4,6.4,0,0,1,3.206,5.607,5.763,5.763,0,0,1-1.089,3.141,8.719,8.719,0,0,1-2.888,2.542l-.562.322a8.8,8.8,0,0,1-3.644,1.21q-.274.022-.541.022A5.611,5.611,0,0,1,207.232,69.547ZM210.1,60.52l-.615.352a6.194,6.194,0,0,0-2.592,2.426,2.866,2.866,0,0,0,2.281,4.077,6.147,6.147,0,0,0,3.4-1l.616-.352a6.12,6.12,0,0,0,2.609-2.435,2.893,2.893,0,0,0-2.3-4.054q-.146-.013-.3-.013A6.517,6.517,0,0,0,210.1,60.52ZM19.12,62.42l-.742-.49a8.691,8.691,0,0,1-2.673-2.653,5.533,5.533,0,0,1-.88-3.113,5.916,5.916,0,0,1,1.048-3.131,5.925,5.925,0,0,1,3.36-2.637A5.525,5.525,0,0,1,23.368,51l-1.651,2.5a3.039,3.039,0,0,0-2.136-.472,2.906,2.906,0,0,0-1.66,1.361,2.544,2.544,0,0,0-.341,2.461,6.014,6.014,0,0,0,2.355,2.474l.916.606a6.436,6.436,0,0,0,3.266,1.3,2.5,2.5,0,0,0,2.149-1.278,2.955,2.955,0,0,0,.614-2.077,2.862,2.862,0,0,0-1.2-1.735l1.651-2.5a5.141,5.141,0,0,1,2.125,3.482A6.083,6.083,0,0,1,28.307,61.3a5.47,5.47,0,0,1-3.995,2.629,5.792,5.792,0,0,1-.7.042A8.2,8.2,0,0,1,19.12,62.42Zm176.864-8.8L207.687,45l1.776,2.411L199.7,54.6l3.771,5.12-1.938,1.426ZM21.594,45.279l1.953-2.269,4.994,4.3-.51-2.178L26.823,39.2l2.4-2.792,1.529,8.125,9.585,1.243-2.324,2.7-6.854-.974.255,2.274,3.148,2.709-1.954,2.269Zm168.051-.051a6.837,6.837,0,0,1-3.068-1.755l-3.228-3.138,10.128-10.424,3.208,3.116a6.8,6.8,0,0,1,1.858,3.009,6.031,6.031,0,0,1-.018,3.406,7.579,7.579,0,0,1-1.914,3.187l-.465.48a7.594,7.594,0,0,1-3.109,2,6.113,6.113,0,0,1-1.9.307A5.986,5.986,0,0,1,189.645,45.227ZM187.172,40.7l1.039,1.008a3.248,3.248,0,0,0,2.725,1.048,5.185,5.185,0,0,0,2.969-1.693l.536-.552a5.267,5.267,0,0,0,1.682-3.049,3.242,3.242,0,0,0-1.129-2.691l-1.06-1.03ZM35.708,30.194l2.328-1.884,3.7,4.579,4.54-3.674-3.706-4.579L44.9,22.753l9.144,11.3-2.328,1.884L47.8,31.092l-4.54,3.674,3.919,4.842-2.328,1.884Zm144.074,7.245.983-3-4.207-3.141-2.592,1.8-2.552-1.9,13.03-8.41,2.224,1.659-4.334,14.9Zm-1.126-7.6,2.912,2.173,1.791-5.453ZM48.574,20.253l8.258-5.131,1.281,2.061L52.4,20.732l1.827,2.942,4.885-3.034,1.238,1.993-4.884,3.034,2.053,3.307,5.733-3.561,1.268,2.044L56.242,32.6ZM165.31,28a6.045,6.045,0,0,1-2.391-2.331,5.78,5.78,0,0,1-.706-3.237,8.541,8.541,0,0,1,1.121-3.621l.351-.627a8.726,8.726,0,0,1,2.52-2.921,5.76,5.76,0,0,1,3.131-1.12,6.408,6.408,0,0,1,5.637,3.152,5.753,5.753,0,0,1,.686,3.253,8.709,8.709,0,0,1-1.163,3.667l-.317.567a8.79,8.79,0,0,1-2.5,2.915,5.727,5.727,0,0,1-3.113,1.119q-.132.006-.264.006A6.07,6.07,0,0,1,165.31,28Zm3.46-10.995a6.047,6.047,0,0,0-2.4,2.6l-.345.618a6.191,6.191,0,0,0-.971,3.414,2.865,2.865,0,0,0,4.055,2.319,6.152,6.152,0,0,0,2.4-2.611l.346-.618a6.11,6.11,0,0,0,.98-3.431,2.668,2.668,0,0,0-1.459-2.177,2.885,2.885,0,0,0-1.416-.4A2.693,2.693,0,0,0,168.77,17.006ZM59.913,13.456,64.8,11.168a6.11,6.11,0,0,1,4.085-.643,3.964,3.964,0,0,1,2.64,2.347A4.465,4.465,0,0,1,72,15.392a4.391,4.391,0,0,1-1.1,2.26L76.263,21.7l.059.126-2.912,1.362-4.723-3.666-2.161,1.011,2.253,4.819-2.713,1.27Zm5.919-.09-2.179,1.019L65.5,18.336l2.188-1.024a2.47,2.47,0,0,0,1.339-1.259,2.054,2.054,0,0,0-.11-1.7A2.2,2.2,0,0,0,67.7,13.14a1.73,1.73,0,0,0-.6-.1A3.037,3.037,0,0,0,65.832,13.366Zm84.9,7.607,5.582-13.419L159.081,8.7l-4.659,11.2,5.871,2.443-.924,2.221ZM73.456,7.46l9.235-3.042.759,2.3-6.391,2.1,1.084,3.291,5.461-1.8.734,2.227-5.461,1.8,1.218,3.7L86.5,15.932l.753,2.285L78,21.265Zm64.624,9.7,3.966-13.982L147.5,4.722a6.568,6.568,0,0,1,2.606,1.362,4.419,4.419,0,0,1,1.375,2.159,4.746,4.746,0,0,1-.041,2.6,4.176,4.176,0,0,1-2.327,2.842,6.092,6.092,0,0,1-4.231.081l-2.525-.716-1.4,4.926Zm4.94-6.442,2.574.73a2.635,2.635,0,0,0,1.9-.043,2.031,2.031,0,0,0,1.035-1.367,2.4,2.4,0,0,0-.134-1.833,2.348,2.348,0,0,0-1.486-1.127l-2.641-.75ZM94.874,4.259l-4.338.691-.382-2.4L101.846.692l.383,2.4-4.4.7,1.9,11.957-2.957.471ZM130.149,16a5.823,5.823,0,0,1-3.8-1.928,4.818,4.818,0,0,1-.966-3.887L126.807.611l2.962.441-1.41,9.488a2.765,2.765,0,0,0,.37,2.16,2.62,2.62,0,0,0,1.775.924q2.5.372,2.928-2.249l1.423-9.568,2.972.442-1.408,9.468a4.9,4.9,0,0,1-2.031,3.513,5.216,5.216,0,0,1-3.026.867A8.283,8.283,0,0,1,130.149,16Zm-22.014-1.837a5.765,5.765,0,0,1-2.276-2.408,8.5,8.5,0,0,1-.91-3.681l-.024-.718a8.724,8.724,0,0,1,.649-3.8,5.754,5.754,0,0,1,2.1-2.576,6.406,6.406,0,0,1,6.455-.213A5.765,5.765,0,0,1,116.4,3.2a8.711,8.711,0,0,1,.9,3.741l.022.648a8.777,8.777,0,0,1-.635,3.786,5.712,5.712,0,0,1-2.088,2.566,6.01,6.01,0,0,1-3.209.984q-.123,0-.243,0A5.98,5.98,0,0,1,108.135,14.167Zm2.822-11.689a2.669,2.669,0,0,0-2.287,1.249,6.042,6.042,0,0,0-.715,3.465l.023.707a6.2,6.2,0,0,0,.932,3.426,2.866,2.866,0,0,0,4.67-.109,6.159,6.159,0,0,0,.705-3.474l-.023-.708a6.119,6.119,0,0,0-.932-3.445,2.647,2.647,0,0,0-2.25-1.113Z" transform="translate(25.15 23.263)" fill="#838383"/>
    <circle id="Ellipse_3" data-name="Ellipse 3" cx="5.739" cy="5.739" r="5.739" transform="translate(244.961 137.167)" fill="#838383"/>
    <circle id="Ellipse_3_copy" data-name="Ellipse 3 copy" cx="5.739" cy="5.739" r="5.739" transform="translate(24.815 134.971)" fill="#838383"/>
    <path id="Forma_1" data-name="Forma 1" d="M142.193,134.013a5.445,5.445,0,1,1-5.445,5.445A5.445,5.445,0,0,1,142.193,134.013Zm44.7,25.485a16.769,16.769,0,0,0-9.378-4.463V127.358a10.883,10.883,0,0,0-3.1-7.562,10.563,10.563,0,0,0-7.563-3.1H122.99a10.886,10.886,0,0,0-7.563,3.1,10.567,10.567,0,0,0-3.1,7.562v45.147a10.893,10.893,0,0,0,3.1,7.563,10.569,10.569,0,0,0,7.563,3.1h42.427A16,16,0,0,0,186.891,159.5Zm-70.561-32.14a6.332,6.332,0,0,1,1.967-4.613,6.634,6.634,0,0,1,4.689-1.966h43.864a6.715,6.715,0,0,1,6.656,6.655v23.594l-11.193-11.192a2.031,2.031,0,0,0-2.874,0l-16.865,16.939-11.418-11.494a2.03,2.03,0,0,0-2.874,0l-11.949,12.1V127.358Zm6.58,51.953v-.152a6.636,6.636,0,0,1-4.689-1.966,6.9,6.9,0,0,1-1.891-4.689v-9.377l13.39-13.461,11.418,11.418a2.1,2.1,0,0,0,2.874,0l16.866-16.938,11.042,11.116-.681.227a7.143,7.143,0,0,0-.983.3c-.3.076-.605.227-.907.3a2.243,2.243,0,0,0-.605.3,7.219,7.219,0,0,0-.757.378l-1.135.681c-.226.152-.378.227-.605.378-.15.076-.226.152-.378.227a9.108,9.108,0,0,0-1.815,1.588,16,16,0,0,0-4.689,11.343,16.67,16.67,0,0,0,.378,3.328c.076.3.152.529.227.83.227.757.454,1.512.757,2.269v.076a13.779,13.779,0,0,0,.983,1.814h-38.8Zm61.034,0a11.965,11.965,0,0,1-16.712.152c-.3-.3-.6-.681-.907-.983-.226-.227-.454-.529-.681-.757a7.164,7.164,0,0,1-.756-1.285c-.152-.3-.3-.529-.454-.83a6.374,6.374,0,0,1-.379-1.285c-.075-.3-.226-.681-.3-.983a12.5,12.5,0,0,1-.227-2.421,12.145,12.145,0,0,1,3.479-8.47,11.7,11.7,0,0,1,8.47-3.478,12.145,12.145,0,0,1,8.47,3.478,11.822,11.822,0,0,1,3.479,8.47,12.1,12.1,0,0,1-3.483,8.392Zm-7.033-16.561a2.6,2.6,0,0,0-.68-.454,2.206,2.206,0,0,0-.681-.152H175.4a2.2,2.2,0,0,0-.68.152,1.775,1.775,0,0,0-.681.454l-4.689,4.689a2.032,2.032,0,0,0,2.873,2.873l1.21-1.209v8.321a2.042,2.042,0,0,0,4.084,0V169.1l1.21,1.209a2.032,2.032,0,1,0,2.874-2.873Z" transform="translate(-5.881 -11.435)" fill="#acacac" fill-rule="evenodd"/>
  </g>
</svg>
