<svg xmlns="http://www.w3.org/2000/svg" width="284" height="284" viewBox="0 0 284 284">
  <defs>
    <style>
      .cls-1 {
        fill: #efefef;
        stroke: #acacac;
        stroke-width: 4px;
      }

      .cls-1, .cls-2, .cls-4 {
        fill-rule: evenodd;
      }

      .cls-2, .cls-3 {
        fill: #838383;
      }

      .cls-4 {
        fill: #acacac;
      }
    </style>
  </defs>
  <path id="Ellipse_1_copy" data-name="Ellipse 1 copy" class="cls-1" d="M150,10A140,140,0,1,1,10,150,140,140,0,0,1,150,10Zm-0.767,55.335A83.584,83.584,0,1,1,65.65,148.918,83.584,83.584,0,0,1,149.233,65.335Z" transform="translate(-8 -8)"/>
  <path id="_Click_here_to_Upload_Photo_Click_here_to_Upload_Photo" data-name="  Click here to Upload Photo       Click here to Upload Photo" class="cls-2" d="M44.4,119.41a2.8,2.8,0,0,1,1.66,1.228,2.89,2.89,0,0,1,.085,2.116,2.438,2.438,0,0,1-1.588,1.857,6.288,6.288,0,0,1-3.433-.18l-1.038-.273a5.873,5.873,0,0,1-2.958-1.549,2.487,2.487,0,0,1-.458-2.385,2.839,2.839,0,0,1,1.109-1.782,2.97,2.97,0,0,1,2.124-.234l0.744-2.831a5.408,5.408,0,0,0-4.018.74,6.45,6.45,0,0,0-2.266,6.724,5.41,5.41,0,0,0,1.792,2.605,8.515,8.515,0,0,0,3.308,1.616l0.84,0.22a7.542,7.542,0,0,0,5.282-.231,5.346,5.346,0,0,0,2.871-3.69,5.945,5.945,0,0,0-.251-4.227,5.026,5.026,0,0,0-3.062-2.555Zm-6.147-11.347-1.066,2.726,13.232,5.172,3.328-8.516-2.19-.856L49.3,112.378Zm4.874-11.109-1.28,2.632L54.626,105.8l1.28-2.633Zm14.125-5.74A2.8,2.8,0,0,1,58.5,92.861a2.89,2.89,0,0,1-.517,2.053,2.441,2.441,0,0,1-2.048,1.333A6.291,6.291,0,0,1,52.694,95.1l-0.919-.555a5.878,5.878,0,0,1-2.4-2.322,2.487,2.487,0,0,1,.235-2.417,2.837,2.837,0,0,1,1.567-1.4,2.968,2.968,0,0,1,2.1.376L54.8,86.285a5.4,5.4,0,0,0-4.063-.426,6.449,6.449,0,0,0-4.074,5.809,5.412,5.412,0,0,0,.983,3.005,8.515,8.515,0,0,0,2.717,2.485L51.1,97.608a7.542,7.542,0,0,0,5.132,1.271,5.346,5.346,0,0,0,3.8-2.728,5.946,5.946,0,0,0,.954-4.126,5.028,5.028,0,0,0-2.215-3.316Zm11.723-8,2.154-2.737-9.414-.8L59.879,71.81l-2.227,2.829,1.434,5.735,0.591,2.1L54.616,78.5l-1.81,2.3,11.164,8.787,1.81-2.3-3.19-2.511-0.347-2.21Zm5.541-25.436-2.184,1.949,3.834,4.295-4.258,3.8-3.834-4.295-2.184,1.949,9.461,10.6,2.184-1.949L73.483,69.59l4.258-3.8L81.8,70.331l2.184-1.949Zm13.727-2.745-4.614,3.209L81.7,55.467l5.4-3.754-1.354-1.947-7.8,5.426,8.111,11.664,7.819-5.437-1.342-1.931-5.416,3.766-2.172-3.124,4.615-3.209Zm14.078,1.736,2.769-1.486-0.065-.12-5.453-3.663a4.3,4.3,0,0,0,.95-2.265,4.379,4.379,0,0,0-.592-2.434,3.873,3.873,0,0,0-2.7-2.148,5.968,5.968,0,0,0-3.953.847L88.626,48,95.343,60.52l2.579-1.384-2.459-4.583,2.055-1.1Zm-10-8.067L94.4,47.595a2.373,2.373,0,0,1,1.816-.321,2.147,2.147,0,0,1,1.25,1.123,2.006,2.006,0,0,1,.2,1.649,2.417,2.417,0,0,1-1.239,1.3l-2.081,1.116ZM111.5,43.659l-5.226,2.069-1.246-3.148,6.115-2.42-0.872-2.2-8.837,3.5,5.229,13.21,8.854-3.5-0.865-2.187L108.517,51.4l-1.4-3.538,5.226-2.068Zm17.217-10.487L117.423,35.7l0.518,2.314,4.189-.938,2.587,11.55,2.856-.64-2.586-11.55,4.246-.951ZM144.1,38.309a8.5,8.5,0,0,0-1.111-3.593,5.627,5.627,0,0,0-2.365-2.23,6.262,6.262,0,0,0-6.283.614,5.626,5.626,0,0,0-1.888,2.645,8.522,8.522,0,0,0-.394,3.749l0.068,0.7a8.343,8.343,0,0,0,1.12,3.533,5.64,5.64,0,0,0,2.372,2.2,6.271,6.271,0,0,0,6.287-.624,5.577,5.577,0,0,0,1.875-2.634,8.569,8.569,0,0,0,.381-3.733Zm-2.886.968a6.023,6.023,0,0,1-.468,3.433,2.8,2.8,0,0,1-4.549.4,6.05,6.05,0,0,1-1.125-3.282l-0.067-.69a5.9,5.9,0,0,1,.479-3.424,2.826,2.826,0,0,1,4.536-.428,5.973,5.973,0,0,1,1.127,3.3Zm19.607-7.158L160.1,41.546q-0.24,2.585-2.7,2.394a2.564,2.564,0,0,1-1.794-.78,2.707,2.707,0,0,1-.509-2.08l0.723-9.349-2.919-.226-0.73,9.437a4.709,4.709,0,0,0,1.209,3.724,5.69,5.69,0,0,0,3.839,1.618,5.626,5.626,0,0,0,4.079-1.045,4.788,4.788,0,0,0,1.738-3.565l0.722-9.33Zm10.612,10.944a5.953,5.953,0,0,0,4.118-.385,4.08,4.08,0,0,0,2.063-2.939,4.637,4.637,0,0,0-.148-2.535,4.311,4.311,0,0,0-1.5-2.005,6.413,6.413,0,0,0-2.64-1.139l-5.429-1.114L165.05,46.862l2.867,0.588,1.006-4.9ZM170.3,35.856l2.629,0.539a2.3,2.3,0,0,1,1.53.991,2.343,2.343,0,0,1,.262,1.777,1.985,1.985,0,0,1-.911,1.407,2.569,2.569,0,0,1-1.844.179l-2.562-.526Zm14.553,1.211-2.782-.912-4.428,13.5,8.687,2.85,0.733-2.234-5.906-1.937Zm16.192,13.92a8.51,8.51,0,0,0,.848-3.663,5.627,5.627,0,0,0-.922-3.117,6.26,6.26,0,0,0-5.738-2.631,5.63,5.63,0,0,0-2.964,1.336,8.537,8.537,0,0,0-2.226,3.042l-0.293.639a8.314,8.314,0,0,0-.81,3.616,5.642,5.642,0,0,0,.94,3.1,6.274,6.274,0,0,0,5.748,2.624,5.581,5.581,0,0,0,2.945-1.333,8.574,8.574,0,0,0,2.208-3.035Zm-2.981-.615a6.017,6.017,0,0,1-2.132,2.731,2.8,2.8,0,0,1-4.133-1.943,6.054,6.054,0,0,1,.68-3.4l0.288-.63a5.912,5.912,0,0,1,2.138-2.718,2.827,2.827,0,0,1,4.136,1.912,5.979,5.979,0,0,1-.688,3.42Zm9.206,13.08,2.64,1.65,3.022-14.866-2.3-1.438-12.016,9.243,2.639,1.65,2.38-1.965,4.352,2.721Zm2.608-10.89-1.305,5.456-3.011-1.883Zm4.479,16.182a6.687,6.687,0,0,0,3.135,1.453,5.837,5.837,0,0,0,3.292-.4,7.427,7.427,0,0,0,2.86-2.212l0.413-.506a7.4,7.4,0,0,0,1.6-3.264,5.89,5.89,0,0,0-.268-3.319,6.639,6.639,0,0,0-2.061-2.774l-3.385-2.766-8.99,11Zm7.466-9.184a3.167,3.167,0,0,1,1.326,2.526,5.152,5.152,0,0,1-1.383,3.11l-0.475.582a5.07,5.07,0,0,1-2.749,1.9,3.18,3.18,0,0,1-2.743-.792l-1.095-.9,6-7.344Zm9.991,19.117a5.957,5.957,0,0,0,3.5,2.2,4.079,4.079,0,0,0,3.424-1.08,4.637,4.637,0,0,0,1.425-2.1,4.317,4.317,0,0,0,.031-2.5,6.413,6.413,0,0,0-1.4-2.51L235.157,68.5,224.429,77.81l1.919,2.21,3.78-3.282Zm3.476-6.416,1.759,2.026A2.3,2.3,0,0,1,237.657,76a2.344,2.344,0,0,1-.872,1.571,1.987,1.987,0,0,1-1.578.563,2.569,2.569,0,0,1-1.574-.979l-1.715-1.975Zm15.743,17.16-1.618-2.439-4.8,3.183-3.156-4.756,4.8-3.183-1.618-2.439L232.8,87.641l1.619,2.439,5.073-3.366,3.156,4.757-5.074,3.366,1.619,2.439Zm1.189,17.342a8.515,8.515,0,0,0,2.984-2.288,5.634,5.634,0,0,0,1.27-2.992,6.263,6.263,0,0,0-2.756-5.68,5.629,5.629,0,0,0-3.136-.853,8.531,8.531,0,0,0-3.653.932l-0.632.307a8.336,8.336,0,0,0-2.925,2.276,5.644,5.644,0,0,0-1.244,2.989,6.271,6.271,0,0,0,2.767,5.68,5.587,5.587,0,0,0,3.121.845,8.579,8.579,0,0,0,3.633-.939Zm-1.91-2.37a6.017,6.017,0,0,1-3.382.751,2.8,2.8,0,0,1-1.954-4.127,6.055,6.055,0,0,1,2.688-2.194l0.623-.3a5.912,5.912,0,0,1,3.378-.739,2.826,2.826,0,0,1,1.976,4.106,5.971,5.971,0,0,1-2.705,2.2Zm12.6,12.292-3.788-10.934-2.241.776,1.406,4.056L247.1,114.458l0.958,2.766,11.184-3.875,1.425,4.113Zm-3.371,15.886a8.5,8.5,0,0,0,3.445-1.506,5.641,5.641,0,0,0,1.951-2.6,6.26,6.26,0,0,0-1.315-6.175,5.622,5.622,0,0,0-2.84-1.58,8.53,8.53,0,0,0-3.77.029l-0.687.146a8.334,8.334,0,0,0-3.385,1.509,5.638,5.638,0,0,0-1.925,2.6,6.272,6.272,0,0,0,1.325,6.178,5.586,5.586,0,0,0,2.828,1.568,8.565,8.565,0,0,0,3.752-.041Zm-1.286-2.759a6.027,6.027,0,0,1-3.464-.08,2.8,2.8,0,0,1-.908-4.476,6.059,6.059,0,0,1,3.136-1.486l0.678-.144a5.905,5.905,0,0,1,3.456.093,2.825,2.825,0,0,1,.934,4.459,5.974,5.974,0,0,1-3.154,1.49ZM253.888,180.1a2.8,2.8,0,0,1-1.666-1.219,2.886,2.886,0,0,1-.1-2.115,2.44,2.44,0,0,1,1.578-1.867,6.294,6.294,0,0,1,3.434.163l1.039,0.267a5.878,5.878,0,0,1,2.966,1.534,2.484,2.484,0,0,1,.47,2.382,2.834,2.834,0,0,1-1.1,1.788,2.964,2.964,0,0,1-2.123.245l-0.729,2.835a5.405,5.405,0,0,0,4.014-.761,6.452,6.452,0,0,0,2.231-6.736,5.4,5.4,0,0,0-1.807-2.595,8.5,8.5,0,0,0-3.316-1.6l-0.841-.217a7.548,7.548,0,0,0-5.281.259,5.346,5.346,0,0,0-2.851,3.7,5.943,5.943,0,0,0,.273,4.226,5.027,5.027,0,0,0,3.075,2.539Zm6.212,11.3,1.05-2.732-13.259-5.1-3.283,8.534,2.195,0.844,2.231-5.8Zm-4.817,11.138,1.266-2.639-12.808-6.146-1.267,2.639Zm-14.1,5.818a2.8,2.8,0,0,1-1.253-1.641,2.884,2.884,0,0,1,.506-2.056,2.44,2.44,0,0,1,2.041-1.344,6.294,6.294,0,0,1,3.248,1.127l0.921,0.55a5.877,5.877,0,0,1,2.412,2.309,2.486,2.486,0,0,1-.223,2.419,2.843,2.843,0,0,1-1.559,1.4,2.968,2.968,0,0,1-2.106-.366l-1.5,2.514a5.406,5.406,0,0,0,4.066.4,6.45,6.45,0,0,0,4.043-5.83,5.406,5.406,0,0,0-1-3,8.52,8.52,0,0,0-2.729-2.471l-0.746-.445a7.544,7.544,0,0,0-5.139-1.244,5.346,5.346,0,0,0-3.782,2.748,5.942,5.942,0,0,0-.932,4.131,5.027,5.027,0,0,0,2.232,3.3Zm-11.682,8.058-2.14,2.749,9.418,0.754,1.882,7.858,2.212-2.84-1.464-5.728-0.6-2.1,5.081,3.956,1.8-2.31-11.209-8.728-1.8,2.31,3.2,2.493,0.358,2.209ZM224.1,241.874l2.174-1.96-3.857-4.275,4.239-3.823,3.856,4.274,2.174-1.961-9.517-10.548-2.173,1.96,4.078,4.521-4.238,3.824-4.079-4.521-2.173,1.961Zm-13.711,2.817,4.6-3.233,1.947,2.77-5.379,3.782,1.364,1.94,7.774-5.466-8.172-11.622-7.79,5.478,1.352,1.923,5.4-3.794,2.189,3.113-4.6,3.233ZM196.3,243.028l-2.761,1.5,0.066,0.12,5.472,3.633a4.291,4.291,0,0,0-.937,2.27,4.374,4.374,0,0,0,.6,2.431,3.875,3.875,0,0,0,2.715,2.134,5.967,5.967,0,0,0,3.948-.868l4.638-2.521-6.783-12.482-2.572,1.4,2.483,4.57-2.049,1.113Zm10.041,8.014-2.066,1.123a2.374,2.374,0,0,1-1.814.33,2.148,2.148,0,0,1-1.256-1.116,2,2,0,0,1-.207-1.648,2.417,2.417,0,0,1,1.232-1.308l2.075-1.128Zm-19.16,5.154,5.215-2.1,1.262,3.141-6.1,2.452,0.884,2.2,8.819-3.543-5.3-13.183-8.837,3.551L184,250.9l6.12-2.459,1.419,3.531-5.215,2.095Zm-17.128,10.571,11.278-2.591-0.53-2.311-4.185.961-2.649-11.535-2.853.655,2.649,11.536-4.241.974Zm-15.427-5.053a8.5,8.5,0,0,0,1.13,3.587,5.636,5.636,0,0,0,2.377,2.217,6.261,6.261,0,0,0,6.28-.647,5.631,5.631,0,0,0,1.874-2.656,8.527,8.527,0,0,0,.374-3.751l-0.072-.7a8.346,8.346,0,0,0-1.139-3.527,5.633,5.633,0,0,0-2.384-2.191,6.269,6.269,0,0,0-6.284.657,5.593,5.593,0,0,0-1.861,2.644,8.593,8.593,0,0,0-.36,3.735Zm2.881-.983a6.02,6.02,0,0,1,.45-3.436,2.8,2.8,0,0,1,4.547-.424,6.051,6.051,0,0,1,1.142,3.276l0.071,0.689a5.911,5.911,0,0,1-.461,3.427,2.826,2.826,0,0,1-4.534.453,5.975,5.975,0,0,1-1.144-3.3Zm-19.592,7.259,0.68-9.43q0.226-2.586,2.688-2.408a2.564,2.564,0,0,1,1.8.77A2.707,2.707,0,0,1,143.6,259l-0.675,9.352,2.919,0.211,0.682-9.44a4.712,4.712,0,0,0-1.228-3.718,5.688,5.688,0,0,0-3.847-1.6,5.623,5.623,0,0,0-4.073,1.066,4.792,4.792,0,0,0-1.721,3.574l-0.674,9.333ZM127.258,257.1a5.955,5.955,0,0,0-4.116.406,4.083,4.083,0,0,0-2.047,2.95,4.634,4.634,0,0,0,.161,2.535,4.306,4.306,0,0,0,1.506,2,6.42,6.42,0,0,0,2.646,1.125l5.435,1.085,2.782-13.931-2.871-.574-0.98,4.909Zm1.179,7.2-2.632-.525a2.3,2.3,0,0,1-1.535-.983A2.35,2.35,0,0,1,124,261.02a1.99,1.99,0,0,1,.9-1.412,2.578,2.578,0,0,1,1.844-.189l2.564,0.512Zm-14.567-1.137,2.786,0.9,4.358-13.522-8.7-2.805-0.722,2.239,5.916,1.906ZM97.619,249.339a8.507,8.507,0,0,0-.828,3.668,5.631,5.631,0,0,0,.938,3.112,6.26,6.26,0,0,0,5.753,2.6,5.632,5.632,0,0,0,2.956-1.351,8.544,8.544,0,0,0,2.21-3.054l0.289-.64a8.327,8.327,0,0,0,.791-3.621,5.635,5.635,0,0,0-.957-3.094,6.273,6.273,0,0,0-5.761-2.593,5.586,5.586,0,0,0-2.939,1.348,8.578,8.578,0,0,0-2.191,3.047Zm2.984,0.6a6.011,6.011,0,0,1,2.118-2.742,2.8,2.8,0,0,1,4.143,1.921,6.054,6.054,0,0,1-.662,3.406l-0.285.631a5.911,5.911,0,0,1-2.123,2.73,2.826,2.826,0,0,1-4.146-1.891,5.975,5.975,0,0,1,.67-3.423Zm-9.279-13.033-2.648-1.636-2.944,14.882,2.308,1.425,11.966-9.306-2.647-1.636-2.369,1.978-4.366-2.7Zm-2.551,10.9,1.276-5.463,3.021,1.867Zm-4.565-16.16a6.683,6.683,0,0,0-3.142-1.436,5.829,5.829,0,0,0-3.29.414,7.428,7.428,0,0,0-2.848,2.227l-0.411.508a7.407,7.407,0,0,0-1.579,3.273,5.885,5.885,0,0,0,.285,3.317,6.647,6.647,0,0,0,2.076,2.764l3.4,2.748,8.932-11.048Zm-7.419,9.223a3.169,3.169,0,0,1-1.339-2.519,5.152,5.152,0,0,1,1.366-3.118l0.472-.584a5.067,5.067,0,0,1,2.739-1.914,3.18,3.18,0,0,1,2.747.778l1.1,0.889-5.963,7.376ZM66.7,221.807a5.952,5.952,0,0,0-3.515-2.179,4.078,4.078,0,0,0-3.418,1.1,4.638,4.638,0,0,0-1.413,2.11,4.316,4.316,0,0,0-.018,2.5,6.415,6.415,0,0,0,1.416,2.5l3.655,4.166,10.679-9.37-1.931-2.2-3.763,3.3Zm-3.442,6.434-1.77-2.017a2.3,2.3,0,0,1-.621-1.714,2.345,2.345,0,0,1,.863-1.576,1.989,1.989,0,0,1,1.576-.571,2.574,2.574,0,0,1,1.579.971l1.725,1.966ZM47.426,211.166l1.631,2.43,4.78-3.208,3.181,4.74-4.78,3.208,1.631,2.431,11.8-7.917-1.631-2.43-5.056,3.392L55.8,209.073l5.056-3.393-1.631-2.431Zm-1.279-17.331a8.5,8.5,0,0,0-2.971,2.3,5.631,5.631,0,0,0-1.255,3,6.26,6.26,0,0,0,2.786,5.665,5.629,5.629,0,0,0,3.141.837,8.534,8.534,0,0,0,3.648-.951l0.63-.31a8.333,8.333,0,0,0,2.913-2.292,5.641,5.641,0,0,0,1.228-3,6.273,6.273,0,0,0-2.8-5.666,5.582,5.582,0,0,0-3.126-.827,8.559,8.559,0,0,0-3.628.958Zm1.922,2.36a6.023,6.023,0,0,1,3.378-.77,2.8,2.8,0,0,1,1.976,4.117,6.051,6.051,0,0,1-2.676,2.208l-0.622.306a5.912,5.912,0,0,1-3.374.757,2.827,2.827,0,0,1-2-4.1,5.979,5.979,0,0,1,2.694-2.216ZM35.392,183.933l3.843,10.915,2.236-.787-1.426-4.05,11.164-3.93-0.972-2.761-11.164,3.93-1.445-4.1Zm3.293-15.894a8.5,8.5,0,0,0-3.438,1.524,5.628,5.628,0,0,0-1.937,2.61,6.262,6.262,0,0,0,1.346,6.168,5.623,5.623,0,0,0,2.848,1.565,8.53,8.53,0,0,0,3.77-.048l0.686-.15a8.319,8.319,0,0,0,3.377-1.526,5.636,5.636,0,0,0,1.911-2.614,6.272,6.272,0,0,0-1.356-6.171,5.583,5.583,0,0,0-2.836-1.553,8.569,8.569,0,0,0-3.752.06Zm1.3,2.752a6.026,6.026,0,0,1,3.464.063,2.8,2.8,0,0,1,.931,4.471,6.057,6.057,0,0,1-3.128,1.5l-0.677.147a5.908,5.908,0,0,1-3.457-.074,2.826,2.826,0,0,1-.957-4.455,5.969,5.969,0,0,1,3.147-1.506Z" transform="translate(-8 -8)"/>
  <circle class="cls-3" cx="30.969" cy="140.031" r="6"/>
  <circle id="Ellipse_1_copy_3" data-name="Ellipse 1 copy 3" class="cls-3" cx="252.031" cy="143.969" r="6"/>
  <path id="Forma_1" data-name="Forma 1" class="cls-4" d="M141.1,133.379a5.246,5.246,0,1,1-5.246,5.246A5.246,5.246,0,0,1,141.1,133.379Zm43.06,24.552a16.155,16.155,0,0,0-9.035-4.3V126.968a10.485,10.485,0,0,0-2.987-7.285,10.176,10.176,0,0,0-7.286-2.987H122.6a10.488,10.488,0,0,0-7.286,2.987,10.18,10.18,0,0,0-2.987,7.285v43.494a10.494,10.494,0,0,0,2.987,7.286,10.182,10.182,0,0,0,7.286,2.987h40.874A15.414,15.414,0,0,0,184.161,157.931Zm-67.978-30.963a6.1,6.1,0,0,1,1.895-4.444,6.391,6.391,0,0,1,4.517-1.894h42.258a6.469,6.469,0,0,1,6.412,6.411v22.73l-10.783-10.782a1.957,1.957,0,0,0-2.769,0l-16.248,16.319-11-11.073a1.956,1.956,0,0,0-2.769,0l-11.512,11.656V126.968Zm6.339,50.051v-0.146a6.393,6.393,0,0,1-4.517-1.894,6.648,6.648,0,0,1-1.822-4.517v-9.034l12.9-12.968,11,11a2.026,2.026,0,0,0,2.769,0L159.1,143.142l10.638,10.709-0.656.219a6.881,6.881,0,0,0-.947.291c-0.292.073-.583,0.219-0.874,0.292a2.162,2.162,0,0,0-.583.291,6.958,6.958,0,0,0-.729.364l-1.093.656c-0.218.146-.364,0.219-0.583,0.364-0.145.073-.218,0.146-0.364,0.219a8.775,8.775,0,0,0-1.749,1.53,15.414,15.414,0,0,0-4.517,10.928,16.061,16.061,0,0,0,.364,3.206c0.073,0.291.146,0.51,0.219,0.8,0.219,0.729.437,1.457,0.729,2.186v0.073a13.276,13.276,0,0,0,.947,1.748H122.522Zm58.8,0a11.527,11.527,0,0,1-16.1.146c-0.291-.292-0.582-0.656-0.874-0.947-0.218-.219-0.437-0.51-0.656-0.729a6.9,6.9,0,0,1-.728-1.238c-0.146-.292-0.292-0.51-0.437-0.8a6.137,6.137,0,0,1-.365-1.238c-0.072-.292-0.218-0.656-0.291-0.947a12.041,12.041,0,0,1-.219-2.332,11.7,11.7,0,0,1,3.352-8.16,11.267,11.267,0,0,1,8.16-3.351,11.7,11.7,0,0,1,8.16,3.351,11.389,11.389,0,0,1,3.352,8.16A11.653,11.653,0,0,1,181.319,177.019Zm-6.776-15.955a2.507,2.507,0,0,0-.655-0.437,2.126,2.126,0,0,0-.656-0.146h-0.146a2.12,2.12,0,0,0-.655.146,1.71,1.71,0,0,0-.656.437l-4.517,4.517a1.957,1.957,0,0,0,2.768,2.768l1.166-1.165V175.2a1.967,1.967,0,0,0,3.934,0v-8.014l1.166,1.165a1.958,1.958,0,0,0,2.769-2.768Z" transform="translate(-8 -8)"/>
</svg>
