<?xml version="1.0" encoding="UTF-8" standalone="no"?>
<svg
   xmlns:dc="http://purl.org/dc/elements/1.1/"
   xmlns:cc="http://creativecommons.org/ns#"
   xmlns:rdf="http://www.w3.org/1999/02/22-rdf-syntax-ns#"
   xmlns:svg="http://www.w3.org/2000/svg"
   xmlns="http://www.w3.org/2000/svg"
   xmlns:sodipodi="http://sodipodi.sourceforge.net/DTD/sodipodi-0.dtd"
   xmlns:inkscape="http://www.inkscape.org/namespaces/inkscape"
   width="192.54578mm"
   height="210.15475mm"
   viewBox="0 0 192.54577 210.15475"
   version="1.1"
   id="svg8"
   sodipodi:docname="map-preview.svg"
   inkscape:version="1.0.1 (3bc2e813f5, 2020-09-07)">
  <defs
     id="defs2" />
  <sodipodi:namedview
     id="base"
     pagecolor="#ffffff"
     bordercolor="#666666"
     borderopacity="1.0"
     inkscape:pageopacity="0.0"
     inkscape:pageshadow="2"
     inkscape:zoom="0.24748737"
     inkscape:cx="1406.5061"
     inkscape:cy="546.01237"
     inkscape:document-units="mm"
     inkscape:current-layer="layer1"
     inkscape:document-rotation="0"
     showgrid="false"
     inkscape:window-width="1920"
     inkscape:window-height="1017"
     inkscape:window-x="-8"
     inkscape:window-y="-8"
     inkscape:window-maximized="1"
     fit-margin-top="0"
     fit-margin-left="0"
     fit-margin-right="0"
     fit-margin-bottom="0" />
  <metadata
     id="metadata5">
    <rdf:RDF>
      <cc:Work
         rdf:about="">
        <dc:format>image/svg+xml</dc:format>
        <dc:type
           rdf:resource="http://purl.org/dc/dcmitype/StillImage" />
        <dc:title></dc:title>
      </cc:Work>
    </rdf:RDF>
  </metadata>
  <g
     inkscape:label="Layer 1"
     inkscape:groupmode="layer"
     id="layer1"
     transform="translate(241.1488,7.5595236)">
    <rect
       style="fill:#4caf50;fill-opacity:1;stroke:none;stroke-width:4.06501"
       id="rect837"
       width="160.2619"
       height="210.15475"
       x="-241.1488"
       y="-7.5595236"
       rx="10.000007" />
    <rect
       style="font-variation-settings:normal;opacity:1;vector-effect:none;fill:#ffff30;fill-opacity:1;stroke:none;stroke-width:3.73359;stroke-linecap:butt;stroke-linejoin:miter;stroke-miterlimit:4;stroke-dasharray:none;stroke-dashoffset:0;stroke-opacity:1;stop-color:#000000;stop-opacity:1"
       id="rect839"
       width="33.798832"
       height="15.119047"
       x="-224.59337"
       y="-45.357136"
       rx="2.5307698"
       transform="scale(1,-1)" />
    <rect
       style="font-variation-settings:normal;opacity:1;vector-effect:none;fill:#ffff30;fill-opacity:1;stroke:none;stroke-width:3.73359;stroke-linecap:butt;stroke-linejoin:miter;stroke-miterlimit:4;stroke-dasharray:none;stroke-dashoffset:0;stroke-opacity:1;stop-color:#000000;stop-opacity:1"
       id="rect839-0"
       width="33.798832"
       height="15.119047"
       x="-178.04195"
       y="-45.357136"
       rx="2.5307698"
       transform="scale(1,-1)" />
    <rect
       style="font-variation-settings:normal;opacity:1;vector-effect:none;fill:#ffff30;fill-opacity:1;stroke:none;stroke-width:3.73359;stroke-linecap:butt;stroke-linejoin:miter;stroke-miterlimit:4;stroke-dasharray:none;stroke-dashoffset:0;stroke-opacity:1;stop-color:#000000;stop-opacity:1"
       id="rect839-7"
       width="33.798832"
       height="15.119047"
       x="-130.88791"
       y="-45.357136"
       rx="2.5307698"
       transform="scale(1,-1)" />
    <rect
       style="fill:#ffffff;fill-opacity:1;stroke:none;stroke-width:3.73359"
       id="rect839-3"
       width="33.798832"
       height="15.119047"
       x="-224.59337"
       y="-77.93869"
       rx="2.5307698"
       transform="scale(1,-1)" />
    <rect
       style="fill:#ffffff;fill-opacity:1;stroke:none;stroke-width:3.73359"
       id="rect839-0-4"
       width="33.798832"
       height="15.119047"
       x="-178.04195"
       y="-77.93869"
       rx="2.5307698"
       transform="scale(1,-1)" />
    <rect
       style="fill:#ffffff;fill-opacity:1;stroke:none;stroke-width:3.73359"
       id="rect839-7-6"
       width="33.798832"
       height="15.119047"
       x="-130.88789"
       y="-77.93869"
       rx="2.5307698"
       transform="scale(1,-1)" />
    <rect
       style="fill:#ffffff;fill-opacity:1;stroke:none;stroke-width:3.73359"
       id="rect839-2"
       width="33.798832"
       height="15.119047"
       x="-224.59346"
       y="-104.39701"
       rx="2.5307698"
       transform="scale(1,-1)" />
    <rect
       style="fill:#ffffff;fill-opacity:1;stroke:none;stroke-width:3.73359"
       id="rect839-0-47"
       width="33.798832"
       height="15.119047"
       x="-178.04199"
       y="-104.39701"
       rx="2.5307698"
       transform="scale(1,-1)" />
    <rect
       style="fill:#ffffff;fill-opacity:1;stroke:none;stroke-width:3.73359"
       id="rect839-7-1"
       width="33.798832"
       height="15.119047"
       x="-130.88789"
       y="-104.39701"
       rx="2.5307698"
       transform="scale(1,-1)" />
    <rect
       style="fill:#ffffff;fill-opacity:1;stroke:none;stroke-width:3.73359"
       id="rect839-1"
       width="33.798832"
       height="15.119047"
       x="-224.59346"
       y="-130.85533"
       rx="2.5307698"
       transform="scale(1,-1)" />
    <rect
       style="fill:#ffffff;fill-opacity:1;stroke:none;stroke-width:3.73359"
       id="rect839-0-0"
       width="33.798832"
       height="15.119047"
       x="-178.04204"
       y="-130.85533"
       rx="2.5307698"
       transform="scale(1,-1)" />
    <rect
       style="fill:#ffffff;fill-opacity:1;stroke:none;stroke-width:3.73359"
       id="rect839-7-2"
       width="33.798832"
       height="15.119047"
       x="-130.888"
       y="-130.85533"
       rx="2.5307698"
       transform="scale(1,-1)" />
    <rect
       style="fill:#ffffff;fill-opacity:1;stroke:none;stroke-width:3.73359"
       id="rect839-8"
       width="33.798832"
       height="15.119047"
       x="-224.59346"
       y="-157.31369"
       rx="2.5307698"
       transform="scale(1,-1)" />
    <rect
       style="fill:#ffffff;fill-opacity:1;stroke:none;stroke-width:3.73359"
       id="rect839-0-46"
       width="33.798832"
       height="15.119047"
       x="-178.04204"
       y="-157.31369"
       rx="2.5307698"
       transform="scale(1,-1)" />
    <rect
       style="fill:#ffffff;fill-opacity:1;stroke:none;stroke-width:3.73359"
       id="rect839-7-5"
       width="33.798832"
       height="15.119047"
       x="-130.88799"
       y="-157.31369"
       rx="2.5307698"
       transform="scale(1,-1)" />
    <rect
       style="fill:#ffffff;fill-opacity:1;stroke:none;stroke-width:3.73359"
       id="rect839-5"
       width="33.798832"
       height="15.119047"
       x="-224.59346"
       y="-183.77205"
       rx="2.5307698"
       transform="scale(1,-1)" />
    <rect
       style="fill:#ffffff;fill-opacity:1;stroke:none;stroke-width:3.73359"
       id="rect839-0-7"
       width="33.798832"
       height="15.119047"
       x="-178.04202"
       y="-183.77205"
       rx="2.5307698"
       transform="scale(1,-1)" />
    <rect
       style="fill:#ffffff;fill-opacity:1;stroke:none;stroke-width:3.73359"
       id="rect839-7-14"
       width="33.798832"
       height="15.119047"
       x="-130.88799"
       y="-183.77205"
       rx="2.5307698"
       transform="scale(1,-1)" />
    <g
       id="g1196"
       transform="matrix(0.19568245,0,0,0.19568245,-148.78589,102.14165)">
      <circle
         style="fill:#c7eafb"
         cx="176.09599"
         cy="176.09599"
         r="143.946"
         id="circle1123" />
      <path
         style="fill:#abe1fa"
         d="m 265.086,63.122 c 48.822,62.744 37.538,153.183 -25.207,202.004 -51.988,40.457 -124.809,40.457 -176.798,0 48.822,62.744 139.26,74.028 202.004,25.207 62.744,-48.821 74.028,-139.26 25.207,-202.004 -7.332,-9.421 -15.793,-17.882 -25.206,-25.207 z"
         id="path1125" />
      <path
         style="fill:#ffffff"
         d="m 64.122,184.117 c -4.414,0 -7.997,-3.583 -7.997,-7.997 0,-66.247 53.708,-119.955 119.955,-119.955 4.414,0 7.997,3.583 7.997,7.997 0,4.414 -3.583,7.997 -7.997,7.997 -57.418,0 -103.961,46.543 -103.961,103.961 0,4.414 -3.583,7.997 -7.997,7.997 z"
         id="path1127" />
      <path
         style="fill:#de333f"
         d="m 507.156,441.38 c 6.414,6.43 6.414,16.842 0,23.271 l -42.544,42.544 c -6.43,6.414 -16.842,6.414 -23.271,0 L 324.824,390.679 c -6.414,-6.43 -6.414,-16.842 0,-23.271 l 42.544,-42.544 c 6.43,-6.414 16.842,-6.414 23.271,0 z"
         id="path1129" />
      <path
         style="fill:#35495c"
         d="m 357.372,334.78 -31.988,-31.988 c -7.757,-8.141 -8.821,-20.568 -2.559,-29.909 C 376.357,191.793 354.013,82.658 272.924,29.126 191.835,-24.406 82.699,-2.061 29.167,79.028 c -53.532,81.089 -31.189,190.225 49.901,243.757 58.786,38.809 135.061,38.809 193.855,0 9.34,-6.262 21.768,-5.198 29.909,2.559 l 31.988,31.988 z M 176.08,320.066 c -79.498,0 -143.946,-64.448 -143.946,-143.946 0,-79.498 64.448,-143.946 143.946,-143.946 79.498,0 143.946,64.448 143.946,143.946 0,79.498 -64.448,143.946 -143.946,143.946 z"
         id="path1131" />
      <path
         style="fill:#c61c31"
         d="m 480.925,461.693 c -18.777,15.018 -45.823,13.611 -62.936,-3.279 l -93.165,-91.006 c -6.414,6.43 -6.414,16.842 0,23.271 L 441.34,507.196 c 6.43,6.414 16.842,6.414 23.271,0 l 42.144,-42.144 c 0.704,-0.712 1.352,-1.487 1.919,-2.319 2.711,-4.398 1.343,-10.164 -3.055,-12.875 -3.471,-2.143 -7.933,-1.783 -11.02,0.88 z"
         id="path1133" />
      <path
         style="fill:#253647"
         d="m 327.303,168.123 c -8.181,84.216 -74.98,150.775 -159.22,158.66 -10.38,0.904 -20.808,0.904 -31.188,0 -5.438,-0.616 -10.356,3.295 -10.972,8.741 -0.568,5.006 2.703,9.636 7.613,10.772 94.277,23.511 189.769,-33.859 213.272,-128.136 9.029,-36.202 6.31,-74.34 -7.749,-108.895 -1.919,-3.975 -6.701,-5.646 -10.676,-3.727 -3.151,1.519 -4.942,4.91 -4.438,8.365 3.886,17.793 5.021,36.083 3.358,54.22 z"
         id="path1135" />
      <g
         id="g1137">
</g>
      <g
         id="g1139">
</g>
      <g
         id="g1141">
</g>
      <g
         id="g1143">
</g>
      <g
         id="g1145">
</g>
      <g
         id="g1147">
</g>
      <g
         id="g1149">
</g>
      <g
         id="g1151">
</g>
      <g
         id="g1153">
</g>
      <g
         id="g1155">
</g>
      <g
         id="g1157">
</g>
      <g
         id="g1159">
</g>
      <g
         id="g1161">
</g>
      <g
         id="g1163">
</g>
      <g
         id="g1165">
</g>
    </g>
  </g>
</svg>
