<?xml version="1.0" encoding="UTF-8" standalone="no"?>
<svg xmlns:dc="http://purl.org/dc/elements/1.1/" xmlns:cc="http://creativecommons.org/ns#" xmlns:rdf="http://www.w3.org/1999/02/22-rdf-syntax-ns#" xmlns:svg="http://www.w3.org/2000/svg" xmlns="http://www.w3.org/2000/svg" xmlns:sodipodi="http://sodipodi.sourceforge.net/DTD/sodipodi-0.dtd" xmlns:inkscape="http://www.inkscape.org/namespaces/inkscape" width="135.13806mm" height="135.04333mm" viewBox="0 0 135.13806 135.04333" version="1.1" id="svg8" inkscape:version="1.0.1 (3bc2e813f5, 2020-09-07)" sodipodi:docname="homeroom_teacher.svg">
   <defs id="defs2" />
   <sodipodi:namedview id="base" pagecolor="#ffffff" bordercolor="#666666" borderopacity="1.0" inkscape:pageopacity="0.0" inkscape:pageshadow="2" inkscape:zoom="0.24748737" inkscape:cx="164.70669" inkscape:cy="672.41045" inkscape:document-units="mm" inkscape:current-layer="g835" inkscape:document-rotation="0" showgrid="false" fit-margin-top="0" fit-margin-left="0" fit-margin-right="0" fit-margin-bottom="0" inkscape:window-width="1920" inkscape:window-height="1017" inkscape:window-x="-8" inkscape:window-y="-8" inkscape:window-maximized="1" />
   <metadata id="metadata5">
    <rdf:RDF>
         <cc:Work rdf:about="">
        <dc:format>image/svg+xml</dc:format>
            <dc:type rdf:resource="http://purl.org/dc/dcmitype/StillImage" />
        <dc:title></dc:title>
      </cc:Work>
    </rdf:RDF>
  </metadata>
   <g inkscape:label="Layer 1" inkscape:groupmode="layer" id="layer1" transform="translate(-52.6274,-64.77)" fill="#1763b3">
      <g id="g894" transform="matrix(0.26458333,0,0,0.26458333,52.627366,64.72264)">
         <g id="g837">
            <g id="g835">
               <path d="m 169.738,408.179 c -0.37644,-44.79842 29.97969,-87.74569 83.87107,-87.5797 56.13806,0.78377 86.53257,39.62727 86.79593,83.3127 l 0.76981,60.53516 -170.95612,0.93616 z m 256,102.4 c 12.8,0 21.333,-8.533 21.333,-21.333 V 254.579 h 42.667 c 19.2,0 27.734,-23.467 14.934,-36.267 L 270.005,4.979 c -8.533,-6.4 -21.333,-6.4 -27.733,0 L 7.605,218.312 c -14.933,12.8 -6.4,36.267 12.8,36.267 h 42.667 v 234.667 c 0,12.8 8.533,21.333 21.333,21.333 H 255.0715 Z M 255.072,275.912 c -36.267,0 -64,-27.733 -64,-64 0,-36.267 27.733,-64 64,-64 36.267,0 64,27.733 64,64 0,36.267 -27.734,64 -64,64 z" id="path833" sodipodi:nodetypes="sccccssscsccccscsscssssss" />
        </g>
      </g>
    </g>
  </g>
</svg>
