<?xml version="1.0" encoding="iso-8859-1"?>
<!-- Generator: Adobe Illustrator 19.0.0, SVG Export Plug-In . SVG Version: 6.00 Build 0)  -->
<svg version="1.1" id="Capa_1" xmlns="http://www.w3.org/2000/svg" xmlns:xlink="http://www.w3.org/1999/xlink" x="0px" y="0px"
	 viewBox="0 0 512 512" style="enable-background:new 0 0 512 512;" xml:space="preserve">
<g>
	<g>
		<path d="M372.297,151.029h-39.052c-46.892,0-85.046,38.114-85.106,84.996l-0.269,21.017v0.2c0,30.244-24.239,53.934-55.161,53.934
			l-53.006-0.09c-46.932,0-85.106,38.174-85.106,85.106v21.965h29.925v-21.965c0-21.266,12.09-39.76,29.745-48.967L114.207,512
			h89.784V340.382c18.434-2.364,35.441-10.484,48.737-23.451c16.139-15.74,25.037-36.897,25.067-59.58l0.269-21.027v-0.19
			c0-9.785,2.554-18.972,7.032-26.942l22.144,22.234l-25.865,279.825h142.541l-25.795-279.795l22.294-22.294
			c4.499,7.98,7.062,17.177,7.062,26.972v75.45h29.925v-75.45C457.403,189.203,419.219,151.029,372.297,151.029z" fill="#1763b3"/>
	</g>
</g>
<g>
	<g>
		<path d="M352.766,0c-36.648,0-66.463,29.825-66.463,66.473c0,36.648,29.815,66.473,66.463,66.473
			c36.658,0,66.473-29.825,66.473-66.473C419.239,29.825,389.424,0,352.766,0z" fill="#1763b3"/>
	</g>
</g>
<g>
	<g>
		<path d="M159.224,186.979c-30.084,0-54.553,24.468-54.553,54.543s24.468,54.553,54.553,54.553
			c30.074,0,54.543-24.478,54.543-54.553S189.298,186.979,159.224,186.979z" fill="#1763b3"/>
	</g>
</g>
</svg>
