<?xml version="1.0" encoding="UTF-8" standalone="no"?>
<svg
   xmlns:dc="http://purl.org/dc/elements/1.1/"
   xmlns:cc="http://creativecommons.org/ns#"
   xmlns:rdf="http://www.w3.org/1999/02/22-rdf-syntax-ns#"
   xmlns:svg="http://www.w3.org/2000/svg"
   xmlns="http://www.w3.org/2000/svg"
   xmlns:sodipodi="http://sodipodi.sourceforge.net/DTD/sodipodi-0.dtd"
   xmlns:inkscape="http://www.inkscape.org/namespaces/inkscape"
   width="225.425mm"
   height="225.425mm"
   viewBox="0 0 225.425 225.425"
   version="1.1"
   id="svg8"
   inkscape:version="1.0.1 (3bc2e813f5, 2020-09-07)"
   sodipodi:docname="re-enroll.svg">
  <defs
     id="defs2" />
  <sodipodi:namedview
     id="base"
     pagecolor="#ffffff"
     bordercolor="#666666"
     borderopacity="1.0"
     inkscape:pageopacity="0.0"
     inkscape:pageshadow="2"
     inkscape:zoom="0.35"
     inkscape:cx="1104.7038"
     inkscape:cy="448.17912"
     inkscape:document-units="mm"
     inkscape:current-layer="g877"
     inkscape:document-rotation="0"
     showgrid="false"
     inkscape:window-width="1920"
     inkscape:window-height="1017"
     inkscape:window-x="-8"
     inkscape:window-y="-8"
     inkscape:window-maximized="1"
     fit-margin-top="0"
     fit-margin-left="0"
     fit-margin-right="0"
     fit-margin-bottom="0" />
  <metadata
     id="metadata5">
    <rdf:RDF>
      <cc:Work
         rdf:about="">
        <dc:format>image/svg+xml</dc:format>
        <dc:type
           rdf:resource="http://purl.org/dc/dcmitype/StillImage" />
        <dc:title></dc:title>
      </cc:Work>
    </rdf:RDF>
  </metadata>
  <g
     inkscape:label="Layer 1"
     inkscape:groupmode="layer"
     id="layer1"
     transform="translate(257.47738,-19.957144)">
    <g
       id="g879"
       transform="matrix(0.26458333,0,0,0.26458333,-193.22143,72.87381)">
      <g
         id="g853">
        <path
           d="M 36,10 H 356 V 502 H 36 Z"
           fill="#eefaff"
           id="path833" />
        <path
           d="m 196,90 c -44.18,0 -80,35.82 -80,80 0,29.61 16.09,55.46 40,69.29 h 80 c 23.91,-13.83 40,-39.68 40,-69.29 0,-44.18 -35.82,-80 -80,-80 z"
           fill="#9bc5ff"
           id="path835" />
        <path
           d="m 476,136 v 20 c -9.679,0 -70.257,0 -80,0 v -40 h 60 c 11.05,0 20,8.95 20,20 z"
           fill="#eefaff"
           id="path837" />
        <path
           d="m 436,316 v 55.28 c 0,29.41 -6.85,58.41 -20,84.72 -13.15,-26.31 -20,-55.31 -20,-84.72 V 316 Z"
           fill="#fce8d0"
           id="path839" />
        <g
           fill="#ff7b79"
           id="g849">
          <path
             d="m 396,156 h 40 v 160 h -40 z"
             id="path841" />
          <path
             d="m 396,76 h 40 v 40 h -40 z"
             id="path843" />
          <path
             d="m 256,10 v 20 c 0,11.05 -8.95,20 -20,20 H 156 C 144.95,50 136,41.05 136,30 V 10 Z"
             id="path845" />
          <path
             d="m 236,239.29 v 0.01 c -11.77,6.8 -25.43,10.7 -40,10.7 -14.57,0 -28.23,-3.9 -40,-10.7 V 230 c 0,-22.09 17.91,-40 40,-40 22.09,0 40,17.91 40,40 z"
             id="path847" />
        </g>
        <circle
           cx="196"
           cy="150"
           fill="#fce8d0"
           r="20"
           id="circle851" />
      </g>
      <g
         id="g877">
        <path
           d="m 226,150 c 0,-16.542 -13.458,-30 -30,-30 -16.542,0 -30,13.458 -30,30 0,16.542 13.458,30 30,30 16.542,0 30,-13.458 30,-30 z m -30,10 c -5.514,0 -10,-4.486 -10,-10 0,-5.514 4.486,-10 10,-10 5.514,0 10,4.486 10,10 0,5.514 -4.486,10 -10,10 z"
           id="path855"
           style="fill:#333333;fill-opacity:1" />
        <path
           d="m 143.071,268.929 c -3.905,-3.905 -10.237,-3.905 -14.143,0 L 96,301.858 83.071,288.929 c -3.905,-3.905 -10.237,-3.905 -14.143,0 -3.905,3.905 -3.905,10.237 0,14.143 l 20,20 C 90.881,325.024 93.441,326 96,326 c 2.559,0 5.119,-0.976 7.071,-2.929 l 40,-40 c 3.905,-3.905 3.905,-10.237 0,-14.142 z"
           id="path857"
           style="fill:#333333;fill-opacity:1" />
        <path
           d="M 316,306 H 156 c -5.523,0 -10,4.477 -10,10 0,5.523 4.477,10 10,10 h 160 c 5.522,0 10,-4.477 10,-10 0,-5.523 -4.478,-10 -10,-10 z"
           id="path859"
           style="fill:#333333;fill-opacity:1" />
        <path
           d="m 143.071,328.929 c -3.905,-3.905 -10.237,-3.905 -14.143,0 L 96,361.858 83.071,348.929 c -3.905,-3.905 -10.237,-3.905 -14.143,0 -3.905,3.905 -3.905,10.237 0,14.143 l 20,20 C 90.881,385.024 93.441,386 96,386 c 2.559,0 5.119,-0.976 7.071,-2.929 l 40,-40 c 3.905,-3.905 3.905,-10.237 0,-14.142 z"
           id="path861"
           style="fill:#333333;fill-opacity:1" />
        <path
           d="M 316,366 H 156 c -5.523,0 -10,4.477 -10,10 0,5.523 4.477,10 10,10 h 160 c 5.522,0 10,-4.477 10,-10 0,-5.523 -4.478,-10 -10,-10 z"
           id="path863"
           style="fill:#333333;fill-opacity:1" />
        <path
           d="M 128.929,388.929 96,421.858 83.071,408.929 c -3.905,-3.905 -10.237,-3.905 -14.143,0 -3.905,3.905 -3.905,10.237 0,14.143 l 20,20 C 90.881,445.024 93.441,446 96,446 c 2.559,0 5.119,-0.976 7.071,-2.929 l 40,-40 c 3.905,-3.905 3.905,-10.237 0,-14.143 -3.905,-3.905 -10.237,-3.905 -14.142,10e-4 z"
           id="path865"
           style="fill:#333333;fill-opacity:1" />
        <path
           d="m 326,436 c 0,-5.523 -4.478,-10 -10,-10 H 156 c -5.523,0 -10,4.477 -10,10 0,5.523 4.477,10 10,10 h 160 c 5.522,0 10,-4.477 10,-10 z"
           id="path867"
           style="fill:#333333;fill-opacity:1" />
        <path
           d="m 196,260 c 50.359,0 90,-41.082 90,-90 0,-49.626 -40.374,-90 -90,-90 -49.626,0 -90,40.374 -90,90 0,49.034 39.741,90 90,90 z M 166,233.254 V 230 c 0,-16.542 13.458,-30 30,-30 16.542,0 30,13.458 30,30 v 3.254 c -9.332,4.422 -19.594,6.746 -30,6.746 -10.406,0 -20.668,-2.324 -30,-6.746 z M 126,170 c 0,-38.598 31.402,-70 70,-70 38.598,0 70,31.402 70,70 0,18.961 -7.778,36.945 -21.013,49.964 C 240.328,197.187 220.134,180 196,180 171.866,180 151.672,197.187 147.013,219.964 133.778,206.945 126,188.961 126,170 Z"
           id="path869"
           style="fill:#333333;fill-opacity:1" />
        <path
           d="m 436,66 h -40 c -5.522,0 -10,4.477 -10,10 v 295.28 c 0,30.791 7.28,61.633 21.055,89.191 1.694,3.389 5.157,5.529 8.945,5.529 3.788,0 7.251,-2.141 8.945,-5.529 C 438.72,432.913 446,402.071 446,371.28 V 166 h 20 v 50 c 0,5.523 4.478,10 10,10 5.522,0 10,-4.477 10,-10 v -80 c 0,-16.542 -13.458,-30 -30,-30 H 446 V 76 c 0,-5.523 -4.478,-10 -10,-10 z m -10,20 v 20 H 406 V 86 Z M 416,430.291 C 409.423,411.352 406,391.303 406,371.28 V 326 h 20 v 45.28 c 0,20.023 -3.423,40.072 -10,59.011 z M 426,306 H 406 V 166 h 20 z m 40,-170 v 10 h -60 v -20 h 50 c 5.514,0 10,4.486 10,10 z"
           id="path871"
           style="fill:#333333;fill-opacity:1" />
        <path
           d="M 36,0 C 30.477,0 26,4.477 26,10 v 492 c 0,5.523 4.477,10 10,10 h 207 c 5.523,0 10,-4.477 10,-10 0,-5.523 -4.477,-10 -10,-10 H 46 V 20 h 80 v 10 c 0,16.542 13.458,30 30,30 h 80 c 16.542,0 30,-13.458 30,-30 V 20 h 80 V 492 H 241 c -5.523,0 -10,4.477 -10,10 0,5.523 4.477,10 10,10 h 115 c 5.522,0 10,-4.477 10,-10 V 10 C 366,4.477 361.522,0 356,0 Z m 210,30 c 0,5.514 -4.486,10 -10,10 h -80 c -5.514,0 -10,-4.486 -10,-10 V 20 h 100 z"
           id="path875"
           sodipodi:nodetypes="ssssssscccsssscccssssssssssssccs"
           style="fill:#333333;fill-opacity:1" />
        <g
           id="g982"
           transform="matrix(1.6640625,0,0,1.6640625,-242.85713,-200)">
          <g
             id="g916"
             style="fill:#333333;fill-opacity:1">
	<g
   id="g914"
   style="fill:#333333;fill-opacity:1">
		<path
   d="m 256,0 c -6.013,0 -10.894,4.88 -10.894,10.894 0,6.013 4.88,10.894 10.894,10.894 129.144,0 234.213,105.069 234.213,234.213 C 490.213,385.145 385.144,490.213 256,490.213 126.856,490.213 21.787,385.144 21.787,256 c 0,-78.254 38.917,-151.024 104.105,-194.658 4.995,-3.35 6.335,-10.115 2.99,-15.115 -3.344,-4.995 -10.109,-6.34 -15.115,-2.99 C 42.534,90.924 0,170.463 0,256 0,397.159 114.841,512 256,512 397.159,512 512,397.159 512,256 512,114.841 397.159,0 256,0 Z"
   id="path912"
   style="fill:#333333;fill-opacity:1" />

	</g>

</g>
          <g
             id="g922">
	<g
   id="g920">
		<path
   d="M 130.723,27.234 H 38.672 c -6.013,0 -10.894,4.88 -10.894,10.894 0,6.013 4.88,10.894 10.894,10.894 h 81.157 v 81.702 c 0,6.013 4.88,10.894 10.894,10.894 6.013,0 10.894,-4.88 10.894,-10.894 V 38.128 c 0,-6.014 -4.88,-10.894 -10.894,-10.894 z"
   id="path918" />

	</g>

</g>
          <g
             id="g924">
</g>
          <g
             id="g926">
</g>
          <g
             id="g928">
</g>
          <g
             id="g930">
</g>
          <g
             id="g932">
</g>
          <g
             id="g934">
</g>
          <g
             id="g936">
</g>
          <g
             id="g938">
</g>
          <g
             id="g940">
</g>
          <g
             id="g942">
</g>
          <g
             id="g944">
</g>
          <g
             id="g946">
</g>
          <g
             id="g948">
</g>
          <g
             id="g950">
</g>
          <g
             id="g952">
</g>
        </g>
      </g>
    </g>
  </g>
</svg>
