<?xml version="1.0" encoding="UTF-8" standalone="no"?>
<svg
   xmlns:dc="http://purl.org/dc/elements/1.1/"
   xmlns:cc="http://creativecommons.org/ns#"
   xmlns:rdf="http://www.w3.org/1999/02/22-rdf-syntax-ns#"
   xmlns:svg="http://www.w3.org/2000/svg"
   xmlns="http://www.w3.org/2000/svg"
   xmlns:sodipodi="http://sodipodi.sourceforge.net/DTD/sodipodi-0.dtd"
   xmlns:inkscape="http://www.inkscape.org/namespaces/inkscape"
   width="85mm"
   height="85mm"
   viewBox="0 0 85 85"
   version="1.1"
   id="svg8"
   inkscape:version="1.0.1 (3bc2e813f5, 2020-09-07)"
   sodipodi:docname="reassign-new-teacher.svg">
  <defs
     id="defs2" />
  <sodipodi:namedview
     id="base"
     pagecolor="#ffffff"
     bordercolor="#ffffff"
     borderopacity="1.0"
     inkscape:pageopacity="0.0"
     inkscape:pageshadow="2"
     inkscape:zoom="0.35"
     inkscape:cx="400"
     inkscape:cy="560"
     inkscape:document-units="mm"
     inkscape:current-layer="g1162"
     inkscape:document-rotation="0"
     showgrid="false"
     inkscape:window-width="1267"
     inkscape:window-height="1040"
     inkscape:window-x="208"
     inkscape:window-y="0"
     inkscape:window-maximized="0" />
  <metadata
     id="metadata5">
    <rdf:RDF>
      <cc:Work
         rdf:about="">
        <dc:format>image/svg+xml</dc:format>
        <dc:type
           rdf:resource="http://purl.org/dc/dcmitype/StillImage" />
        <dc:title></dc:title>
      </cc:Work>
    </rdf:RDF>
  </metadata>
  <g
     inkscape:label="Layer 1"
     inkscape:groupmode="layer"
     id="layer1">
    <g
       inkscape:label="Layer 1"
       id="layer1-5"
       transform="translate(120.13111,38.347749)">
      <g
         id="g1020"
         transform="matrix(0.26458333,0,0,0.26458333,-172.81071,96.308334)">
        <g
           id="g1162"
           transform="matrix(0.35222169,0,0,0.35222169,530.7794,-149.93388)" fill="#ffffff">
          <g
             id="g1215"
             transform="translate(-1493.8954,-484.91804)">
            <g
               id="g835"
               transform="translate(628.57154,-334.28572)">
              <path
                 d="M 452,40 H 428 V 0 H 388 V 40 H 124 V 0 H 84 V 40 H 60 C 26.916,40 0,66.916 0,100 v 352 c 0,33.084 26.916,60 60,60 h 392 c 33.084,0 60,-26.916 60,-60 V 100 C 512,66.916 485.084,40 452,40 Z m 20,412 c 0,11.028 -8.972,20 -20,20 H 60 C 48.972,472 40,463.028 40,452 V 188 h 432 z m 0,-304 H 40 V 100 C 40,88.972 48.972,80 60,80 h 24 v 40 h 40 V 80 h 264 v 40 h 40 V 80 h 24 c 11.028,0 20,8.972 20,20 z"
                 id="path833" />
            </g>
            <g
               id="g865"
               transform="translate(628.57148,-363.57142)">
              <rect
                 x="396"
                 y="230"
                 width="40"
                 height="40"
                 id="rect863" />
            </g>
            <path
               d="m 1374.5164,-94.010297 c -0.9167,-0.14877 -1.8444,-0.21739 -2.7726,-0.20537 H 1213.695 l 3.4462,-1.60292 c 3.3687,-1.594407 6.4333,-3.764367 9.0566,-6.411693 l 44.3208,-44.32088 c 5.8372,-5.57216 6.818,-14.53602 2.3243,-21.23875 -5.2301,-7.14253 -15.2599,-8.69336 -22.4029,-3.46332 -0.5771,0.42277 -1.1256,0.88361 -1.641,1.37952 l -80.1462,80.146233 c -6.2635,6.25642 -6.269,16.40544 -0.013,22.66887 0,0.004 0.01,0.009 0.013,0.0125 l 80.1462,80.14625 c 6.2684,6.25091 16.4174,6.23688 22.6688,-0.0316 0.4919,-0.4934 0.9513,-1.01835 1.3751,-1.57136 4.4937,-6.7027298 3.5129,-15.6665898 -2.3243,-21.2387698 l -44.2407,-44.4010102 c -2.3518,-2.3543 -5.0557,-4.3284 -8.0146,-5.85068 l -4.8088,-2.16395 h 157.4072 c 8.1885,0.30406 15.3726,-5.41588 16.9109,-13.46457 1.4171,-8.73844 -4.5178,-16.97097 -13.2562,-18.38856 z"
               id="path1022-8"
               style="fill:#ffffff;fill-opacity:1;stroke-width:0.500914" />
            <g
               id="g843"
               transform="translate(628.57144,-334.28572)">
              <g
                 id="g841">
                <rect
                   x="76"
                   y="230"
                   width="40"
                   height="40"
                   id="rect839" />
              </g>
            </g>
            <g
               id="g849"
               transform="translate(628.57144,-334.28572)">
              <g
                 id="g847">
                <rect
                   x="156"
                   y="230"
                   width="40"
                   height="40"
                   id="rect845" />
              </g>
            </g>
            <g
               id="g855"
               transform="translate(628.57144,-334.28572)">
              <g
                 id="g853">
                <rect
                   x="236"
                   y="230"
                   width="40"
                   height="40"
                   id="rect851" />
              </g>
            </g>
            <g
               id="g861"
               transform="translate(628.57144,-334.28572)">
              <g
                 id="g859">
                <rect
                   x="316"
                   y="230"
                   width="40"
                   height="40"
                   id="rect857" />
              </g>
            </g>
            <g
               id="g873"
               transform="translate(628.57144,-334.28572)">
              <g
                 id="g871">
                <rect
                   x="76"
                   y="310"
                   width="40"
                   height="40"
                   id="rect869" />
              </g>
            </g>
            <g
               id="g879"
               transform="translate(628.57144,-334.28572)">
              <g
                 id="g877">
                <rect
                   x="156"
                   y="310"
                   width="40"
                   height="40"
                   id="rect875" />
              </g>
            </g>
            <g
               id="g885"
               transform="translate(628.57144,-334.28572)">
              <g
                 id="g883">
                <rect
                   x="236"
                   y="310"
                   width="40"
                   height="40"
                   id="rect881" />
              </g>
            </g>
            <g
               id="g891"
               transform="translate(628.57144,-334.28572)">
              <g
                 id="g889">
                <rect
                   x="316"
                   y="310"
                   width="40"
                   height="40"
                   id="rect887" />
              </g>
            </g>
            <g
               id="g897"
               transform="translate(628.57144,-334.28572)">
              <g
                 id="g895">
                <rect
                   x="76"
                   y="390"
                   width="40"
                   height="40"
                   id="rect893" />
              </g>
            </g>
            <g
               id="g903"
               transform="translate(628.57144,-334.28572)">
              <g
                 id="g901">
                <rect
                   x="156"
                   y="390"
                   width="40"
                   height="40"
                   id="rect899" />
              </g>
            </g>
            <g
               id="g909"
               transform="translate(628.57144,-334.28572)">
              <g
                 id="g907">
                <rect
                   x="236"
                   y="390"
                   width="40"
                   height="40"
                   id="rect905" />
              </g>
            </g>
            <g
               id="g915"
               transform="translate(628.57144,-334.28572)">
              <g
                 id="g913">
                <rect
                   x="316"
                   y="390"
                   width="40"
                   height="40"
                   id="rect911" />
              </g>
            </g>
            <g
               id="g921"
               transform="translate(628.57144,-334.28572)">
              <g
                 id="g919">
                <rect
                   x="396"
                   y="310"
                   width="40"
                   height="40"
                   id="rect917" />
              </g>
            </g>
          </g>
        </g>
      </g>
      <g
         id="g1083"
         transform="matrix(0.26458333,0,0,0.26458333,-24.39261,111.67891)" />
    </g>
  </g>
</svg>
